G04 #@! TF.GenerationSoftware,KiCad,Pcbnew,6.99.0-unknown-70a038877e~161~ubuntu22.04.1*
G04 #@! TF.CreationDate,2023-01-18T15:13:39+00:00*
G04 #@! TF.ProjectId,MyBikesGotLED,4d794269-6b65-4734-976f-744c45442e6b,rev?*
G04 #@! TF.SameCoordinates,PX586a470PY296c010*
G04 #@! TF.FileFunction,Copper,L1,Top*
G04 #@! TF.FilePolarity,Positive*
%FSLAX46Y46*%
G04 Gerber Fmt 4.6, Leading zero omitted, Abs format (unit mm)*
G04 Created by KiCad (PCBNEW 6.99.0-unknown-70a038877e~161~ubuntu22.04.1) date 2023-01-18 15:13:39*
%MOMM*%
%LPD*%
G01*
G04 APERTURE LIST*
G04 Aperture macros list*
%AMRoundRect*
0 Rectangle with rounded corners*
0 $1 Rounding radius*
0 $2 $3 $4 $5 $6 $7 $8 $9 X,Y pos of 4 corners*
0 Add a 4 corners polygon primitive as box body*
4,1,4,$2,$3,$4,$5,$6,$7,$8,$9,$2,$3,0*
0 Add four circle primitives for the rounded corners*
1,1,$1+$1,$2,$3*
1,1,$1+$1,$4,$5*
1,1,$1+$1,$6,$7*
1,1,$1+$1,$8,$9*
0 Add four rect primitives between the rounded corners*
20,1,$1+$1,$2,$3,$4,$5,0*
20,1,$1+$1,$4,$5,$6,$7,0*
20,1,$1+$1,$6,$7,$8,$9,0*
20,1,$1+$1,$8,$9,$2,$3,0*%
%AMFreePoly0*
4,1,19,0.500000,-0.750000,0.000000,-0.750000,0.000000,-0.744911,-0.071157,-0.744911,-0.207708,-0.704816,-0.327430,-0.627875,-0.420627,-0.520320,-0.479746,-0.390866,-0.500000,-0.250000,-0.500000,0.250000,-0.479746,0.390866,-0.420627,0.520320,-0.327430,0.627875,-0.207708,0.704816,-0.071157,0.744911,0.000000,0.744911,0.000000,0.750000,0.500000,0.750000,0.500000,-0.750000,0.500000,-0.750000,
$1*%
%AMFreePoly1*
4,1,19,0.000000,0.744911,0.071157,0.744911,0.207708,0.704816,0.327430,0.627875,0.420627,0.520320,0.479746,0.390866,0.500000,0.250000,0.500000,-0.250000,0.479746,-0.390866,0.420627,-0.520320,0.327430,-0.627875,0.207708,-0.704816,0.071157,-0.744911,0.000000,-0.744911,0.000000,-0.750000,-0.500000,-0.750000,-0.500000,0.750000,0.000000,0.750000,0.000000,0.744911,0.000000,0.744911,
$1*%
G04 Aperture macros list end*
G04 #@! TA.AperFunction,ComponentPad*
%ADD10R,1.700000X1.700000*%
G04 #@! TD*
G04 #@! TA.AperFunction,ComponentPad*
%ADD11O,1.700000X1.700000*%
G04 #@! TD*
G04 #@! TA.AperFunction,SMDPad,CuDef*
%ADD12RoundRect,0.237500X0.237500X-0.250000X0.237500X0.250000X-0.237500X0.250000X-0.237500X-0.250000X0*%
G04 #@! TD*
G04 #@! TA.AperFunction,SMDPad,CuDef*
%ADD13RoundRect,0.249999X1.450001X-0.537501X1.450001X0.537501X-1.450001X0.537501X-1.450001X-0.537501X0*%
G04 #@! TD*
G04 #@! TA.AperFunction,SMDPad,CuDef*
%ADD14RoundRect,0.237500X0.300000X0.237500X-0.300000X0.237500X-0.300000X-0.237500X0.300000X-0.237500X0*%
G04 #@! TD*
G04 #@! TA.AperFunction,SMDPad,CuDef*
%ADD15RoundRect,0.237500X-0.237500X0.250000X-0.237500X-0.250000X0.237500X-0.250000X0.237500X0.250000X0*%
G04 #@! TD*
G04 #@! TA.AperFunction,SMDPad,CuDef*
%ADD16RoundRect,0.237500X0.250000X0.237500X-0.250000X0.237500X-0.250000X-0.237500X0.250000X-0.237500X0*%
G04 #@! TD*
G04 #@! TA.AperFunction,SMDPad,CuDef*
%ADD17RoundRect,0.150000X0.150000X-0.825000X0.150000X0.825000X-0.150000X0.825000X-0.150000X-0.825000X0*%
G04 #@! TD*
G04 #@! TA.AperFunction,SMDPad,CuDef*
%ADD18RoundRect,0.237500X-0.250000X-0.237500X0.250000X-0.237500X0.250000X0.237500X-0.250000X0.237500X0*%
G04 #@! TD*
G04 #@! TA.AperFunction,SMDPad,CuDef*
%ADD19R,1.505000X0.802000*%
G04 #@! TD*
G04 #@! TA.AperFunction,SMDPad,CuDef*
%ADD20R,2.613000X3.502000*%
G04 #@! TD*
G04 #@! TA.AperFunction,SMDPad,CuDef*
%ADD21RoundRect,0.250000X-1.450000X0.400000X-1.450000X-0.400000X1.450000X-0.400000X1.450000X0.400000X0*%
G04 #@! TD*
G04 #@! TA.AperFunction,SMDPad,CuDef*
%ADD22C,2.000000*%
G04 #@! TD*
G04 #@! TA.AperFunction,SMDPad,CuDef*
%ADD23R,1.000000X3.100000*%
G04 #@! TD*
G04 #@! TA.AperFunction,SMDPad,CuDef*
%ADD24RoundRect,0.237500X-0.237500X0.300000X-0.237500X-0.300000X0.237500X-0.300000X0.237500X0.300000X0*%
G04 #@! TD*
G04 #@! TA.AperFunction,SMDPad,CuDef*
%ADD25RoundRect,0.249999X0.537501X1.450001X-0.537501X1.450001X-0.537501X-1.450001X0.537501X-1.450001X0*%
G04 #@! TD*
G04 #@! TA.AperFunction,SMDPad,CuDef*
%ADD26RoundRect,0.250000X-0.400000X-1.450000X0.400000X-1.450000X0.400000X1.450000X-0.400000X1.450000X0*%
G04 #@! TD*
G04 #@! TA.AperFunction,SMDPad,CuDef*
%ADD27R,0.700000X0.300000*%
G04 #@! TD*
G04 #@! TA.AperFunction,ComponentPad*
%ADD28O,1.400000X0.800000*%
G04 #@! TD*
G04 #@! TA.AperFunction,SMDPad,CuDef*
%ADD29R,1.500000X2.200000*%
G04 #@! TD*
G04 #@! TA.AperFunction,SMDPad,CuDef*
%ADD30R,5.400000X2.900000*%
G04 #@! TD*
G04 #@! TA.AperFunction,SMDPad,CuDef*
%ADD31R,0.900000X1.500000*%
G04 #@! TD*
G04 #@! TA.AperFunction,SMDPad,CuDef*
%ADD32R,4.000000X4.000000*%
G04 #@! TD*
G04 #@! TA.AperFunction,SMDPad,CuDef*
%ADD33R,1.100000X0.510000*%
G04 #@! TD*
G04 #@! TA.AperFunction,SMDPad,CuDef*
%ADD34RoundRect,0.249999X-1.450001X0.537501X-1.450001X-0.537501X1.450001X-0.537501X1.450001X0.537501X0*%
G04 #@! TD*
G04 #@! TA.AperFunction,SMDPad,CuDef*
%ADD35RoundRect,0.150000X-0.512500X-0.150000X0.512500X-0.150000X0.512500X0.150000X-0.512500X0.150000X0*%
G04 #@! TD*
G04 #@! TA.AperFunction,ComponentPad*
%ADD36O,3.500000X2.200000*%
G04 #@! TD*
G04 #@! TA.AperFunction,ComponentPad*
%ADD37R,2.500000X1.500000*%
G04 #@! TD*
G04 #@! TA.AperFunction,ComponentPad*
%ADD38O,2.500000X1.500000*%
G04 #@! TD*
G04 #@! TA.AperFunction,SMDPad,CuDef*
%ADD39R,1.400000X1.300000*%
G04 #@! TD*
G04 #@! TA.AperFunction,ComponentPad*
%ADD40O,3.000000X2.286000*%
G04 #@! TD*
G04 #@! TA.AperFunction,SMDPad,CuDef*
%ADD41FreePoly0,0.000000*%
G04 #@! TD*
G04 #@! TA.AperFunction,SMDPad,CuDef*
%ADD42FreePoly1,0.000000*%
G04 #@! TD*
G04 #@! TA.AperFunction,SMDPad,CuDef*
%ADD43RoundRect,0.250000X0.350000X0.450000X-0.350000X0.450000X-0.350000X-0.450000X0.350000X-0.450000X0*%
G04 #@! TD*
G04 #@! TA.AperFunction,SMDPad,CuDef*
%ADD44RoundRect,0.237500X-0.300000X-0.237500X0.300000X-0.237500X0.300000X0.237500X-0.300000X0.237500X0*%
G04 #@! TD*
G04 #@! TA.AperFunction,SMDPad,CuDef*
%ADD45RoundRect,0.250000X0.450000X-0.325000X0.450000X0.325000X-0.450000X0.325000X-0.450000X-0.325000X0*%
G04 #@! TD*
G04 #@! TA.AperFunction,SMDPad,CuDef*
%ADD46R,1.300000X1.400000*%
G04 #@! TD*
G04 #@! TA.AperFunction,SMDPad,CuDef*
%ADD47R,0.600000X0.450000*%
G04 #@! TD*
G04 #@! TA.AperFunction,SMDPad,CuDef*
%ADD48RoundRect,0.250000X-0.350000X-0.450000X0.350000X-0.450000X0.350000X0.450000X-0.350000X0.450000X0*%
G04 #@! TD*
G04 #@! TA.AperFunction,SMDPad,CuDef*
%ADD49RoundRect,0.250000X-0.325000X-0.450000X0.325000X-0.450000X0.325000X0.450000X-0.325000X0.450000X0*%
G04 #@! TD*
G04 #@! TA.AperFunction,SMDPad,CuDef*
%ADD50RoundRect,0.150000X0.587500X0.150000X-0.587500X0.150000X-0.587500X-0.150000X0.587500X-0.150000X0*%
G04 #@! TD*
G04 #@! TA.AperFunction,SMDPad,CuDef*
%ADD51RoundRect,0.250000X-0.650000X0.412500X-0.650000X-0.412500X0.650000X-0.412500X0.650000X0.412500X0*%
G04 #@! TD*
G04 #@! TA.AperFunction,SMDPad,CuDef*
%ADD52R,2.900000X5.400000*%
G04 #@! TD*
G04 #@! TA.AperFunction,SMDPad,CuDef*
%ADD53RoundRect,0.150000X0.150000X-0.587500X0.150000X0.587500X-0.150000X0.587500X-0.150000X-0.587500X0*%
G04 #@! TD*
G04 #@! TA.AperFunction,SMDPad,CuDef*
%ADD54RoundRect,0.250000X1.500000X-0.250000X1.500000X0.250000X-1.500000X0.250000X-1.500000X-0.250000X0*%
G04 #@! TD*
G04 #@! TA.AperFunction,SMDPad,CuDef*
%ADD55RoundRect,0.250001X1.449999X-0.499999X1.449999X0.499999X-1.449999X0.499999X-1.449999X-0.499999X0*%
G04 #@! TD*
G04 #@! TA.AperFunction,SMDPad,CuDef*
%ADD56RoundRect,0.250000X-1.450000X0.537500X-1.450000X-0.537500X1.450000X-0.537500X1.450000X0.537500X0*%
G04 #@! TD*
G04 #@! TA.AperFunction,SMDPad,CuDef*
%ADD57FreePoly0,180.000000*%
G04 #@! TD*
G04 #@! TA.AperFunction,SMDPad,CuDef*
%ADD58FreePoly1,180.000000*%
G04 #@! TD*
G04 #@! TA.AperFunction,SMDPad,CuDef*
%ADD59RoundRect,0.250000X-0.412500X-0.650000X0.412500X-0.650000X0.412500X0.650000X-0.412500X0.650000X0*%
G04 #@! TD*
G04 #@! TA.AperFunction,SMDPad,CuDef*
%ADD60R,1.560000X0.650000*%
G04 #@! TD*
G04 #@! TA.AperFunction,ViaPad*
%ADD61C,0.800000*%
G04 #@! TD*
G04 #@! TA.AperFunction,Conductor*
%ADD62C,0.250000*%
G04 #@! TD*
G04 #@! TA.AperFunction,Conductor*
%ADD63C,0.750000*%
G04 #@! TD*
G04 #@! TA.AperFunction,Conductor*
%ADD64C,0.500000*%
G04 #@! TD*
G04 #@! TA.AperFunction,Conductor*
%ADD65C,0.200000*%
G04 #@! TD*
G04 APERTURE END LIST*
G36*
X50330000Y-41546000D02*
G01*
X49830000Y-41546000D01*
X49830000Y-40946000D01*
X50330000Y-40946000D01*
X50330000Y-41546000D01*
G37*
G36*
X50320000Y-45676000D02*
G01*
X49820000Y-45676000D01*
X49820000Y-45276000D01*
X50320000Y-45276000D01*
X50320000Y-45676000D01*
G37*
G36*
X50320000Y-46476000D02*
G01*
X49820000Y-46476000D01*
X49820000Y-46076000D01*
X50320000Y-46076000D01*
X50320000Y-46476000D01*
G37*
D10*
X66259999Y-64405999D03*
D11*
X66259999Y-66945999D03*
X66259999Y-69485999D03*
D12*
X48027500Y-68563500D03*
X48027500Y-66738500D03*
D13*
X28080000Y-41136000D03*
X28080000Y-36861000D03*
D14*
X60150000Y-70331000D03*
X58425000Y-70331000D03*
D15*
X57577500Y-66708500D03*
X57577500Y-68533500D03*
D16*
X68072500Y-14786000D03*
X66247500Y-14786000D03*
D17*
X38010000Y-51081000D03*
X39280000Y-51081000D03*
X40550000Y-51081000D03*
X41820000Y-51081000D03*
X43090000Y-51081000D03*
X44360000Y-51081000D03*
X45630000Y-51081000D03*
X45630000Y-46131000D03*
X44360000Y-46131000D03*
X43090000Y-46131000D03*
X41820000Y-46131000D03*
X40550000Y-46131000D03*
X39280000Y-46131000D03*
X38010000Y-46131000D03*
D18*
X40055000Y-24386000D03*
X41880000Y-24386000D03*
D10*
X39859999Y-41405999D03*
X43519999Y-41405999D03*
D19*
X50429999Y-64015999D03*
X50429999Y-65285999D03*
X50429999Y-66555999D03*
X50429999Y-67825999D03*
X55424999Y-67825999D03*
X55424999Y-66555999D03*
X55424999Y-65285999D03*
X55424999Y-64015999D03*
D20*
X52927499Y-65920999D03*
D21*
X27940000Y-45426000D03*
X27940000Y-49876000D03*
D22*
X6160000Y-75413500D03*
X11240000Y-75541501D03*
D23*
X6699999Y-70973499D03*
X6699999Y-62073499D03*
X10699999Y-70973499D03*
X10699999Y-62073499D03*
D16*
X68132500Y-11566000D03*
X66307500Y-11566000D03*
X68072500Y-17816000D03*
X66247500Y-17816000D03*
D22*
X33140000Y-48946000D03*
X37320000Y-54386000D03*
X48300000Y-54086000D03*
D24*
X45927500Y-68558500D03*
X45927500Y-70283500D03*
D25*
X61385000Y-73211000D03*
X57110000Y-73211000D03*
D26*
X65085000Y-73866000D03*
X69535000Y-73866000D03*
D27*
X70539999Y-17785999D03*
X70539999Y-17285999D03*
X70539999Y-16785999D03*
X70539999Y-16285999D03*
X70539999Y-15785999D03*
X70539999Y-15285999D03*
X70539999Y-14785999D03*
X70539999Y-14285999D03*
X70539999Y-13785999D03*
X70539999Y-13285999D03*
X70539999Y-12785999D03*
X70539999Y-12285999D03*
X72239999Y-12535999D03*
X72239999Y-13035999D03*
X72239999Y-13535999D03*
X72239999Y-14035999D03*
X72239999Y-14535999D03*
X72239999Y-15035999D03*
X72239999Y-15535999D03*
X72239999Y-16035999D03*
X72239999Y-16535999D03*
X72239999Y-17035999D03*
X72239999Y-17535999D03*
X72239999Y-18035999D03*
D28*
X78399999Y-19525999D03*
X72449999Y-19165999D03*
X72449999Y-10905999D03*
X78399999Y-10545999D03*
D29*
X41237499Y-61570999D03*
X47637499Y-61570999D03*
D30*
X36399999Y-20875999D03*
X36399999Y-10975999D03*
D16*
X16170000Y-60706000D03*
X14345000Y-60706000D03*
X23592500Y-74736000D03*
X21767500Y-74736000D03*
D18*
X18585000Y-60756000D03*
X20410000Y-60756000D03*
D12*
X22720000Y-70413500D03*
X22720000Y-68588500D03*
X18600000Y-70333500D03*
X18600000Y-68508500D03*
D31*
X9979999Y-49625999D03*
X11479999Y-49625999D03*
X12979999Y-49625999D03*
X14479999Y-49625999D03*
X15979999Y-49625999D03*
X17479999Y-49625999D03*
X18979999Y-49625999D03*
X20479999Y-49625999D03*
X21979999Y-49625999D03*
X21979999Y-32125999D03*
X20479999Y-32125999D03*
X18979999Y-32125999D03*
X17479999Y-32125999D03*
X15979999Y-32125999D03*
X14479999Y-32125999D03*
X12979999Y-32125999D03*
X11479999Y-32125999D03*
X9979999Y-32125999D03*
D32*
X16589999Y-39775999D03*
D33*
X62349999Y-17595999D03*
X62349999Y-16595999D03*
X62349999Y-15595999D03*
X62349999Y-14595999D03*
X62349999Y-13595999D03*
X57249999Y-13595999D03*
X57249999Y-14595999D03*
X57249999Y-15595999D03*
X57249999Y-16595999D03*
X57249999Y-17595999D03*
D34*
X35500000Y-28031000D03*
X35500000Y-32306000D03*
D35*
X55670000Y-55006000D03*
X55670000Y-55956000D03*
X55670000Y-56906000D03*
X57945000Y-56906000D03*
X57945000Y-55956000D03*
X57945000Y-55006000D03*
D15*
X44370000Y-53431000D03*
X44370000Y-55256000D03*
D18*
X62967500Y-28476000D03*
X64792500Y-28476000D03*
D36*
X78849999Y-54665999D03*
X78849999Y-46465999D03*
D37*
X78849999Y-52565999D03*
D38*
X78849999Y-50565999D03*
X78849999Y-48565999D03*
D16*
X19387500Y-74716000D03*
X17562500Y-74716000D03*
D24*
X33230000Y-51881000D03*
X33230000Y-53606000D03*
D10*
X33239999Y-66395999D03*
D11*
X33239999Y-68935999D03*
X33239999Y-71475999D03*
D39*
X48479999Y-17045999D03*
X48479999Y-19945999D03*
X48499999Y-14445999D03*
X48499999Y-11545999D03*
D40*
X73069999Y-62755999D03*
X73042032Y-66251842D03*
X73042032Y-69803617D03*
X73042032Y-73159626D03*
D16*
X59422500Y-64996000D03*
X57597500Y-64996000D03*
X61180000Y-66741000D03*
X59355000Y-66741000D03*
D40*
X73138204Y-24347169D03*
X73110237Y-27843012D03*
D10*
X29589999Y-66395999D03*
D11*
X29589999Y-68935999D03*
X29589999Y-71475999D03*
D41*
X49430000Y-41246000D03*
D42*
X50730000Y-41246000D03*
D43*
X68390000Y-47886000D03*
X66390000Y-47886000D03*
D14*
X59212500Y-11516000D03*
X57487500Y-11516000D03*
D10*
X67619999Y-37630999D03*
D11*
X67619999Y-35090999D03*
D44*
X58827500Y-51836000D03*
X60552500Y-51836000D03*
D45*
X18600000Y-65796000D03*
X18600000Y-63746000D03*
D16*
X24325000Y-21256000D03*
X22500000Y-21256000D03*
D18*
X66510000Y-51666000D03*
X68335000Y-51666000D03*
D46*
X63689999Y-47875999D03*
X60789999Y-47875999D03*
D47*
X70739999Y-47905999D03*
X72839999Y-47905999D03*
D24*
X52580000Y-55233500D03*
X52580000Y-56958500D03*
D10*
X15199999Y-17065999D03*
D11*
X17739999Y-17065999D03*
X20279999Y-17065999D03*
X22819999Y-17065999D03*
X25359999Y-17065999D03*
X27899999Y-17065999D03*
D48*
X52010000Y-15306000D03*
X54010000Y-15306000D03*
X51820000Y-11666000D03*
X53820000Y-11666000D03*
D49*
X61757500Y-38756000D03*
X63807500Y-38756000D03*
D18*
X53975000Y-40696000D03*
X55800000Y-40696000D03*
D50*
X57050000Y-48376000D03*
X57050000Y-46476000D03*
X55175000Y-47426000D03*
D51*
X66600000Y-22853500D03*
X66600000Y-25978500D03*
D49*
X61757500Y-34996000D03*
X63807500Y-34996000D03*
D52*
X46669999Y-31835999D03*
X56569999Y-31835999D03*
D16*
X63882500Y-11566000D03*
X62057500Y-11566000D03*
D53*
X61260000Y-44986000D03*
X63160000Y-44986000D03*
X62210000Y-43111000D03*
D54*
X73340000Y-37256000D03*
X73340000Y-35256000D03*
D55*
X79090000Y-39606000D03*
X79090000Y-32906000D03*
D41*
X49420000Y-45876000D03*
D42*
X50720000Y-45876000D03*
D18*
X66480000Y-55566000D03*
X68305000Y-55566000D03*
D43*
X54000000Y-18746000D03*
X52000000Y-18746000D03*
D45*
X22720000Y-65888500D03*
X22720000Y-63838500D03*
D50*
X53880000Y-23386000D03*
X53880000Y-21486000D03*
X52005000Y-22436000D03*
D56*
X41577500Y-66903500D03*
X41577500Y-71178500D03*
D57*
X27070000Y-11946000D03*
D58*
X25770000Y-11946000D03*
D10*
X30499999Y-57015999D03*
D11*
X27959999Y-57015999D03*
X25419999Y-57015999D03*
X22879999Y-57015999D03*
X20339999Y-57015999D03*
X17799999Y-57015999D03*
X15259999Y-57015999D03*
X12719999Y-57015999D03*
X10179999Y-57015999D03*
D24*
X62980000Y-23556000D03*
X62980000Y-25281000D03*
D16*
X41565000Y-28916000D03*
X39740000Y-28916000D03*
X72700000Y-51676000D03*
X70875000Y-51676000D03*
D57*
X34990000Y-41436000D03*
D58*
X33690000Y-41436000D03*
D41*
X49540000Y-50816000D03*
D42*
X50840000Y-50816000D03*
D15*
X40820000Y-53553500D03*
X40820000Y-55378500D03*
D41*
X33660000Y-37896000D03*
D42*
X34960000Y-37896000D03*
D18*
X70920000Y-56046000D03*
X72745000Y-56046000D03*
D59*
X66207500Y-43536000D03*
X69332500Y-43536000D03*
D44*
X62877500Y-20546000D03*
X64602500Y-20546000D03*
D10*
X10089999Y-24625999D03*
D11*
X12629999Y-24625999D03*
X15169999Y-24625999D03*
X17709999Y-24625999D03*
X20249999Y-24625999D03*
X22789999Y-24625999D03*
X25329999Y-24625999D03*
X27869999Y-24625999D03*
X30409999Y-24625999D03*
D35*
X39162500Y-33116000D03*
X39162500Y-34066000D03*
X39162500Y-35016000D03*
X41437500Y-35016000D03*
X41437500Y-33116000D03*
D60*
X61119999Y-55135999D03*
X61119999Y-56085999D03*
X61119999Y-57035999D03*
X63819999Y-57035999D03*
X63819999Y-56085999D03*
X63819999Y-55135999D03*
D44*
X17645000Y-72496000D03*
X19370000Y-72496000D03*
D61*
X32930000Y-32456000D03*
X56950000Y-70256000D03*
X60920000Y-65196000D03*
X63900000Y-65226000D03*
X29850000Y-32436000D03*
X20460000Y-41496000D03*
X8580000Y-60216000D03*
X35490000Y-24726000D03*
X13920000Y-46806000D03*
X31400000Y-71536000D03*
X18580000Y-62126000D03*
X21850000Y-73116000D03*
X24370000Y-69016000D03*
X43070000Y-53216000D03*
X20440000Y-61976000D03*
X15580000Y-33646000D03*
X13070000Y-60496000D03*
X29620000Y-59436000D03*
X59610000Y-59656000D03*
X61130000Y-63966000D03*
X37180000Y-66506000D03*
X37000000Y-37876000D03*
X62010000Y-50896000D03*
X62280000Y-53506000D03*
X71320000Y-43486000D03*
X30410000Y-61226000D03*
X31590000Y-44966000D03*
X59130000Y-41466000D03*
X43150000Y-61716000D03*
X16390000Y-35266000D03*
X50230000Y-42976000D03*
X69310000Y-17716000D03*
X68240000Y-21276000D03*
X60500000Y-40236000D03*
X59840000Y-45296000D03*
X55720000Y-17916000D03*
X50390000Y-15316000D03*
X74070000Y-52876000D03*
X74070000Y-44766000D03*
X73510000Y-14546000D03*
X68820000Y-13476000D03*
X64580000Y-14576000D03*
X63050000Y-33646000D03*
X60170000Y-38706000D03*
X63810000Y-15616000D03*
X57580000Y-50696000D03*
X72550000Y-53076000D03*
X59450000Y-53666000D03*
X59450000Y-58136000D03*
X52360000Y-41236000D03*
X21660000Y-20146000D03*
X34240000Y-55746000D03*
X31710000Y-51876000D03*
X40480000Y-33976000D03*
X30750000Y-41146000D03*
X41620000Y-34056000D03*
X38650000Y-31736000D03*
X40190000Y-32466000D03*
D62*
X56870000Y-67826000D02*
X57577500Y-68533500D01*
X38635000Y-46776000D02*
X39280000Y-46131000D01*
D63*
X58425000Y-69381000D02*
X57577500Y-68533500D01*
D62*
X23592500Y-72598500D02*
X22170000Y-71176000D01*
X57110000Y-71646000D02*
X58425000Y-70331000D01*
X35485000Y-53606000D02*
X33230000Y-53606000D01*
X35350000Y-32456000D02*
X35500000Y-32306000D01*
X17480000Y-38886000D02*
X17480000Y-32126000D01*
X30500000Y-56336000D02*
X33230000Y-53606000D01*
X16590000Y-39776000D02*
X9980000Y-33166000D01*
X19370000Y-71103500D02*
X18600000Y-70333500D01*
D63*
X67933627Y-55937373D02*
X68305000Y-55566000D01*
D62*
X19387500Y-72513500D02*
X19370000Y-72496000D01*
X30500000Y-57016000D02*
X23110000Y-49626000D01*
X21980000Y-45166000D02*
X16590000Y-39776000D01*
X57110000Y-73211000D02*
X57110000Y-70416000D01*
X41820000Y-51081000D02*
X41820000Y-49047751D01*
X28112500Y-70413500D02*
X29590000Y-68936000D01*
X10090000Y-22176000D02*
X15200000Y-17066000D01*
X22170000Y-71176000D02*
X22170000Y-70963500D01*
X70875000Y-52996000D02*
X68305000Y-55566000D01*
X70875000Y-51676000D02*
X70875000Y-52996000D01*
X45630000Y-49047751D02*
X43090000Y-46507751D01*
X49275000Y-51081000D02*
X49540000Y-50816000D01*
X57110000Y-73211000D02*
X57110000Y-71646000D01*
X60860000Y-65196000D02*
X60920000Y-65196000D01*
X16590000Y-39776000D02*
X17480000Y-38886000D01*
X36350000Y-32306000D02*
X35500000Y-32306000D01*
X42465000Y-50436000D02*
X42465000Y-46756000D01*
X41577500Y-71178500D02*
X35482500Y-71178500D01*
X21980000Y-49626000D02*
X21980000Y-45166000D01*
D63*
X67933627Y-62732373D02*
X66260000Y-64406000D01*
D62*
X29590000Y-68936000D02*
X28415000Y-67761000D01*
X9952001Y-32116500D02*
X9952001Y-25303999D01*
X38010000Y-51081000D02*
X38635000Y-50456000D01*
X28080000Y-36861000D02*
X29850000Y-35091000D01*
X53470380Y-46476000D02*
X57050000Y-46476000D01*
X21980000Y-45166000D02*
X21980000Y-42961000D01*
X22030000Y-71103500D02*
X22720000Y-70413500D01*
X63900000Y-65226000D02*
X64720000Y-64406000D01*
X42465000Y-46756000D02*
X43090000Y-46131000D01*
X9980000Y-33166000D02*
X9980000Y-32126000D01*
X29850000Y-35091000D02*
X29850000Y-32436000D01*
X24325000Y-21256000D02*
X24325000Y-23091000D01*
X43090000Y-46507751D02*
X43090000Y-46131000D01*
X53023500Y-67826000D02*
X55425000Y-67826000D01*
D63*
X67933627Y-62732373D02*
X67933627Y-55937373D01*
D62*
X39280000Y-46507751D02*
X39280000Y-46131000D01*
X50566000Y-70283500D02*
X52927500Y-67922000D01*
X33240000Y-68936000D02*
X29590000Y-68936000D01*
X45927500Y-70283500D02*
X50566000Y-70283500D01*
X39015000Y-34076000D02*
X37270000Y-34076000D01*
X59422500Y-64996000D02*
X60660000Y-64996000D01*
X41820000Y-51081000D02*
X42465000Y-50436000D01*
X72840000Y-49711000D02*
X70875000Y-51676000D01*
X28415000Y-59101000D02*
X30500000Y-57016000D01*
X64720000Y-64406000D02*
X66260000Y-64406000D01*
X9952001Y-25303999D02*
X10150000Y-25106000D01*
X35482500Y-71178500D02*
X33240000Y-68936000D01*
X52927500Y-67922000D02*
X52927500Y-65921000D01*
X17452001Y-32116500D02*
X17452001Y-30503999D01*
X19370000Y-72496000D02*
X19370000Y-71103500D01*
X23592500Y-74736000D02*
X23592500Y-72598500D01*
X30500000Y-57016000D02*
X30500000Y-56336000D01*
X39740000Y-28916000D02*
X36350000Y-32306000D01*
X41577500Y-71178500D02*
X45032500Y-71178500D01*
X17452001Y-30503999D02*
X22850000Y-25106000D01*
D63*
X73267967Y-62732373D02*
X67933627Y-62732373D01*
D62*
X72840000Y-47906000D02*
X72840000Y-49711000D01*
X60660000Y-64996000D02*
X60860000Y-65196000D01*
X45630000Y-51081000D02*
X49275000Y-51081000D01*
X32930000Y-32456000D02*
X35350000Y-32456000D01*
X21980000Y-42961000D02*
X28080000Y-36861000D01*
X24325000Y-23091000D02*
X22790000Y-24626000D01*
X45630000Y-51081000D02*
X45630000Y-49047751D01*
X23110000Y-49626000D02*
X21980000Y-49626000D01*
X19370000Y-71103500D02*
X22030000Y-71103500D01*
X37270000Y-34076000D02*
X35500000Y-32306000D01*
X22170000Y-70963500D02*
X22720000Y-70413500D01*
X52927500Y-67922000D02*
X53023500Y-67826000D01*
X57110000Y-70416000D02*
X56950000Y-70256000D01*
D63*
X58425000Y-69381000D02*
X58425000Y-70331000D01*
D62*
X49540000Y-50816000D02*
X49540000Y-50406380D01*
X10090000Y-24626000D02*
X10090000Y-22176000D01*
X41820000Y-49047751D02*
X39280000Y-46507751D01*
X55425000Y-67826000D02*
X56870000Y-67826000D01*
X45032500Y-71178500D02*
X45927500Y-70283500D01*
X19387500Y-74716000D02*
X19387500Y-72513500D01*
X28415000Y-67761000D02*
X28415000Y-59101000D01*
X22720000Y-70413500D02*
X28112500Y-70413500D01*
X49540000Y-50406380D02*
X53470380Y-46476000D01*
X38010000Y-51081000D02*
X35485000Y-53606000D01*
X38635000Y-50456000D02*
X38635000Y-46776000D01*
X6700000Y-72875334D02*
X6700000Y-70973500D01*
X13274499Y-76866501D02*
X10691167Y-76866501D01*
X20460000Y-41556000D02*
X20580000Y-41436000D01*
X6160000Y-75413500D02*
X6160000Y-71513500D01*
X24290500Y-32116500D02*
X24259500Y-32116500D01*
X24240000Y-32136000D02*
X24220500Y-32116500D01*
X30470000Y-25106000D02*
X30470000Y-25996000D01*
X20520000Y-41496000D02*
X20460000Y-41496000D01*
X24259500Y-32116500D02*
X24240000Y-32136000D01*
X24240000Y-37776000D02*
X20520000Y-41496000D01*
X17562500Y-72578500D02*
X17645000Y-72496000D01*
X6160000Y-71513500D02*
X6700000Y-70973500D01*
X24220500Y-32116500D02*
X21952001Y-32116500D01*
X6700000Y-62073500D02*
X8447171Y-60326329D01*
X30470000Y-25996000D02*
X24320000Y-32146000D01*
X24320000Y-32146000D02*
X24290500Y-32116500D01*
X8447171Y-60326329D02*
X8449671Y-60326329D01*
X10691167Y-76866501D02*
X6700000Y-72875334D01*
X24240000Y-32136000D02*
X24240000Y-37776000D01*
X17645000Y-72496000D02*
X13274499Y-76866501D01*
X8449671Y-60326329D02*
X8600000Y-60176000D01*
X20460000Y-41496000D02*
X20460000Y-41556000D01*
X6700000Y-70973500D02*
X6700000Y-62073500D01*
X17562500Y-74716000D02*
X17562500Y-72578500D01*
X18535000Y-60706000D02*
X18585000Y-60756000D01*
X16170000Y-60706000D02*
X16170000Y-60466000D01*
X36400000Y-10976000D02*
X33375000Y-14001000D01*
X11480000Y-46856000D02*
X11470000Y-46846000D01*
D64*
X10120000Y-52746000D02*
X10150000Y-52716000D01*
D62*
X35470000Y-24706000D02*
X35490000Y-24726000D01*
D64*
X12690000Y-57237000D02*
X10150000Y-57237000D01*
D62*
X33375000Y-14001000D02*
X33375000Y-22651000D01*
X18585000Y-62121000D02*
X18580000Y-62126000D01*
X11490000Y-46826000D02*
X13930000Y-46826000D01*
X39735000Y-24706000D02*
X40055000Y-24386000D01*
X33375000Y-22651000D02*
X35430000Y-24706000D01*
X16170000Y-60706000D02*
X18535000Y-60706000D01*
X16170000Y-60466000D02*
X12720000Y-57016000D01*
X35430000Y-24706000D02*
X35430000Y-27961000D01*
X35510000Y-24706000D02*
X39735000Y-24706000D01*
D64*
X10150000Y-57237000D02*
X10150000Y-52776000D01*
D62*
X18585000Y-60756000D02*
X18585000Y-62121000D01*
D64*
X10150000Y-52776000D02*
X10120000Y-52746000D01*
D62*
X29590000Y-71476000D02*
X33240000Y-71476000D01*
X35490000Y-24726000D02*
X35510000Y-24706000D01*
X35430000Y-27961000D02*
X35500000Y-28031000D01*
X11480000Y-49626000D02*
X11480000Y-46856000D01*
X9980000Y-49626000D02*
X11480000Y-49626000D01*
X11470000Y-46846000D02*
X11490000Y-46826000D01*
D64*
X10150000Y-52716000D02*
X10150000Y-49789499D01*
D62*
X35430000Y-24706000D02*
X35470000Y-24706000D01*
X19446396Y-53949499D02*
X20310000Y-53949499D01*
X20310000Y-57237000D02*
X20310000Y-53949499D01*
X22720000Y-59396000D02*
X20340000Y-57016000D01*
X15980000Y-49626000D02*
X15980000Y-50696000D01*
X16212897Y-50716000D02*
X19446396Y-53949499D01*
X16000000Y-50716000D02*
X16212897Y-50716000D01*
X15980000Y-50696000D02*
X16000000Y-50716000D01*
X22720000Y-63838500D02*
X22720000Y-59396000D01*
X15230000Y-57237000D02*
X15230000Y-51869499D01*
X21222500Y-60068500D02*
X19345000Y-58191000D01*
X12980000Y-51896000D02*
X12980000Y-49626000D01*
X18600000Y-63746000D02*
X20870000Y-63746000D01*
X21222500Y-63393500D02*
X21222500Y-60068500D01*
X19345000Y-58191000D02*
X16435000Y-58191000D01*
X15230000Y-51869499D02*
X13006501Y-51869499D01*
X20870000Y-63746000D02*
X21222500Y-63393500D01*
X16435000Y-58191000D02*
X15260000Y-57016000D01*
X13006501Y-51869499D02*
X12980000Y-51896000D01*
X61050000Y-58861000D02*
X53095000Y-58861000D01*
X51780000Y-56033500D02*
X52580000Y-55233500D01*
X66510000Y-54201000D02*
X66510000Y-51666000D01*
X51780000Y-57546000D02*
X51780000Y-56033500D01*
X63820000Y-56086000D02*
X64625000Y-56086000D01*
X63820000Y-56086000D02*
X62790000Y-56086000D01*
X64625000Y-56086000D02*
X66510000Y-54201000D01*
X62225000Y-57686000D02*
X61050000Y-58861000D01*
X62790000Y-56086000D02*
X62225000Y-56651000D01*
X62225000Y-56651000D02*
X62225000Y-57686000D01*
X53095000Y-58861000D02*
X51780000Y-57546000D01*
X21146501Y-53286000D02*
X22850000Y-54989499D01*
X17480000Y-50886000D02*
X19850000Y-53256000D01*
X22880000Y-57016000D02*
X24340000Y-58476000D01*
X24340000Y-58476000D02*
X24370000Y-69016000D01*
X19850000Y-53286000D02*
X21146501Y-53286000D01*
X19850000Y-53256000D02*
X19850000Y-53286000D01*
X21850000Y-74653500D02*
X21767500Y-74736000D01*
X17480000Y-49626000D02*
X17480000Y-50886000D01*
X22850000Y-54989499D02*
X22850000Y-57237000D01*
X21850000Y-73116000D02*
X21850000Y-74653500D01*
X25390000Y-56029499D02*
X25083499Y-56029499D01*
X43070000Y-51101000D02*
X43090000Y-51081000D01*
X18980000Y-49926000D02*
X18980000Y-49626000D01*
X20410000Y-60756000D02*
X20410000Y-61946000D01*
X20410000Y-61946000D02*
X20440000Y-61976000D01*
X43070000Y-53216000D02*
X43070000Y-51101000D01*
X25390000Y-57237000D02*
X25390000Y-56029499D01*
X25083499Y-56029499D02*
X18980000Y-49926000D01*
X37320000Y-54386000D02*
X39827500Y-54386000D01*
X71771009Y-68311000D02*
X65959695Y-68311000D01*
X73240000Y-69779991D02*
X71771009Y-68311000D01*
X65959695Y-68311000D02*
X63120000Y-65471305D01*
X63120000Y-64240795D02*
X59225205Y-60346000D01*
X63120000Y-65471305D02*
X63120000Y-64240795D01*
X59225205Y-60346000D02*
X52509391Y-60346000D01*
X48524695Y-56361304D02*
X41802804Y-56361304D01*
X41802804Y-56361304D02*
X40820000Y-55378500D01*
X39827500Y-54386000D02*
X40820000Y-55378500D01*
X52509391Y-60346000D02*
X48524695Y-56361304D01*
X46670000Y-18856000D02*
X48480000Y-17046000D01*
X46670000Y-31836000D02*
X46670000Y-18856000D01*
X48500000Y-14446000D02*
X48500000Y-17026000D01*
X48500000Y-17026000D02*
X48480000Y-17046000D01*
X14480000Y-32126000D02*
X14480000Y-32426000D01*
X15580000Y-33646000D02*
X15660000Y-33646000D01*
X14520000Y-28356000D02*
X17770000Y-25106000D01*
X10700000Y-62073500D02*
X12977500Y-62073500D01*
X14452001Y-32116500D02*
X14452001Y-28423999D01*
X10700000Y-70973500D02*
X10700000Y-62073500D01*
X10700000Y-70973500D02*
X10700000Y-75001501D01*
X14480000Y-32426000D02*
X15660000Y-33606000D01*
X13070000Y-60496000D02*
X14135000Y-60496000D01*
X14460000Y-28416000D02*
X14490000Y-28416000D01*
X14452001Y-28423999D02*
X14460000Y-28416000D01*
X12977500Y-62073500D02*
X14345000Y-60706000D01*
X14135000Y-60496000D02*
X14345000Y-60706000D01*
X14490000Y-28416000D02*
X14490000Y-28386000D01*
X15660000Y-33606000D02*
X15580000Y-33646000D01*
X14490000Y-28386000D02*
X14520000Y-28356000D01*
X10700000Y-75001501D02*
X11240000Y-75541501D01*
X33030000Y-59216000D02*
X32840000Y-59406000D01*
X20452001Y-49759001D02*
X20452001Y-49591500D01*
X39280000Y-51081000D02*
X39280000Y-51457751D01*
X39280000Y-51457751D02*
X37676751Y-53061000D01*
X34830000Y-54056000D02*
X33030000Y-55856000D01*
X32840000Y-59406000D02*
X29620000Y-59436000D01*
X36771167Y-53061000D02*
X35776167Y-54056000D01*
X37676751Y-53061000D02*
X36771167Y-53061000D01*
X35776167Y-54056000D02*
X34830000Y-54056000D01*
X27930000Y-57237000D02*
X20452001Y-49759001D01*
X33030000Y-55856000D02*
X33030000Y-59216000D01*
X52485787Y-59686000D02*
X59500000Y-59686000D01*
X59610000Y-59656000D02*
X59560000Y-59686000D01*
X72522216Y-66946000D02*
X73240000Y-66228216D01*
X48300000Y-55500213D02*
X52485787Y-59686000D01*
X66260000Y-66946000D02*
X72522216Y-66946000D01*
X44370000Y-55256000D02*
X47130000Y-55256000D01*
X47130000Y-55256000D02*
X48300000Y-54086000D01*
X59500000Y-59686000D02*
X59610000Y-59656000D01*
X48300000Y-54086000D02*
X48300000Y-55500213D01*
X59560000Y-59686000D02*
X59530000Y-59686000D01*
X18952001Y-31441500D02*
X25287501Y-25106000D01*
X18952001Y-32116500D02*
X18952001Y-31441500D01*
X25330000Y-24626000D02*
X25330000Y-17096000D01*
X25330000Y-17096000D02*
X25360000Y-17066000D01*
X27870000Y-24626000D02*
X26535000Y-23291000D01*
X25826249Y-27209751D02*
X27930000Y-25106000D01*
X20480000Y-30956000D02*
X24226249Y-27209751D01*
X26535000Y-16579299D02*
X25846701Y-15891000D01*
X26535000Y-23291000D02*
X26535000Y-16579299D01*
X20480000Y-32126000D02*
X20480000Y-30956000D01*
X25846701Y-15891000D02*
X23995000Y-15891000D01*
X23995000Y-15891000D02*
X22820000Y-17066000D01*
X24226249Y-27209751D02*
X25826249Y-27209751D01*
D63*
X55425000Y-64016000D02*
X55495000Y-63946000D01*
X60150000Y-70331000D02*
X60150000Y-67771000D01*
X61198859Y-63946000D02*
X61970000Y-64717141D01*
X61110000Y-63946000D02*
X61130000Y-63966000D01*
X29590000Y-66396000D02*
X33240000Y-66396000D01*
X55495000Y-63946000D02*
X61110000Y-63946000D01*
X65085000Y-73866000D02*
X62040000Y-73866000D01*
X61130000Y-63966000D02*
X61150000Y-63946000D01*
X62040000Y-73866000D02*
X61385000Y-73211000D01*
X61970000Y-64717141D02*
X61970000Y-65951000D01*
X61385000Y-71566000D02*
X60150000Y-70331000D01*
X61385000Y-73211000D02*
X61385000Y-71566000D01*
X60150000Y-67771000D02*
X61180000Y-66741000D01*
X61970000Y-65951000D02*
X61180000Y-66741000D01*
X37180000Y-66506000D02*
X33350000Y-66506000D01*
X33350000Y-66506000D02*
X33240000Y-66396000D01*
X61150000Y-63946000D02*
X61198859Y-63946000D01*
D62*
X19105000Y-18151000D02*
X12630000Y-24626000D01*
X11452001Y-32116500D02*
X11452001Y-26343999D01*
X19105000Y-16579299D02*
X19105000Y-18151000D01*
X33690000Y-41436000D02*
X32035000Y-43091000D01*
X27411727Y-10871000D02*
X24813299Y-10871000D01*
X24813299Y-10871000D02*
X19105000Y-16579299D01*
X32035000Y-15494273D02*
X27411727Y-10871000D01*
X32035000Y-43091000D02*
X32035000Y-15494273D01*
X11452001Y-26343999D02*
X12690000Y-25106000D01*
X34960000Y-37896000D02*
X36980000Y-37896000D01*
X15952001Y-29463999D02*
X20310000Y-25106000D01*
X36980000Y-37896000D02*
X37000000Y-37876000D01*
X15952001Y-32116500D02*
X15952001Y-29463999D01*
X62040000Y-50866000D02*
X67535000Y-50866000D01*
X62010000Y-50896000D02*
X62040000Y-50866000D01*
X61980000Y-50866000D02*
X62010000Y-50896000D01*
D63*
X73340000Y-37256000D02*
X67995000Y-37256000D01*
D62*
X59790000Y-47170353D02*
X59790000Y-48836000D01*
X58020647Y-45401000D02*
X59790000Y-47170353D01*
X50720000Y-45876000D02*
X51195000Y-45401000D01*
X61820000Y-50866000D02*
X61980000Y-50866000D01*
X51195000Y-45401000D02*
X58020647Y-45401000D01*
D63*
X67995000Y-37256000D02*
X67620000Y-37631000D01*
D62*
X59790000Y-48836000D02*
X61820000Y-50866000D01*
X67535000Y-50866000D02*
X68335000Y-51666000D01*
D63*
X74256726Y-35256000D02*
X76010000Y-37009274D01*
X76010000Y-37009274D02*
X76010000Y-38826000D01*
X68464513Y-27843013D02*
X66600000Y-25978500D01*
D62*
X57487500Y-11516000D02*
X53970000Y-11516000D01*
D65*
X67082500Y-12341000D02*
X66307500Y-11566000D01*
D63*
X63820000Y-55103500D02*
X62280000Y-53563500D01*
X71350000Y-43486000D02*
X71320000Y-43486000D01*
D62*
X52795000Y-10641000D02*
X53820000Y-11666000D01*
D65*
X71990000Y-12286000D02*
X70540000Y-12286000D01*
D63*
X68257500Y-19826000D02*
X66247500Y-17816000D01*
X75213205Y-23635551D02*
X71403654Y-19826000D01*
X66600000Y-25978500D02*
X66686670Y-26065170D01*
X76010000Y-38826000D02*
X71350000Y-43486000D01*
X66686670Y-26065170D02*
X74206824Y-26065170D01*
X71403654Y-19826000D02*
X68257500Y-19826000D01*
D65*
X71640000Y-18036000D02*
X72240000Y-18036000D01*
D63*
X62222500Y-53506000D02*
X60552500Y-51836000D01*
D65*
X70540000Y-17786000D02*
X69735000Y-18591000D01*
X62055000Y-16596000D02*
X57487500Y-12028500D01*
D62*
X66247500Y-14786000D02*
X66247500Y-13513500D01*
D65*
X57487500Y-12028500D02*
X57487500Y-11516000D01*
D63*
X63677500Y-25978500D02*
X62980000Y-25281000D01*
D65*
X67022500Y-18591000D02*
X66247500Y-17816000D01*
D62*
X49405000Y-10641000D02*
X52795000Y-10641000D01*
D63*
X74206824Y-26065170D02*
X75213205Y-25058789D01*
D62*
X66247500Y-13513500D02*
X67420000Y-12341000D01*
D65*
X70540000Y-12286000D02*
X68660140Y-12286000D01*
D63*
X73340000Y-35256000D02*
X74256726Y-35256000D01*
X66600000Y-25978500D02*
X63677500Y-25978500D01*
X62280000Y-53563500D02*
X62280000Y-53506000D01*
D65*
X62350000Y-16596000D02*
X62055000Y-16596000D01*
D63*
X63820000Y-55136000D02*
X63820000Y-55103500D01*
X71320000Y-43516000D02*
X71300000Y-43536000D01*
D65*
X67420000Y-12341000D02*
X67082500Y-12341000D01*
X66247500Y-17816000D02*
X66247500Y-14786000D01*
D63*
X73110238Y-27843013D02*
X68464513Y-27843013D01*
X67785000Y-35256000D02*
X67620000Y-35091000D01*
D65*
X69735000Y-18591000D02*
X67022500Y-18591000D01*
D63*
X67620000Y-35091000D02*
X67620000Y-28687526D01*
D62*
X53970000Y-11516000D02*
X53820000Y-11666000D01*
D65*
X65027500Y-16596000D02*
X62350000Y-16596000D01*
D62*
X48500000Y-11546000D02*
X49405000Y-10641000D01*
D63*
X67620000Y-28687526D02*
X68464513Y-27843013D01*
X62280000Y-53506000D02*
X62222500Y-53506000D01*
D65*
X72240000Y-12536000D02*
X71990000Y-12286000D01*
X68660140Y-12286000D02*
X68605140Y-12341000D01*
D63*
X71320000Y-43486000D02*
X71320000Y-43516000D01*
D65*
X71390000Y-17786000D02*
X71640000Y-18036000D01*
D63*
X73340000Y-35256000D02*
X67785000Y-35256000D01*
D65*
X68605140Y-12341000D02*
X67420000Y-12341000D01*
X70540000Y-17786000D02*
X71390000Y-17786000D01*
X66247500Y-17816000D02*
X65027500Y-16596000D01*
D63*
X75213205Y-25058789D02*
X75213205Y-23635551D01*
X71300000Y-43536000D02*
X69332500Y-43536000D01*
D62*
X44300000Y-68986000D02*
X39960000Y-68986000D01*
X38700000Y-67726000D02*
X38700000Y-67000695D01*
X14480000Y-51186000D02*
X16046501Y-51186000D01*
X39960000Y-68986000D02*
X38700000Y-67726000D01*
X17770000Y-57237000D02*
X17770000Y-52909499D01*
X44270000Y-68956000D02*
X44300000Y-68986000D01*
X38700000Y-67000695D02*
X32905305Y-61206000D01*
X47520000Y-67246000D02*
X44270000Y-67246000D01*
X44270000Y-67246000D02*
X44270000Y-68956000D01*
X16046501Y-51186000D02*
X17770000Y-52909499D01*
X14480000Y-49626000D02*
X14480000Y-51186000D01*
X30430000Y-61206000D02*
X30410000Y-61226000D01*
X32905305Y-61206000D02*
X30430000Y-61206000D01*
X48027500Y-66738500D02*
X47520000Y-67246000D01*
X70740000Y-47906000D02*
X68410000Y-47906000D01*
X49448500Y-65926000D02*
X42555000Y-65926000D01*
X59130000Y-41466000D02*
X59130000Y-41446000D01*
X41577500Y-66903500D02*
X41237500Y-66563500D01*
X31585000Y-46231000D02*
X27940000Y-49876000D01*
X27070000Y-11946000D02*
X31585000Y-16461000D01*
X31585000Y-44961000D02*
X31590000Y-44966000D01*
X43150000Y-61716000D02*
X41382500Y-61716000D01*
X68390000Y-47886000D02*
X67365000Y-48911000D01*
X31590000Y-44966000D02*
X31585000Y-44971000D01*
X42555000Y-65926000D02*
X41577500Y-66903500D01*
X59150000Y-41466000D02*
X59130000Y-41466000D01*
X41237500Y-66563500D02*
X41237500Y-61571000D01*
X62725000Y-48911000D02*
X61885000Y-48071000D01*
X50078500Y-66556000D02*
X49448500Y-65926000D01*
X41382500Y-61716000D02*
X41237500Y-61571000D01*
X31585000Y-16461000D02*
X31585000Y-44961000D01*
X58380000Y-40696000D02*
X55800000Y-40696000D01*
X61885000Y-48071000D02*
X61885000Y-44201000D01*
X31585000Y-44971000D02*
X31585000Y-46231000D01*
X61885000Y-44201000D02*
X59150000Y-41466000D01*
X68410000Y-47906000D02*
X68390000Y-47886000D01*
X59130000Y-41446000D02*
X58380000Y-40696000D01*
X50430000Y-66556000D02*
X50078500Y-66556000D01*
X67365000Y-48911000D02*
X62725000Y-48911000D01*
X48022500Y-68558500D02*
X48027500Y-68563500D01*
X48027500Y-68563500D02*
X48765000Y-67826000D01*
X48765000Y-67826000D02*
X50430000Y-67826000D01*
D63*
X45927500Y-68558500D02*
X48022500Y-68558500D01*
D62*
X12980000Y-32426000D02*
X15800000Y-35246000D01*
X16390000Y-35266000D02*
X16360000Y-35246000D01*
X16320000Y-35246000D02*
X16390000Y-35266000D01*
X49430000Y-41246000D02*
X49430000Y-42176000D01*
X12980000Y-32126000D02*
X12980000Y-32426000D01*
X16360000Y-35246000D02*
X16340000Y-35246000D01*
X12952001Y-27383999D02*
X15230000Y-25106000D01*
X12952001Y-32116500D02*
X12952001Y-27383999D01*
X15800000Y-35246000D02*
X16320000Y-35246000D01*
X49430000Y-42176000D02*
X50230000Y-42976000D01*
X55635000Y-17916000D02*
X54925000Y-18626000D01*
X60500000Y-40236000D02*
X60500000Y-40306000D01*
X56955000Y-16596000D02*
X55720000Y-17831000D01*
X71130000Y-16286000D02*
X70540000Y-16286000D01*
D65*
X71640000Y-14036000D02*
X72240000Y-14036000D01*
D62*
X63330000Y-50416000D02*
X68440000Y-50416000D01*
X58927500Y-16596000D02*
X57250000Y-16596000D01*
X52000000Y-15316000D02*
X52010000Y-15306000D01*
X60500000Y-40306000D02*
X60470000Y-40276000D01*
X62180000Y-24356000D02*
X62980000Y-23556000D01*
X72240000Y-16536000D02*
X71380000Y-16536000D01*
X60950000Y-45296000D02*
X61260000Y-44986000D01*
D63*
X68220000Y-21276000D02*
X68240000Y-21276000D01*
X63682500Y-22853500D02*
X62980000Y-23556000D01*
D62*
X68440000Y-50416000D02*
X69147500Y-51123500D01*
X55720000Y-17831000D02*
X55720000Y-17916000D01*
X62180000Y-27688500D02*
X62180000Y-24356000D01*
D65*
X70540000Y-13786000D02*
X71390000Y-13786000D01*
D62*
X71545000Y-15871000D02*
X71545000Y-13941000D01*
X59445000Y-39251000D02*
X60430000Y-40236000D01*
X71130000Y-16286000D02*
X71545000Y-15871000D01*
X59445000Y-31998500D02*
X59445000Y-39251000D01*
X70540000Y-16286000D02*
X70040000Y-16286000D01*
X62967500Y-28476000D02*
X59445000Y-31998500D01*
X62877500Y-20546000D02*
X62877500Y-22048500D01*
X71380000Y-16536000D02*
X71130000Y-16286000D01*
X57250000Y-16596000D02*
X56955000Y-16596000D01*
D65*
X71545000Y-13941000D02*
X71640000Y-14036000D01*
X71390000Y-13786000D02*
X71545000Y-13941000D01*
D63*
X73138205Y-24347170D02*
X68093670Y-24347170D01*
X68093670Y-24347170D02*
X66600000Y-22853500D01*
D62*
X55720000Y-17916000D02*
X55635000Y-17916000D01*
D63*
X66600000Y-22853500D02*
X66642500Y-22853500D01*
X68240000Y-21276000D02*
X68240000Y-21256000D01*
D62*
X62967500Y-28476000D02*
X62180000Y-27688500D01*
X69310000Y-17016000D02*
X69310000Y-17716000D01*
X70040000Y-16286000D02*
X69310000Y-17016000D01*
D63*
X66600000Y-22853500D02*
X63682500Y-22853500D01*
D62*
X62877500Y-20546000D02*
X58927500Y-16596000D01*
X59840000Y-45296000D02*
X60950000Y-45296000D01*
X54925000Y-18626000D02*
X54925000Y-20441000D01*
X60430000Y-40236000D02*
X60500000Y-40236000D01*
X50390000Y-15316000D02*
X52000000Y-15316000D01*
D63*
X68240000Y-21256000D02*
X68220000Y-21276000D01*
D62*
X61260000Y-44986000D02*
X60790000Y-45456000D01*
X60790000Y-45456000D02*
X60790000Y-47876000D01*
X62877500Y-22048500D02*
X63682500Y-22853500D01*
D63*
X66642500Y-22853500D02*
X68220000Y-21276000D01*
D62*
X60790000Y-47876000D02*
X63330000Y-50416000D01*
X69147500Y-52898500D02*
X66480000Y-55566000D01*
X69147500Y-51123500D02*
X69147500Y-52898500D01*
X54925000Y-20441000D02*
X53880000Y-21486000D01*
X59262500Y-11566000D02*
X59212500Y-11516000D01*
X62057500Y-11566000D02*
X59262500Y-11566000D01*
X40820000Y-53553500D02*
X40820000Y-51351000D01*
X40820000Y-51351000D02*
X40550000Y-51081000D01*
X44370000Y-51091000D02*
X44360000Y-51081000D01*
X44370000Y-53431000D02*
X44370000Y-51091000D01*
X72745000Y-56046000D02*
X78245000Y-50546000D01*
X78245000Y-50546000D02*
X78980000Y-50546000D01*
X62350000Y-18293500D02*
X62350000Y-17596000D01*
X64602500Y-20546000D02*
X62350000Y-18293500D01*
X58827500Y-46844249D02*
X57834251Y-45851000D01*
X47455000Y-18971000D02*
X47680000Y-18746000D01*
X57250000Y-14596000D02*
X56536827Y-14596000D01*
X48570000Y-45026000D02*
X49420000Y-45876000D01*
X47455000Y-23971000D02*
X47455000Y-18971000D01*
X70920000Y-56046000D02*
X74060000Y-52906000D01*
X49420000Y-46876000D02*
X49420000Y-45876000D01*
X62210000Y-43111000D02*
X58995000Y-39896000D01*
X52175000Y-45851000D02*
X51075000Y-46951000D01*
X58995000Y-39896000D02*
X49140000Y-39896000D01*
X48570000Y-40466000D02*
X48570000Y-45026000D01*
X54795000Y-31311000D02*
X47455000Y-23971000D01*
X56536827Y-14596000D02*
X52386827Y-18746000D01*
X51075000Y-46951000D02*
X49495000Y-46951000D01*
X66207500Y-43536000D02*
X62635000Y-43536000D01*
X57834251Y-45851000D02*
X52175000Y-45851000D01*
X62210000Y-43111000D02*
X54795000Y-35696000D01*
X54795000Y-35696000D02*
X54795000Y-31311000D01*
X58827500Y-51836000D02*
X58827500Y-46844249D01*
X47680000Y-18746000D02*
X52000000Y-18746000D01*
X74065000Y-44761000D02*
X74070000Y-44766000D01*
X74070000Y-52876000D02*
X74070000Y-52906000D01*
X62635000Y-43536000D02*
X62210000Y-43111000D01*
X67432500Y-44761000D02*
X66207500Y-43536000D01*
X49140000Y-39896000D02*
X48570000Y-40466000D01*
X67432500Y-44761000D02*
X74065000Y-44761000D01*
X74060000Y-52906000D02*
X74070000Y-52876000D01*
X52386827Y-18746000D02*
X52000000Y-18746000D01*
X49495000Y-46951000D02*
X49420000Y-46876000D01*
X55670000Y-56906000D02*
X52632500Y-56906000D01*
X52632500Y-56906000D02*
X52580000Y-56958500D01*
X68072500Y-17603500D02*
X69865000Y-15811000D01*
X70515000Y-15811000D02*
X70540000Y-15786000D01*
X68072500Y-17816000D02*
X68072500Y-17603500D01*
X69865000Y-15811000D02*
X70515000Y-15811000D01*
X68820000Y-14038500D02*
X68072500Y-14786000D01*
X73390000Y-14546000D02*
X73510000Y-14546000D01*
X73510000Y-14546000D02*
X73510000Y-14666000D01*
X72240000Y-14536000D02*
X73380000Y-14536000D01*
X73380000Y-14536000D02*
X73390000Y-14546000D01*
X68820000Y-13476000D02*
X68820000Y-14038500D01*
X73510000Y-14666000D02*
X73390000Y-14546000D01*
X72450000Y-10906000D02*
X72130000Y-10586000D01*
X78400000Y-19526000D02*
X72810000Y-19526000D01*
X78400000Y-10546000D02*
X72810000Y-10546000D01*
X78400000Y-10546000D02*
X78400000Y-19526000D01*
X69112500Y-10586000D02*
X68132500Y-11566000D01*
X72130000Y-10586000D02*
X69112500Y-10586000D01*
X72810000Y-19526000D02*
X72450000Y-19166000D01*
X72810000Y-10546000D02*
X72450000Y-10906000D01*
X33318273Y-36821000D02*
X32760000Y-37379273D01*
X41040000Y-41949604D02*
X41040000Y-40376000D01*
X44360000Y-46131000D02*
X44360000Y-45269604D01*
X32760000Y-37379273D02*
X32760000Y-38796380D01*
X41040000Y-40376000D02*
X37485000Y-36821000D01*
X32760000Y-38796380D02*
X34990000Y-41026380D01*
X44360000Y-45269604D02*
X41040000Y-41949604D01*
X34990000Y-41026380D02*
X34990000Y-41436000D01*
X37485000Y-36821000D02*
X33318273Y-36821000D01*
X33660000Y-38689273D02*
X33660000Y-37896000D01*
X40550000Y-45579273D02*
X33660000Y-38689273D01*
X40550000Y-46131000D02*
X40550000Y-45579273D01*
X22720000Y-68588500D02*
X22720000Y-65888500D01*
X18600000Y-68508500D02*
X18600000Y-65796000D01*
X64500000Y-14576000D02*
X64580000Y-14576000D01*
X64520000Y-14596000D02*
X64500000Y-14576000D01*
X63050000Y-33703500D02*
X61757500Y-34996000D01*
X63050000Y-33646000D02*
X63050000Y-33703500D01*
X64580000Y-14656000D02*
X64530000Y-14606000D01*
X62350000Y-14596000D02*
X64520000Y-14596000D01*
X64580000Y-14576000D02*
X64580000Y-14656000D01*
X58735000Y-54381000D02*
X60440000Y-56086000D01*
X55670000Y-55006000D02*
X55030000Y-55006000D01*
X55030000Y-55006000D02*
X50840000Y-50816000D01*
X56295000Y-54381000D02*
X58735000Y-54381000D01*
X51785000Y-50816000D02*
X55175000Y-47426000D01*
X50840000Y-50816000D02*
X51785000Y-50816000D01*
X55670000Y-55006000D02*
X56295000Y-54381000D01*
X60440000Y-56086000D02*
X61120000Y-56086000D01*
X63807500Y-34996000D02*
X63807500Y-29461000D01*
X63807500Y-38756000D02*
X63807500Y-34996000D01*
X63807500Y-29461000D02*
X64792500Y-28476000D01*
X60170000Y-38706000D02*
X61707500Y-38706000D01*
X61707500Y-38706000D02*
X61757500Y-38756000D01*
X62350000Y-15596000D02*
X63810000Y-15596000D01*
X63810000Y-15596000D02*
X63810000Y-15616000D01*
X48480000Y-19946000D02*
X49515000Y-19946000D01*
X49515000Y-19946000D02*
X52005000Y-22436000D01*
X63690000Y-45516000D02*
X63160000Y-44986000D01*
X66380000Y-47876000D02*
X63690000Y-47876000D01*
X63690000Y-47876000D02*
X63690000Y-45516000D01*
X66390000Y-47886000D02*
X66380000Y-47876000D01*
X20280000Y-17066000D02*
X25400000Y-11946000D01*
X25400000Y-11946000D02*
X25770000Y-11946000D01*
X57945000Y-55956000D02*
X55670000Y-55956000D01*
X47985000Y-61571000D02*
X47637500Y-61571000D01*
X50430000Y-64016000D02*
X50430000Y-65286000D01*
X50430000Y-64016000D02*
X47985000Y-61571000D01*
X39600000Y-35666000D02*
X43140000Y-35666000D01*
X38950000Y-35016000D02*
X39600000Y-35666000D01*
X43140000Y-35666000D02*
X43140000Y-24363005D01*
X39652995Y-20876000D02*
X36400000Y-20876000D01*
X43140000Y-24363005D02*
X39652995Y-20876000D01*
X53067500Y-22788500D02*
X53067500Y-22082751D01*
X56795000Y-15596000D02*
X54000000Y-18391000D01*
X52817500Y-23038500D02*
X53067500Y-22788500D01*
X56570000Y-31836000D02*
X52817500Y-28083500D01*
X52817500Y-28083500D02*
X52817500Y-23038500D01*
X52817500Y-21832751D02*
X52817500Y-19928500D01*
X52817500Y-19928500D02*
X54000000Y-18746000D01*
X53067500Y-22082751D02*
X52817500Y-21832751D01*
X57250000Y-15596000D02*
X56795000Y-15596000D01*
X54000000Y-18391000D02*
X54000000Y-18746000D01*
X41820000Y-43366000D02*
X39860000Y-41406000D01*
X41820000Y-46131000D02*
X41820000Y-43366000D01*
X45630000Y-43516000D02*
X43520000Y-41406000D01*
X45630000Y-46131000D02*
X45630000Y-43516000D01*
X57250000Y-17596000D02*
X57250000Y-20016000D01*
X57250000Y-20016000D02*
X53880000Y-23386000D01*
X72550000Y-51826000D02*
X72700000Y-51676000D01*
X72700000Y-51676000D02*
X75830000Y-48546000D01*
X75830000Y-48546000D02*
X78980000Y-48546000D01*
X72550000Y-53076000D02*
X72550000Y-51826000D01*
X57050000Y-50166000D02*
X57580000Y-50696000D01*
X57050000Y-48376000D02*
X57050000Y-50166000D01*
X59450000Y-53666000D02*
X59650000Y-53666000D01*
X59470000Y-58136000D02*
X59460000Y-58126000D01*
X59650000Y-53666000D02*
X61120000Y-55136000D01*
X58240000Y-56906000D02*
X59450000Y-58116000D01*
X59450000Y-58136000D02*
X59470000Y-58136000D01*
X59450000Y-58116000D02*
X59450000Y-58136000D01*
X57945000Y-56906000D02*
X58240000Y-56906000D01*
X60359251Y-57036000D02*
X58329251Y-55006000D01*
X61120000Y-57036000D02*
X60359251Y-57036000D01*
X58329251Y-55006000D02*
X57945000Y-55006000D01*
X57597500Y-64996000D02*
X55715000Y-64996000D01*
X55715000Y-64996000D02*
X55425000Y-65286000D01*
X57577500Y-66708500D02*
X59322500Y-66708500D01*
X57425000Y-66556000D02*
X57577500Y-66708500D01*
X55425000Y-66556000D02*
X57425000Y-66556000D01*
X59322500Y-66708500D02*
X59355000Y-66741000D01*
X41290000Y-33126000D02*
X41570000Y-32846000D01*
X41565000Y-24701000D02*
X41565000Y-28916000D01*
X41880000Y-24386000D02*
X41565000Y-24701000D01*
X41565000Y-28916000D02*
X41650000Y-29001000D01*
X41650000Y-29001000D02*
X41650000Y-33116000D01*
X62350000Y-13596000D02*
X62350000Y-13098500D01*
X62350000Y-13098500D02*
X63882500Y-11566000D01*
X52370000Y-41246000D02*
X53425000Y-41246000D01*
X52360000Y-41236000D02*
X52370000Y-41246000D01*
X50730000Y-41246000D02*
X52350000Y-41246000D01*
X22067208Y-20146000D02*
X22067208Y-20823208D01*
X22067208Y-20823208D02*
X22500000Y-21256000D01*
X53425000Y-41246000D02*
X53975000Y-40696000D01*
X21660000Y-20146000D02*
X22067208Y-20146000D01*
X52350000Y-41246000D02*
X52360000Y-41236000D01*
X55720000Y-13596000D02*
X57250000Y-13596000D01*
X54010000Y-15306000D02*
X54010000Y-13856000D01*
X54010000Y-15306000D02*
X55720000Y-13596000D01*
X54010000Y-13856000D02*
X51820000Y-11666000D01*
X59514404Y-61271596D02*
X62670000Y-64427191D01*
D63*
X69535000Y-72761000D02*
X66260000Y-69486000D01*
D62*
X33230000Y-51881000D02*
X33140000Y-51791000D01*
D63*
X70265000Y-73136000D02*
X69535000Y-73866000D01*
D62*
X35195000Y-48946000D02*
X38010000Y-46131000D01*
X66260000Y-69486000D02*
X62670000Y-65896000D01*
X34240000Y-55816000D02*
X34240000Y-55746000D01*
X34310000Y-55746000D02*
X34250000Y-55806000D01*
X31710000Y-51876000D02*
X33225000Y-51876000D01*
X33225000Y-51876000D02*
X33230000Y-51881000D01*
X33140000Y-51791000D02*
X33140000Y-48946000D01*
X59514404Y-61271596D02*
X52798591Y-61271596D01*
X48536497Y-57009502D02*
X35503502Y-57009502D01*
X33140000Y-48946000D02*
X35195000Y-48946000D01*
D63*
X73240000Y-73136000D02*
X70265000Y-73136000D01*
D62*
X52798591Y-61271596D02*
X48536497Y-57009502D01*
D63*
X69535000Y-73866000D02*
X69535000Y-72761000D01*
D62*
X62670000Y-65896000D02*
X62670000Y-64427191D01*
X34240000Y-55746000D02*
X34310000Y-55746000D01*
X35503502Y-57009502D02*
X34240000Y-55746000D01*
X30750000Y-41146000D02*
X28090000Y-41146000D01*
X40245000Y-33606000D02*
X39755000Y-33116000D01*
X38560000Y-31736000D02*
X38630000Y-31806000D01*
X27940000Y-45426000D02*
X28080000Y-45286000D01*
X41610000Y-34066000D02*
X40570000Y-34066000D01*
X28080000Y-45286000D02*
X28080000Y-41136000D01*
X40480000Y-34301000D02*
X41195000Y-35016000D01*
X28090000Y-41146000D02*
X28080000Y-41136000D01*
X39015000Y-32191000D02*
X38650000Y-31826000D01*
X40480000Y-33976000D02*
X40480000Y-34301000D01*
X41620000Y-34056000D02*
X41610000Y-34066000D01*
X40570000Y-34066000D02*
X40480000Y-33976000D01*
X40245000Y-33741000D02*
X40245000Y-33606000D01*
X41195000Y-35016000D02*
X41650000Y-35016000D01*
X38650000Y-31736000D02*
X38560000Y-31736000D01*
X40190000Y-32466000D02*
X40190000Y-33686000D01*
X38650000Y-31826000D02*
X38650000Y-31736000D01*
X40190000Y-33686000D02*
X40480000Y-33976000D01*
X40480000Y-33976000D02*
X40245000Y-33741000D01*
X39015000Y-33126000D02*
X39015000Y-32191000D01*
G04 #@! TA.AperFunction,Conductor*
G36*
X60420680Y-16626002D02*
G01*
X60447673Y-16649360D01*
X61468414Y-17824175D01*
X61471513Y-17827883D01*
X62701294Y-19358068D01*
X62728377Y-19423696D01*
X62715679Y-19493548D01*
X62667232Y-19545446D01*
X62603081Y-19563000D01*
X62531030Y-19563000D01*
X62524639Y-19563325D01*
X62432557Y-19572733D01*
X62419199Y-19575592D01*
X62267253Y-19625942D01*
X62254051Y-19632098D01*
X62118215Y-19715883D01*
X62106774Y-19724930D01*
X61993930Y-19837774D01*
X61984883Y-19849215D01*
X61901098Y-19985051D01*
X61894942Y-19998253D01*
X61844592Y-20150199D01*
X61841733Y-20163557D01*
X61832325Y-20255639D01*
X61832000Y-20262030D01*
X61832000Y-20273885D01*
X61836475Y-20289124D01*
X61837865Y-20290329D01*
X61845548Y-20292000D01*
X63005500Y-20292000D01*
X63073621Y-20312002D01*
X63120114Y-20365658D01*
X63131500Y-20418000D01*
X63131500Y-21510885D01*
X63135975Y-21526124D01*
X63137365Y-21527329D01*
X63145048Y-21529000D01*
X63200123Y-21529000D01*
X63268244Y-21549002D01*
X63314737Y-21602658D01*
X63326022Y-21649944D01*
X63355372Y-22380773D01*
X63338119Y-22449641D01*
X63286372Y-22498250D01*
X63264972Y-22506725D01*
X63236876Y-22514975D01*
X63235671Y-22516365D01*
X63234000Y-22524048D01*
X63234000Y-23684000D01*
X63213998Y-23752121D01*
X63160342Y-23798614D01*
X63108000Y-23810000D01*
X62015115Y-23810000D01*
X61999876Y-23814475D01*
X61998671Y-23815865D01*
X61997000Y-23823548D01*
X61997000Y-23902471D01*
X61997325Y-23908860D01*
X62002343Y-23957973D01*
X61989368Y-24027774D01*
X61940715Y-24079479D01*
X61876207Y-24096777D01*
X59528394Y-24082085D01*
X55486167Y-24056790D01*
X55418174Y-24036362D01*
X55372018Y-23982416D01*
X55360961Y-23929832D01*
X55361170Y-23902471D01*
X55365745Y-23302000D01*
X55365883Y-23283885D01*
X61997000Y-23283885D01*
X62001475Y-23299124D01*
X62002865Y-23300329D01*
X62010548Y-23302000D01*
X62707885Y-23302000D01*
X62723124Y-23297525D01*
X62724329Y-23296135D01*
X62726000Y-23288452D01*
X62726000Y-22528615D01*
X62721525Y-22513376D01*
X62720135Y-22512171D01*
X62712452Y-22510500D01*
X62696030Y-22510500D01*
X62689639Y-22510825D01*
X62597557Y-22520233D01*
X62584199Y-22523092D01*
X62432253Y-22573442D01*
X62419051Y-22579598D01*
X62283215Y-22663383D01*
X62271774Y-22672430D01*
X62158930Y-22785274D01*
X62149883Y-22796715D01*
X62066098Y-22932551D01*
X62059942Y-22945753D01*
X62009592Y-23097699D01*
X62006733Y-23111057D01*
X61997325Y-23203139D01*
X61997000Y-23209530D01*
X61997000Y-23283885D01*
X55365883Y-23283885D01*
X55372580Y-22404980D01*
X55393100Y-22337014D01*
X55409481Y-22316845D01*
X56896355Y-20829971D01*
X61832000Y-20829971D01*
X61832325Y-20836361D01*
X61841733Y-20928443D01*
X61844592Y-20941801D01*
X61894942Y-21093747D01*
X61901098Y-21106949D01*
X61984883Y-21242785D01*
X61993930Y-21254226D01*
X62106774Y-21367070D01*
X62118215Y-21376117D01*
X62254051Y-21459902D01*
X62267253Y-21466058D01*
X62419199Y-21516408D01*
X62432557Y-21519267D01*
X62524639Y-21528675D01*
X62531029Y-21529000D01*
X62605385Y-21529000D01*
X62620624Y-21524525D01*
X62621829Y-21523135D01*
X62623500Y-21515452D01*
X62623500Y-20818115D01*
X62619025Y-20802876D01*
X62617635Y-20801671D01*
X62609952Y-20800000D01*
X61850115Y-20800000D01*
X61834876Y-20804475D01*
X61833671Y-20805865D01*
X61832000Y-20813548D01*
X61832000Y-20829971D01*
X56896355Y-20829971D01*
X57466215Y-20260111D01*
X57474319Y-20252684D01*
X57494749Y-20235541D01*
X57503194Y-20228455D01*
X57508707Y-20218906D01*
X57522039Y-20195815D01*
X57527945Y-20186544D01*
X57543230Y-20164715D01*
X57549554Y-20155684D01*
X57552408Y-20145034D01*
X57553885Y-20141866D01*
X57555077Y-20138590D01*
X57560588Y-20129045D01*
X57567130Y-20091942D01*
X57569509Y-20081210D01*
X57579264Y-20044807D01*
X57575979Y-20007257D01*
X57575500Y-19996276D01*
X57575500Y-18177500D01*
X57595502Y-18109379D01*
X57649158Y-18062886D01*
X57701500Y-18051500D01*
X57819748Y-18051500D01*
X57825816Y-18050293D01*
X57866061Y-18042288D01*
X57866062Y-18042288D01*
X57878231Y-18039867D01*
X57944552Y-17995552D01*
X57988867Y-17929231D01*
X58000500Y-17870748D01*
X58000500Y-17398549D01*
X58020502Y-17330428D01*
X58050991Y-17297681D01*
X58155693Y-17219302D01*
X58168302Y-17206693D01*
X58245046Y-17104176D01*
X58253595Y-17088520D01*
X58298741Y-16967478D01*
X58302338Y-16952257D01*
X58307640Y-16902938D01*
X58308000Y-16896223D01*
X58308000Y-16732000D01*
X58328002Y-16663879D01*
X58381658Y-16617386D01*
X58434000Y-16606000D01*
X60352559Y-16606000D01*
X60420680Y-16626002D01*
G37*
G04 #@! TD.AperFunction*
G04 #@! TA.AperFunction,Conductor*
G36*
X56171338Y-16965864D02*
G01*
X56219438Y-17018084D01*
X56224523Y-17029850D01*
X56246405Y-17088520D01*
X56254954Y-17104176D01*
X56331698Y-17206693D01*
X56344307Y-17219302D01*
X56449009Y-17297681D01*
X56491556Y-17354516D01*
X56499500Y-17398549D01*
X56499500Y-17870748D01*
X56511133Y-17929231D01*
X56555448Y-17995552D01*
X56621769Y-18039867D01*
X56633938Y-18042288D01*
X56633939Y-18042288D01*
X56674184Y-18050293D01*
X56680252Y-18051500D01*
X56798500Y-18051500D01*
X56866621Y-18071502D01*
X56913114Y-18125158D01*
X56924500Y-18177500D01*
X56924500Y-19828984D01*
X56904498Y-19897105D01*
X56887595Y-19918079D01*
X55597475Y-21208199D01*
X55535163Y-21242225D01*
X55464348Y-21237160D01*
X55407512Y-21194613D01*
X55382701Y-21128093D01*
X55382384Y-21118144D01*
X55392999Y-19724930D01*
X55400000Y-18806000D01*
X55400000Y-17503516D01*
X55420002Y-17435395D01*
X55436905Y-17414421D01*
X55536337Y-17314989D01*
X55554124Y-17300203D01*
X56035159Y-16970001D01*
X56102641Y-16947940D01*
X56171338Y-16965864D01*
G37*
G04 #@! TD.AperFunction*
G04 #@! TA.AperFunction,Conductor*
G36*
X53123621Y-65687002D02*
G01*
X53170114Y-65740658D01*
X53181500Y-65793000D01*
X53181500Y-68161885D01*
X53185975Y-68177124D01*
X53187365Y-68178329D01*
X53195048Y-68180000D01*
X54041043Y-68180000D01*
X54109164Y-68200002D01*
X54155657Y-68253658D01*
X54166321Y-68292530D01*
X54170162Y-68328257D01*
X54173759Y-68343478D01*
X54218905Y-68464520D01*
X54227454Y-68480176D01*
X54304198Y-68582693D01*
X54316807Y-68595302D01*
X54419324Y-68672046D01*
X54434980Y-68680595D01*
X54556022Y-68725741D01*
X54571243Y-68729338D01*
X54620562Y-68734640D01*
X54627277Y-68735000D01*
X55152885Y-68735000D01*
X55168124Y-68730525D01*
X55169329Y-68729135D01*
X55171000Y-68721452D01*
X55171000Y-67785926D01*
X55679000Y-67792736D01*
X55679000Y-68716885D01*
X55683475Y-68732124D01*
X55684865Y-68733329D01*
X55692548Y-68735000D01*
X56222723Y-68735000D01*
X56229438Y-68734640D01*
X56278757Y-68729338D01*
X56293978Y-68725741D01*
X56423462Y-68677446D01*
X56424696Y-68680754D01*
X56477519Y-68669276D01*
X56544034Y-68694103D01*
X56586566Y-68750949D01*
X56594500Y-68794953D01*
X56594500Y-68829971D01*
X56594825Y-68836361D01*
X56604233Y-68928443D01*
X56607092Y-68941801D01*
X56657442Y-69093747D01*
X56663598Y-69106949D01*
X56747383Y-69242785D01*
X56756430Y-69254226D01*
X56869274Y-69367070D01*
X56880715Y-69376117D01*
X57016551Y-69459902D01*
X57029753Y-69466058D01*
X57181699Y-69516408D01*
X57195057Y-69519267D01*
X57287139Y-69528675D01*
X57293529Y-69529000D01*
X57371522Y-69529000D01*
X57439643Y-69549002D01*
X57486136Y-69602658D01*
X57496240Y-69672932D01*
X57478762Y-69721148D01*
X57448599Y-69770049D01*
X57442442Y-69783253D01*
X57392092Y-69935199D01*
X57389233Y-69948557D01*
X57379825Y-70040639D01*
X57379500Y-70047030D01*
X57379500Y-70058885D01*
X57383975Y-70074124D01*
X57385365Y-70075329D01*
X57393048Y-70077000D01*
X57768515Y-70077000D01*
X57764241Y-70585000D01*
X57397615Y-70585000D01*
X57382376Y-70589475D01*
X57381171Y-70590865D01*
X57379500Y-70598548D01*
X57379500Y-70614971D01*
X57379825Y-70621361D01*
X57389233Y-70713443D01*
X57392094Y-70726810D01*
X57433595Y-70852051D01*
X57436036Y-70923006D01*
X57399728Y-70984016D01*
X57375041Y-70998052D01*
X57365671Y-71008865D01*
X57364000Y-71016548D01*
X57364000Y-73339000D01*
X57343998Y-73407121D01*
X57290342Y-73453614D01*
X57238000Y-73465000D01*
X55832616Y-73465000D01*
X55817377Y-73469475D01*
X55816172Y-73470865D01*
X55814501Y-73478548D01*
X55814501Y-74708301D01*
X55814827Y-74714696D01*
X55825106Y-74815325D01*
X55822414Y-74815600D01*
X55818026Y-74874229D01*
X55775292Y-74930924D01*
X55708690Y-74955514D01*
X55700429Y-74955806D01*
X41145085Y-74990312D01*
X39663059Y-74993825D01*
X39594891Y-74973984D01*
X39548271Y-74920439D01*
X39536764Y-74868864D01*
X39525234Y-73470865D01*
X39520846Y-72938885D01*
X55814500Y-72938885D01*
X55818975Y-72954124D01*
X55820365Y-72955329D01*
X55828048Y-72957000D01*
X56837885Y-72957000D01*
X56853124Y-72952525D01*
X56854329Y-72951135D01*
X56856000Y-72943452D01*
X56856000Y-71021116D01*
X56851525Y-71005877D01*
X56850135Y-71004672D01*
X56842452Y-71003001D01*
X56525199Y-71003001D01*
X56518804Y-71003327D01*
X56425018Y-71012907D01*
X56411647Y-71015769D01*
X56256934Y-71067036D01*
X56243732Y-71073192D01*
X56105409Y-71158511D01*
X56093968Y-71167558D01*
X55979058Y-71282468D01*
X55970011Y-71293909D01*
X55884692Y-71432232D01*
X55878536Y-71445434D01*
X55827267Y-71600153D01*
X55824408Y-71613511D01*
X55814825Y-71707306D01*
X55814500Y-71713697D01*
X55814500Y-72938885D01*
X39520846Y-72938885D01*
X39516870Y-72456747D01*
X39536310Y-72388465D01*
X39589580Y-72341531D01*
X39659768Y-72330848D01*
X39709013Y-72348468D01*
X39798733Y-72403808D01*
X39811935Y-72409964D01*
X39966654Y-72461233D01*
X39980012Y-72464092D01*
X40073807Y-72473675D01*
X40080197Y-72474000D01*
X41305385Y-72474000D01*
X41320624Y-72469525D01*
X41321829Y-72468135D01*
X41323500Y-72460452D01*
X41323500Y-72455885D01*
X41831500Y-72455885D01*
X41835975Y-72471124D01*
X41837365Y-72472329D01*
X41845048Y-72474000D01*
X43074803Y-72474000D01*
X43081193Y-72473675D01*
X43174988Y-72464092D01*
X43188346Y-72461233D01*
X43343065Y-72409964D01*
X43356267Y-72403808D01*
X43494592Y-72318488D01*
X43506032Y-72309442D01*
X43620942Y-72194532D01*
X43629988Y-72183092D01*
X43715308Y-72044767D01*
X43721464Y-72031565D01*
X43772733Y-71876846D01*
X43775592Y-71863488D01*
X43785175Y-71769693D01*
X43785500Y-71763303D01*
X43785500Y-71450615D01*
X43781025Y-71435376D01*
X43779635Y-71434171D01*
X43771952Y-71432500D01*
X41849615Y-71432500D01*
X41834376Y-71436975D01*
X41833171Y-71438365D01*
X41831500Y-71446048D01*
X41831500Y-72455885D01*
X41323500Y-72455885D01*
X41323500Y-71050500D01*
X41343502Y-70982379D01*
X41397158Y-70935886D01*
X41449500Y-70924500D01*
X43767385Y-70924500D01*
X43782624Y-70920025D01*
X43783829Y-70918635D01*
X43785500Y-70910952D01*
X43785500Y-70629971D01*
X44944500Y-70629971D01*
X44944825Y-70636361D01*
X44954233Y-70728443D01*
X44957092Y-70741801D01*
X45007442Y-70893747D01*
X45013598Y-70906949D01*
X45097383Y-71042785D01*
X45106430Y-71054226D01*
X45219274Y-71167070D01*
X45230715Y-71176117D01*
X45366551Y-71259902D01*
X45379753Y-71266058D01*
X45531699Y-71316408D01*
X45545057Y-71319267D01*
X45637139Y-71328675D01*
X45643529Y-71329000D01*
X45655385Y-71329000D01*
X45670624Y-71324525D01*
X45671829Y-71323135D01*
X45673500Y-71315452D01*
X45673500Y-71310885D01*
X46181500Y-71310885D01*
X46185975Y-71326124D01*
X46187365Y-71327329D01*
X46195048Y-71329000D01*
X46211471Y-71329000D01*
X46217861Y-71328675D01*
X46309943Y-71319267D01*
X46323301Y-71316408D01*
X46475247Y-71266058D01*
X46488449Y-71259902D01*
X46624285Y-71176117D01*
X46635726Y-71167070D01*
X46748570Y-71054226D01*
X46757617Y-71042785D01*
X46841402Y-70906949D01*
X46847558Y-70893747D01*
X46897908Y-70741801D01*
X46900767Y-70728443D01*
X46910175Y-70636361D01*
X46910500Y-70629971D01*
X46910500Y-70555615D01*
X46906025Y-70540376D01*
X46904635Y-70539171D01*
X46896952Y-70537500D01*
X46199615Y-70537500D01*
X46184376Y-70541975D01*
X46183171Y-70543365D01*
X46181500Y-70551048D01*
X46181500Y-71310885D01*
X45673500Y-71310885D01*
X45673500Y-70555615D01*
X45669025Y-70540376D01*
X45667635Y-70539171D01*
X45659952Y-70537500D01*
X44962615Y-70537500D01*
X44947376Y-70541975D01*
X44946171Y-70543365D01*
X44944500Y-70551048D01*
X44944500Y-70629971D01*
X43785500Y-70629971D01*
X43785500Y-70593698D01*
X43785175Y-70587307D01*
X43775592Y-70493512D01*
X43772733Y-70480154D01*
X43719158Y-70318475D01*
X43720457Y-70318045D01*
X43710974Y-70255609D01*
X43739955Y-70190797D01*
X43799375Y-70151941D01*
X43835901Y-70146552D01*
X44886383Y-70147141D01*
X44886386Y-70147140D01*
X46964027Y-70148304D01*
X51759383Y-70150990D01*
X51759384Y-70150990D01*
X51777500Y-70151000D01*
X51777578Y-70128683D01*
X51783897Y-68305563D01*
X51804135Y-68237512D01*
X51857951Y-68191206D01*
X51909896Y-68180000D01*
X52655385Y-68180000D01*
X52670624Y-68175525D01*
X52671829Y-68174135D01*
X52673500Y-68166452D01*
X52673500Y-65793000D01*
X52693502Y-65724879D01*
X52747158Y-65678386D01*
X52799500Y-65667000D01*
X53055500Y-65667000D01*
X53123621Y-65687002D01*
G37*
G04 #@! TD.AperFunction*
G04 #@! TA.AperFunction,Conductor*
G36*
X37832648Y-30305265D02*
G01*
X37900651Y-30325660D01*
X37946834Y-30379583D01*
X37957903Y-30433338D01*
X37939257Y-31565377D01*
X37918136Y-31633159D01*
X37863722Y-31678762D01*
X37793291Y-31687707D01*
X37729204Y-31657155D01*
X37693669Y-31602934D01*
X37643966Y-31452937D01*
X37637808Y-31439732D01*
X37552489Y-31301409D01*
X37543442Y-31289968D01*
X37428532Y-31175058D01*
X37417091Y-31166011D01*
X37278768Y-31080692D01*
X37265566Y-31074536D01*
X37110847Y-31023267D01*
X37097489Y-31020408D01*
X37003694Y-31010825D01*
X36997303Y-31010500D01*
X35772115Y-31010500D01*
X35756876Y-31014975D01*
X35755671Y-31016365D01*
X35754000Y-31024048D01*
X35754000Y-33583384D01*
X35758475Y-33598623D01*
X35759865Y-33599828D01*
X35767548Y-33601499D01*
X36997301Y-33601499D01*
X37003696Y-33601173D01*
X37097482Y-33591593D01*
X37110853Y-33588731D01*
X37265566Y-33537464D01*
X37278768Y-33531308D01*
X37417091Y-33445989D01*
X37428532Y-33436942D01*
X37543442Y-33322032D01*
X37552489Y-33310591D01*
X37637808Y-33172268D01*
X37643965Y-33159063D01*
X37667924Y-33086760D01*
X37708338Y-33028388D01*
X37773894Y-33001132D01*
X37843779Y-33013645D01*
X37895806Y-33061954D01*
X37913512Y-33128467D01*
X37906877Y-33531308D01*
X37906145Y-33575772D01*
X37919562Y-33576045D01*
X37925374Y-33577422D01*
X37987049Y-33612588D01*
X38019921Y-33675517D01*
X38017325Y-33735181D01*
X38000061Y-33794604D01*
X38000101Y-33808706D01*
X38007370Y-33812000D01*
X39290500Y-33812000D01*
X39358621Y-33832002D01*
X39387155Y-33864932D01*
X39382658Y-34274113D01*
X39342842Y-34308614D01*
X39290500Y-34320000D01*
X38013122Y-34320000D01*
X37999591Y-34323973D01*
X37998456Y-34331870D01*
X38016695Y-34394647D01*
X38016493Y-34465643D01*
X37977939Y-34525260D01*
X37925110Y-34549205D01*
X37925349Y-34549945D01*
X37918833Y-34552050D01*
X37913275Y-34554569D01*
X37910251Y-34554822D01*
X37908109Y-34555514D01*
X37890000Y-34556000D01*
X37889804Y-34568175D01*
X37872023Y-35670568D01*
X37850925Y-35738357D01*
X37796526Y-35783979D01*
X37744560Y-35794527D01*
X32884521Y-35737462D01*
X32816639Y-35716662D01*
X32770780Y-35662464D01*
X32760000Y-35611471D01*
X32760000Y-32890801D01*
X33292001Y-32890801D01*
X33292327Y-32897196D01*
X33301907Y-32990982D01*
X33304769Y-33004353D01*
X33356036Y-33159066D01*
X33362192Y-33172268D01*
X33447511Y-33310591D01*
X33456558Y-33322032D01*
X33571468Y-33436942D01*
X33582909Y-33445989D01*
X33721232Y-33531308D01*
X33734434Y-33537464D01*
X33889153Y-33588733D01*
X33902511Y-33591592D01*
X33996306Y-33601175D01*
X34002696Y-33601500D01*
X35227885Y-33601500D01*
X35243124Y-33597025D01*
X35244329Y-33595635D01*
X35246000Y-33587952D01*
X35246000Y-32578115D01*
X35241525Y-32562876D01*
X35240135Y-32561671D01*
X35232452Y-32560000D01*
X33310116Y-32560000D01*
X33294877Y-32564475D01*
X33293672Y-32565865D01*
X33292001Y-32573548D01*
X33292001Y-32890801D01*
X32760000Y-32890801D01*
X32760000Y-32033885D01*
X33292000Y-32033885D01*
X33296475Y-32049124D01*
X33297865Y-32050329D01*
X33305548Y-32052000D01*
X35227885Y-32052000D01*
X35243124Y-32047525D01*
X35244329Y-32046135D01*
X35246000Y-32038452D01*
X35246000Y-31028616D01*
X35241525Y-31013377D01*
X35240135Y-31012172D01*
X35232452Y-31010501D01*
X34002699Y-31010501D01*
X33996304Y-31010827D01*
X33902518Y-31020407D01*
X33889147Y-31023269D01*
X33734434Y-31074536D01*
X33721232Y-31080692D01*
X33582909Y-31166011D01*
X33571468Y-31175058D01*
X33456558Y-31289968D01*
X33447511Y-31301409D01*
X33362192Y-31439732D01*
X33356036Y-31452934D01*
X33304767Y-31607653D01*
X33301908Y-31621011D01*
X33292325Y-31714806D01*
X33292000Y-31721197D01*
X33292000Y-32033885D01*
X32760000Y-32033885D01*
X32760000Y-30402729D01*
X32780002Y-30334608D01*
X32833658Y-30288115D01*
X32886726Y-30276731D01*
X37832648Y-30305265D01*
G37*
G04 #@! TD.AperFunction*
G04 #@! TA.AperFunction,Conductor*
G36*
X50657321Y-67628009D02*
G01*
X50672614Y-67645658D01*
X50684000Y-67698000D01*
X50684000Y-68716885D01*
X50688475Y-68732124D01*
X50689865Y-68733329D01*
X50697548Y-68735000D01*
X50914405Y-68735000D01*
X50982526Y-68755002D01*
X51029019Y-68808658D01*
X51039123Y-68878932D01*
X51009629Y-68943512D01*
X51003500Y-68950095D01*
X50765827Y-69187768D01*
X50703515Y-69221794D01*
X50677529Y-69224670D01*
X49086064Y-69234743D01*
X49017819Y-69215173D01*
X48970987Y-69161813D01*
X48960439Y-69091604D01*
X48965662Y-69069113D01*
X48997908Y-68971801D01*
X49000767Y-68958443D01*
X49010175Y-68866361D01*
X49010500Y-68859971D01*
X49010500Y-68835615D01*
X49006025Y-68820376D01*
X49004635Y-68819171D01*
X48996952Y-68817500D01*
X47899500Y-68817500D01*
X47831379Y-68797498D01*
X47784886Y-68743842D01*
X47773500Y-68691500D01*
X47773500Y-68435500D01*
X47793502Y-68367379D01*
X47847158Y-68320886D01*
X47899500Y-68309500D01*
X48992383Y-68309500D01*
X49036381Y-68296581D01*
X49107378Y-68296581D01*
X49167104Y-68334964D01*
X49189936Y-68373444D01*
X49223906Y-68464522D01*
X49232454Y-68480176D01*
X49309198Y-68582693D01*
X49321807Y-68595302D01*
X49424324Y-68672046D01*
X49439980Y-68680595D01*
X49561022Y-68725741D01*
X49576243Y-68729338D01*
X49625562Y-68734640D01*
X49632277Y-68735000D01*
X50157885Y-68735000D01*
X50173124Y-68730525D01*
X50174329Y-68729135D01*
X50176000Y-68721452D01*
X50176000Y-68098115D01*
X50171525Y-68082876D01*
X50170135Y-68081671D01*
X50162452Y-68080000D01*
X49187615Y-68080000D01*
X49169496Y-68085320D01*
X49114616Y-68120590D01*
X49043619Y-68120590D01*
X48983893Y-68082207D01*
X48959512Y-68039327D01*
X48947558Y-68003253D01*
X48941402Y-67990051D01*
X48857617Y-67854215D01*
X48848570Y-67842774D01*
X48840701Y-67834905D01*
X48806675Y-67772593D01*
X48811740Y-67701778D01*
X48854287Y-67644942D01*
X48920807Y-67620131D01*
X48930389Y-67619811D01*
X50657321Y-67628009D01*
G37*
G04 #@! TD.AperFunction*
G04 #@! TA.AperFunction,Conductor*
G36*
X40954124Y-22956002D02*
G01*
X41000617Y-23009658D01*
X41011765Y-23069742D01*
X40986990Y-23472098D01*
X40986532Y-23479528D01*
X40962381Y-23546291D01*
X40905969Y-23589398D01*
X40835207Y-23595164D01*
X40783309Y-23567157D01*
X40781475Y-23569476D01*
X40764285Y-23555883D01*
X40628449Y-23472098D01*
X40615247Y-23465942D01*
X40463301Y-23415592D01*
X40449943Y-23412733D01*
X40357861Y-23403325D01*
X40351470Y-23403000D01*
X40327115Y-23403000D01*
X40311876Y-23407475D01*
X40310671Y-23408865D01*
X40309000Y-23416548D01*
X40309000Y-25350885D01*
X40313475Y-25366124D01*
X40314865Y-25367329D01*
X40322548Y-25369000D01*
X40351471Y-25369000D01*
X40357861Y-25368675D01*
X40449943Y-25359267D01*
X40463301Y-25356408D01*
X40615247Y-25306058D01*
X40628453Y-25299900D01*
X40677307Y-25269767D01*
X40745786Y-25251030D01*
X40813525Y-25272290D01*
X40859016Y-25326797D01*
X40869215Y-25384751D01*
X40781719Y-26805692D01*
X40777182Y-26879368D01*
X40753031Y-26946131D01*
X40696619Y-26989238D01*
X40653160Y-26997612D01*
X39684179Y-27010977D01*
X39338115Y-27015750D01*
X39320000Y-27016000D01*
X39310242Y-27024354D01*
X39310241Y-27024354D01*
X38452205Y-27758885D01*
X38000000Y-28146000D01*
X37999353Y-28156345D01*
X37999353Y-28156346D01*
X37907355Y-29628318D01*
X37883142Y-29695058D01*
X37826691Y-29738113D01*
X37782088Y-29746457D01*
X32868166Y-29765503D01*
X32799969Y-29745765D01*
X32753268Y-29692290D01*
X32741689Y-29637844D01*
X32755156Y-28615801D01*
X33292001Y-28615801D01*
X33292327Y-28622196D01*
X33301907Y-28715982D01*
X33304769Y-28729353D01*
X33356036Y-28884066D01*
X33362192Y-28897268D01*
X33447511Y-29035591D01*
X33456558Y-29047032D01*
X33571468Y-29161942D01*
X33582909Y-29170989D01*
X33721232Y-29256308D01*
X33734434Y-29262464D01*
X33889153Y-29313733D01*
X33902511Y-29316592D01*
X33996306Y-29326175D01*
X34002696Y-29326500D01*
X35227885Y-29326500D01*
X35243124Y-29322025D01*
X35244329Y-29320635D01*
X35246000Y-29312952D01*
X35246000Y-29308384D01*
X35754000Y-29308384D01*
X35758475Y-29323623D01*
X35759865Y-29324828D01*
X35767548Y-29326499D01*
X36997301Y-29326499D01*
X37003696Y-29326173D01*
X37097482Y-29316593D01*
X37110853Y-29313731D01*
X37265566Y-29262464D01*
X37278768Y-29256308D01*
X37417091Y-29170989D01*
X37428532Y-29161942D01*
X37543442Y-29047032D01*
X37552489Y-29035591D01*
X37637808Y-28897268D01*
X37643964Y-28884066D01*
X37695233Y-28729347D01*
X37698092Y-28715989D01*
X37707675Y-28622194D01*
X37708000Y-28615804D01*
X37708000Y-28303115D01*
X37703525Y-28287876D01*
X37702135Y-28286671D01*
X37694452Y-28285000D01*
X35772115Y-28285000D01*
X35756876Y-28289475D01*
X35755671Y-28290865D01*
X35754000Y-28298548D01*
X35754000Y-29308384D01*
X35246000Y-29308384D01*
X35246000Y-28303115D01*
X35241525Y-28287876D01*
X35240135Y-28286671D01*
X35232452Y-28285000D01*
X33310116Y-28285000D01*
X33294877Y-28289475D01*
X33293672Y-28290865D01*
X33292001Y-28298548D01*
X33292001Y-28615801D01*
X32755156Y-28615801D01*
X32766448Y-27758885D01*
X33292000Y-27758885D01*
X33296475Y-27774124D01*
X33297865Y-27775329D01*
X33305548Y-27777000D01*
X35227885Y-27777000D01*
X35243124Y-27772525D01*
X35244329Y-27771135D01*
X35246000Y-27763452D01*
X35246000Y-27758885D01*
X35754000Y-27758885D01*
X35758475Y-27774124D01*
X35759865Y-27775329D01*
X35767548Y-27777000D01*
X37689884Y-27777000D01*
X37705123Y-27772525D01*
X37706328Y-27771135D01*
X37707999Y-27763452D01*
X37707999Y-27446199D01*
X37707673Y-27439804D01*
X37698093Y-27346018D01*
X37695231Y-27332647D01*
X37643964Y-27177934D01*
X37637808Y-27164732D01*
X37552489Y-27026409D01*
X37543442Y-27014968D01*
X37428532Y-26900058D01*
X37417091Y-26891011D01*
X37278768Y-26805692D01*
X37265566Y-26799536D01*
X37110847Y-26748267D01*
X37097489Y-26745408D01*
X37003694Y-26735825D01*
X36997303Y-26735500D01*
X35772115Y-26735500D01*
X35756876Y-26739975D01*
X35755671Y-26741365D01*
X35754000Y-26749048D01*
X35754000Y-27758885D01*
X35246000Y-27758885D01*
X35246000Y-26753616D01*
X35241525Y-26738377D01*
X35240135Y-26737172D01*
X35232452Y-26735501D01*
X34002699Y-26735501D01*
X33996304Y-26735827D01*
X33902518Y-26745407D01*
X33889147Y-26748269D01*
X33734434Y-26799536D01*
X33721232Y-26805692D01*
X33582909Y-26891011D01*
X33571468Y-26900058D01*
X33456558Y-27014968D01*
X33447511Y-27026409D01*
X33362192Y-27164732D01*
X33356036Y-27177934D01*
X33304767Y-27332653D01*
X33301908Y-27346011D01*
X33292325Y-27439806D01*
X33292000Y-27446197D01*
X33292000Y-27758885D01*
X32766448Y-27758885D01*
X32807151Y-24669971D01*
X39059500Y-24669971D01*
X39059825Y-24676361D01*
X39069233Y-24768443D01*
X39072092Y-24781801D01*
X39122442Y-24933747D01*
X39128598Y-24946949D01*
X39212383Y-25082785D01*
X39221430Y-25094226D01*
X39334274Y-25207070D01*
X39345715Y-25216117D01*
X39481551Y-25299902D01*
X39494753Y-25306058D01*
X39646699Y-25356408D01*
X39660057Y-25359267D01*
X39752139Y-25368675D01*
X39758529Y-25369000D01*
X39782885Y-25369000D01*
X39798124Y-25364525D01*
X39799329Y-25363135D01*
X39801000Y-25355452D01*
X39801000Y-24658115D01*
X39796525Y-24642876D01*
X39795135Y-24641671D01*
X39787452Y-24640000D01*
X39077615Y-24640000D01*
X39062376Y-24644475D01*
X39061171Y-24645865D01*
X39059500Y-24653548D01*
X39059500Y-24669971D01*
X32807151Y-24669971D01*
X32814479Y-24113885D01*
X39059500Y-24113885D01*
X39063975Y-24129124D01*
X39065365Y-24130329D01*
X39073048Y-24132000D01*
X39782885Y-24132000D01*
X39798124Y-24127525D01*
X39799329Y-24126135D01*
X39801000Y-24118452D01*
X39801000Y-23421115D01*
X39796525Y-23405876D01*
X39795135Y-23404671D01*
X39787452Y-23403000D01*
X39758530Y-23403000D01*
X39752139Y-23403325D01*
X39660057Y-23412733D01*
X39646699Y-23415592D01*
X39494753Y-23465942D01*
X39481551Y-23472098D01*
X39345715Y-23555883D01*
X39334274Y-23564930D01*
X39221430Y-23677774D01*
X39212383Y-23689215D01*
X39128598Y-23825051D01*
X39122442Y-23838253D01*
X39072092Y-23990199D01*
X39069233Y-24003557D01*
X39059825Y-24095639D01*
X39059500Y-24102030D01*
X39059500Y-24113885D01*
X32814479Y-24113885D01*
X32828362Y-23060340D01*
X32849260Y-22992489D01*
X32903523Y-22946707D01*
X32954351Y-22936000D01*
X40886003Y-22936000D01*
X40954124Y-22956002D01*
G37*
G04 #@! TD.AperFunction*
G04 #@! TA.AperFunction,Conductor*
G36*
X47930413Y-59592361D02*
G01*
X50184595Y-59604989D01*
X50252601Y-59625372D01*
X50272983Y-59641892D01*
X51224000Y-60592909D01*
X51258026Y-60655221D01*
X51260904Y-60681603D01*
X51268214Y-62980599D01*
X51248429Y-63048783D01*
X51194921Y-63095447D01*
X51142215Y-63107000D01*
X50702115Y-63107000D01*
X50686876Y-63111475D01*
X50685671Y-63112865D01*
X50684000Y-63120548D01*
X50684000Y-65414000D01*
X50663998Y-65482121D01*
X50610342Y-65528614D01*
X50558000Y-65540000D01*
X50302000Y-65540000D01*
X50233879Y-65519998D01*
X50187386Y-65466342D01*
X50176000Y-65414000D01*
X50176000Y-64288115D01*
X50171525Y-64272876D01*
X50170135Y-64271671D01*
X50162452Y-64270000D01*
X49187615Y-64270000D01*
X49172376Y-64274475D01*
X49171171Y-64275865D01*
X49169500Y-64283548D01*
X49169500Y-64462223D01*
X49169860Y-64468938D01*
X49175162Y-64518257D01*
X49178759Y-64533478D01*
X49206169Y-64606968D01*
X49211233Y-64677784D01*
X49206169Y-64695032D01*
X49178759Y-64768522D01*
X49175162Y-64783743D01*
X49169860Y-64833062D01*
X49169500Y-64839777D01*
X49169500Y-65166500D01*
X49149498Y-65234621D01*
X49095842Y-65281114D01*
X49043500Y-65292500D01*
X47751459Y-65292500D01*
X47683338Y-65272498D01*
X47636845Y-65218842D01*
X47625467Y-65165098D01*
X47641283Y-63743885D01*
X49169500Y-63743885D01*
X49173975Y-63759124D01*
X49175365Y-63760329D01*
X49183048Y-63762000D01*
X50157885Y-63762000D01*
X50173124Y-63757525D01*
X50174329Y-63756135D01*
X50176000Y-63748452D01*
X50176000Y-63125115D01*
X50171525Y-63109876D01*
X50170135Y-63108671D01*
X50162452Y-63107000D01*
X49632277Y-63107000D01*
X49625562Y-63107360D01*
X49576243Y-63112662D01*
X49561022Y-63116259D01*
X49439980Y-63161405D01*
X49424324Y-63169954D01*
X49321807Y-63246698D01*
X49309198Y-63259307D01*
X49232454Y-63361824D01*
X49223905Y-63377480D01*
X49178759Y-63498522D01*
X49175162Y-63513743D01*
X49169860Y-63563062D01*
X49169500Y-63569777D01*
X49169500Y-63743885D01*
X47641283Y-63743885D01*
X47646183Y-63303597D01*
X47666942Y-63235704D01*
X47721111Y-63189811D01*
X47772175Y-63179000D01*
X48432723Y-63179000D01*
X48439438Y-63178640D01*
X48488757Y-63173338D01*
X48503978Y-63169741D01*
X48625020Y-63124595D01*
X48640676Y-63116046D01*
X48743193Y-63039302D01*
X48755802Y-63026693D01*
X48832546Y-62924176D01*
X48841095Y-62908520D01*
X48886241Y-62787478D01*
X48889838Y-62772257D01*
X48895140Y-62722938D01*
X48895500Y-62716223D01*
X48895500Y-61843115D01*
X48891025Y-61827876D01*
X48889635Y-61826671D01*
X48881952Y-61825000D01*
X47662638Y-61825000D01*
X47668292Y-61317000D01*
X48877385Y-61317000D01*
X48892624Y-61312525D01*
X48893829Y-61311135D01*
X48895500Y-61303452D01*
X48895500Y-60425777D01*
X48895140Y-60419062D01*
X48889838Y-60369743D01*
X48886241Y-60354522D01*
X48841095Y-60233480D01*
X48832546Y-60217824D01*
X48755802Y-60115307D01*
X48743193Y-60102698D01*
X48640676Y-60025954D01*
X48625020Y-60017405D01*
X48503978Y-59972259D01*
X48488757Y-59968662D01*
X48439438Y-59963360D01*
X48432723Y-59963000D01*
X47810770Y-59963000D01*
X47742649Y-59942998D01*
X47696156Y-59889342D01*
X47684778Y-59835598D01*
X47686106Y-59716298D01*
X47706865Y-59648404D01*
X47761035Y-59602511D01*
X47812804Y-59591702D01*
X47930413Y-59592361D01*
G37*
G04 #@! TD.AperFunction*
G04 #@! TA.AperFunction,Conductor*
G36*
X62355595Y-66477499D02*
G01*
X63572053Y-67693957D01*
X63606079Y-67756269D01*
X63608956Y-67783757D01*
X63586878Y-71707304D01*
X63568196Y-75027270D01*
X63547811Y-75095277D01*
X63493895Y-75141467D01*
X63443778Y-75152551D01*
X62949653Y-75158747D01*
X62729579Y-75161507D01*
X62661214Y-75142361D01*
X62614052Y-75089292D01*
X62603067Y-75019151D01*
X62613807Y-74982264D01*
X62616465Y-74976565D01*
X62667733Y-74821847D01*
X62670592Y-74808489D01*
X62680175Y-74714694D01*
X62680500Y-74708304D01*
X62680500Y-73483115D01*
X62676025Y-73467876D01*
X62674635Y-73466671D01*
X62666952Y-73465000D01*
X61257000Y-73465000D01*
X61188879Y-73444998D01*
X61142386Y-73391342D01*
X61131000Y-73339000D01*
X61131000Y-72938885D01*
X61639000Y-72938885D01*
X61643475Y-72954124D01*
X61644865Y-72955329D01*
X61652548Y-72957000D01*
X62662384Y-72957000D01*
X62677623Y-72952525D01*
X62678828Y-72951135D01*
X62680499Y-72943452D01*
X62680499Y-71713699D01*
X62680173Y-71707304D01*
X62670593Y-71613518D01*
X62667731Y-71600147D01*
X62616464Y-71445434D01*
X62610308Y-71432232D01*
X62524989Y-71293909D01*
X62515942Y-71282468D01*
X62401032Y-71167558D01*
X62389591Y-71158511D01*
X62251268Y-71073192D01*
X62238066Y-71067036D01*
X62083347Y-71015767D01*
X62069989Y-71012908D01*
X61976194Y-71003325D01*
X61969803Y-71003000D01*
X61657115Y-71003000D01*
X61641876Y-71007475D01*
X61640671Y-71008865D01*
X61639000Y-71016548D01*
X61639000Y-72938885D01*
X61131000Y-72938885D01*
X61131000Y-71021115D01*
X61119352Y-70981444D01*
X61119352Y-70910448D01*
X61126053Y-70892698D01*
X61132558Y-70878747D01*
X61182908Y-70726801D01*
X61185767Y-70713443D01*
X61195175Y-70621361D01*
X61195500Y-70614971D01*
X61195500Y-70603115D01*
X61191025Y-70587876D01*
X61189635Y-70586671D01*
X61181952Y-70585000D01*
X60442163Y-70585000D01*
X60449295Y-70077000D01*
X61177385Y-70077000D01*
X61192624Y-70072525D01*
X61193829Y-70071135D01*
X61195500Y-70063452D01*
X61195500Y-70047030D01*
X61195175Y-70040639D01*
X61185767Y-69948557D01*
X61182908Y-69935199D01*
X61132558Y-69783253D01*
X61126402Y-69770051D01*
X61042617Y-69634215D01*
X61033570Y-69622774D01*
X60920726Y-69509930D01*
X60909285Y-69500883D01*
X60773449Y-69417098D01*
X60760247Y-69410942D01*
X60608301Y-69360592D01*
X60594942Y-69357732D01*
X60574390Y-69355633D01*
X60508654Y-69328812D01*
X60467855Y-69270709D01*
X60461207Y-69228519D01*
X60481431Y-67787938D01*
X60502387Y-67720107D01*
X60556690Y-67674372D01*
X60627099Y-67665256D01*
X60647051Y-67670104D01*
X60771699Y-67711408D01*
X60785057Y-67714267D01*
X60877139Y-67723675D01*
X60883529Y-67724000D01*
X60907885Y-67724000D01*
X60923124Y-67719525D01*
X60924329Y-67718135D01*
X60926000Y-67710452D01*
X60926000Y-67705885D01*
X61434000Y-67705885D01*
X61438475Y-67721124D01*
X61439865Y-67722329D01*
X61447548Y-67724000D01*
X61476471Y-67724000D01*
X61482861Y-67723675D01*
X61574943Y-67714267D01*
X61588301Y-67711408D01*
X61740247Y-67661058D01*
X61753449Y-67654902D01*
X61889285Y-67571117D01*
X61900726Y-67562070D01*
X62013570Y-67449226D01*
X62022617Y-67437785D01*
X62106402Y-67301949D01*
X62112558Y-67288747D01*
X62162908Y-67136801D01*
X62165767Y-67123443D01*
X62175175Y-67031361D01*
X62175500Y-67024971D01*
X62175500Y-67013115D01*
X62171025Y-66997876D01*
X62169635Y-66996671D01*
X62161952Y-66995000D01*
X61452115Y-66995000D01*
X61436876Y-66999475D01*
X61435671Y-67000865D01*
X61434000Y-67008548D01*
X61434000Y-67705885D01*
X60926000Y-67705885D01*
X60926000Y-66613000D01*
X60946002Y-66544879D01*
X60999658Y-66498386D01*
X61052000Y-66487000D01*
X62157385Y-66487000D01*
X62174600Y-66481945D01*
X62231001Y-66445698D01*
X62301998Y-66445698D01*
X62355595Y-66477499D01*
G37*
G04 #@! TD.AperFunction*
G04 #@! TA.AperFunction,Conductor*
G36*
X60082034Y-62739291D02*
G01*
X60103256Y-62756352D01*
X61174877Y-63827973D01*
X61208903Y-63890285D01*
X61203838Y-63961100D01*
X61161291Y-64017936D01*
X61094771Y-64042747D01*
X61086165Y-64043067D01*
X59916392Y-64046564D01*
X59876387Y-64040171D01*
X59824381Y-64022938D01*
X59817547Y-64022240D01*
X59817543Y-64022239D01*
X59725397Y-64012825D01*
X59725391Y-64012825D01*
X59722213Y-64012500D01*
X59422547Y-64012500D01*
X59122788Y-64012501D01*
X59119611Y-64012826D01*
X59119602Y-64012826D01*
X59027459Y-64022239D01*
X59027457Y-64022240D01*
X59020619Y-64022938D01*
X59014092Y-64025101D01*
X59014091Y-64025101D01*
X58959629Y-64043147D01*
X58920375Y-64049541D01*
X58661836Y-64050314D01*
X58107704Y-64051971D01*
X58067706Y-64045578D01*
X57999381Y-64022938D01*
X57934376Y-64016297D01*
X57900397Y-64012825D01*
X57900391Y-64012825D01*
X57897213Y-64012500D01*
X57597547Y-64012500D01*
X57297788Y-64012501D01*
X57294611Y-64012826D01*
X57294602Y-64012826D01*
X57246735Y-64017716D01*
X57195619Y-64022938D01*
X57189095Y-64025100D01*
X57189094Y-64025100D01*
X57118014Y-64048653D01*
X57078759Y-64055047D01*
X56845357Y-64055745D01*
X55171000Y-64060750D01*
X55171000Y-63743885D01*
X55679000Y-63743885D01*
X55683475Y-63759124D01*
X55684865Y-63760329D01*
X55692548Y-63762000D01*
X56667385Y-63762000D01*
X56682624Y-63757525D01*
X56683829Y-63756135D01*
X56685500Y-63748452D01*
X56685500Y-63569777D01*
X56685140Y-63563062D01*
X56679838Y-63513743D01*
X56676241Y-63498522D01*
X56631095Y-63377480D01*
X56622546Y-63361824D01*
X56545802Y-63259307D01*
X56533193Y-63246698D01*
X56430676Y-63169954D01*
X56415020Y-63161405D01*
X56293978Y-63116259D01*
X56278757Y-63112662D01*
X56229438Y-63107360D01*
X56222723Y-63107000D01*
X55697115Y-63107000D01*
X55681876Y-63111475D01*
X55680671Y-63112865D01*
X55679000Y-63120548D01*
X55679000Y-63743885D01*
X55171000Y-63743885D01*
X55171000Y-63125115D01*
X55166525Y-63109876D01*
X55165133Y-63108670D01*
X55162477Y-63108092D01*
X55100165Y-63074067D01*
X55066140Y-63011755D01*
X55063293Y-62987814D01*
X55061945Y-62928066D01*
X55060399Y-62859540D01*
X55078860Y-62790987D01*
X55131453Y-62743296D01*
X55186072Y-62730700D01*
X57571792Y-62725139D01*
X60013867Y-62719447D01*
X60082034Y-62739291D01*
G37*
G04 #@! TD.AperFunction*
G04 #@! TA.AperFunction,Conductor*
G36*
X64551326Y-15771576D02*
G01*
X64599705Y-15823539D01*
X64613030Y-15880699D01*
X64610246Y-16342000D01*
X64591808Y-19396494D01*
X64571395Y-19464492D01*
X64517460Y-19510660D01*
X64447126Y-19520340D01*
X64382724Y-19490458D01*
X64377160Y-19485272D01*
X63047224Y-18168537D01*
X63012889Y-18106395D01*
X63017600Y-18035555D01*
X63042137Y-17997166D01*
X63044552Y-17995552D01*
X63088867Y-17929231D01*
X63100500Y-17870748D01*
X63100500Y-17398549D01*
X63120502Y-17330428D01*
X63150991Y-17297681D01*
X63255693Y-17219302D01*
X63268302Y-17206693D01*
X63345046Y-17104176D01*
X63353595Y-17088520D01*
X63398741Y-16967478D01*
X63402338Y-16952257D01*
X63407640Y-16902938D01*
X63408000Y-16896223D01*
X63408000Y-16868115D01*
X63403525Y-16852876D01*
X63402135Y-16851671D01*
X63394452Y-16850000D01*
X62222000Y-16850000D01*
X62153879Y-16829998D01*
X62107386Y-16776342D01*
X62096000Y-16724000D01*
X62096000Y-16468000D01*
X62116002Y-16399879D01*
X62169658Y-16353386D01*
X62222000Y-16342000D01*
X63389885Y-16342000D01*
X63405124Y-16337525D01*
X63406329Y-16336135D01*
X63408000Y-16328452D01*
X63408000Y-16295785D01*
X63407941Y-16294685D01*
X63408000Y-16294435D01*
X63408000Y-16292410D01*
X63408478Y-16292410D01*
X63424265Y-16225591D01*
X63475353Y-16176291D01*
X63544985Y-16162437D01*
X63581977Y-16171527D01*
X63653238Y-16201044D01*
X63810000Y-16221682D01*
X63818188Y-16220604D01*
X63958574Y-16202122D01*
X63966762Y-16201044D01*
X64112841Y-16140536D01*
X64238282Y-16044282D01*
X64334536Y-15918841D01*
X64370623Y-15831720D01*
X64415172Y-15776439D01*
X64482535Y-15754018D01*
X64551326Y-15771576D01*
G37*
G04 #@! TD.AperFunction*
G04 #@! TA.AperFunction,Conductor*
G36*
X64590809Y-9776305D02*
G01*
X64637577Y-9829722D01*
X64649231Y-9883412D01*
X64643140Y-10892560D01*
X64643022Y-10912081D01*
X64622609Y-10980079D01*
X64568674Y-11026247D01*
X64498340Y-11035927D01*
X64442203Y-11012700D01*
X64347071Y-10942490D01*
X64339475Y-10936884D01*
X64214849Y-10893275D01*
X64196928Y-10891595D01*
X64188193Y-10890775D01*
X64188184Y-10890775D01*
X64185256Y-10890500D01*
X63579744Y-10890500D01*
X63576816Y-10890775D01*
X63576807Y-10890775D01*
X63568072Y-10891595D01*
X63550151Y-10893275D01*
X63425525Y-10936884D01*
X63319289Y-11015289D01*
X63240884Y-11121525D01*
X63197275Y-11246151D01*
X63194500Y-11275744D01*
X63194500Y-11741483D01*
X63174498Y-11809604D01*
X63157595Y-11830578D01*
X62939518Y-12048655D01*
X62877206Y-12082681D01*
X62806391Y-12077616D01*
X62749555Y-12035069D01*
X62724744Y-11968549D01*
X62731494Y-11917946D01*
X62742725Y-11885849D01*
X62745500Y-11856256D01*
X62745500Y-11275744D01*
X62742725Y-11246151D01*
X62699116Y-11121525D01*
X62620711Y-11015289D01*
X62514475Y-10936884D01*
X62389849Y-10893275D01*
X62371928Y-10891595D01*
X62363193Y-10890775D01*
X62363184Y-10890775D01*
X62360256Y-10890500D01*
X61754744Y-10890500D01*
X61751816Y-10890775D01*
X61751807Y-10890775D01*
X61743072Y-10891595D01*
X61725151Y-10893275D01*
X61600525Y-10936884D01*
X61494289Y-11015289D01*
X61415884Y-11121525D01*
X61412766Y-11130436D01*
X61412765Y-11130438D01*
X61403780Y-11156115D01*
X61362402Y-11213807D01*
X61296401Y-11239969D01*
X61284851Y-11240500D01*
X60052645Y-11240500D01*
X59984524Y-11220498D01*
X59938031Y-11166842D01*
X59933716Y-11156116D01*
X59907234Y-11080436D01*
X59904116Y-11071525D01*
X59825711Y-10965289D01*
X59719475Y-10886884D01*
X59594849Y-10843275D01*
X59576928Y-10841595D01*
X59568193Y-10840775D01*
X59568184Y-10840775D01*
X59565256Y-10840500D01*
X58859744Y-10840500D01*
X58856816Y-10840775D01*
X58856807Y-10840775D01*
X58848072Y-10841595D01*
X58830151Y-10843275D01*
X58705525Y-10886884D01*
X58697929Y-10892490D01*
X58620769Y-10949436D01*
X58554081Y-10973793D01*
X58484811Y-10958230D01*
X58438708Y-10914204D01*
X58380119Y-10819217D01*
X58371070Y-10807774D01*
X58258226Y-10694930D01*
X58246785Y-10685883D01*
X58110949Y-10602098D01*
X58097747Y-10595942D01*
X57945801Y-10545592D01*
X57932443Y-10542733D01*
X57840361Y-10533325D01*
X57833970Y-10533000D01*
X57759615Y-10533000D01*
X57744376Y-10537475D01*
X57743171Y-10538865D01*
X57741500Y-10546548D01*
X57741500Y-12480885D01*
X57745975Y-12496124D01*
X57747365Y-12497329D01*
X57755048Y-12499000D01*
X57833971Y-12499000D01*
X57840361Y-12498675D01*
X57932443Y-12489267D01*
X57945801Y-12486408D01*
X58097747Y-12436058D01*
X58110949Y-12429902D01*
X58246785Y-12346117D01*
X58258226Y-12337070D01*
X58371070Y-12224226D01*
X58380119Y-12212783D01*
X58438708Y-12117796D01*
X58491494Y-12070319D01*
X58561569Y-12058916D01*
X58620770Y-12082564D01*
X58705525Y-12145116D01*
X58830151Y-12188725D01*
X58848072Y-12190405D01*
X58856807Y-12191225D01*
X58856816Y-12191225D01*
X58859744Y-12191500D01*
X59565256Y-12191500D01*
X59568184Y-12191225D01*
X59568193Y-12191225D01*
X59576928Y-12190405D01*
X59594849Y-12188725D01*
X59719475Y-12145116D01*
X59825711Y-12066711D01*
X59904116Y-11960475D01*
X59905472Y-11956601D01*
X59953015Y-11907745D01*
X60014901Y-11891500D01*
X61284851Y-11891500D01*
X61352972Y-11911502D01*
X61399465Y-11965158D01*
X61403780Y-11975885D01*
X61415884Y-12010475D01*
X61494289Y-12116711D01*
X61600525Y-12195116D01*
X61725151Y-12238725D01*
X61743072Y-12240405D01*
X61751807Y-12241225D01*
X61751816Y-12241225D01*
X61754744Y-12241500D01*
X62360256Y-12241500D01*
X62363184Y-12241225D01*
X62363193Y-12241225D01*
X62371928Y-12240405D01*
X62389849Y-12238725D01*
X62421945Y-12227494D01*
X62492848Y-12223874D01*
X62554453Y-12259162D01*
X62587201Y-12322155D01*
X62580694Y-12392853D01*
X62552657Y-12435517D01*
X62133773Y-12854401D01*
X62125681Y-12861816D01*
X62096806Y-12886045D01*
X62091293Y-12895594D01*
X62077961Y-12918685D01*
X62072055Y-12927956D01*
X62050446Y-12958816D01*
X62047592Y-12969466D01*
X62046115Y-12972634D01*
X62044923Y-12975910D01*
X62039412Y-12985455D01*
X62033462Y-13019199D01*
X62032870Y-13022558D01*
X62030492Y-13033284D01*
X62026789Y-13047106D01*
X61989840Y-13107730D01*
X61925981Y-13138755D01*
X61905081Y-13140500D01*
X61780252Y-13140500D01*
X61774184Y-13141707D01*
X61733939Y-13149712D01*
X61733938Y-13149712D01*
X61721769Y-13152133D01*
X61655448Y-13196448D01*
X61611133Y-13262769D01*
X61608712Y-13274938D01*
X61608712Y-13274939D01*
X61606629Y-13285412D01*
X61599500Y-13321252D01*
X61599500Y-13870748D01*
X61611133Y-13929231D01*
X61655448Y-13995552D01*
X61665761Y-14002443D01*
X61670223Y-14006905D01*
X61704249Y-14069217D01*
X61699184Y-14140032D01*
X61670223Y-14185095D01*
X61665761Y-14189557D01*
X61655448Y-14196448D01*
X61611133Y-14262769D01*
X61608712Y-14274938D01*
X61608712Y-14274939D01*
X61605296Y-14292114D01*
X61599500Y-14321252D01*
X61599500Y-14870748D01*
X61611133Y-14929231D01*
X61655448Y-14995552D01*
X61665761Y-15002443D01*
X61670223Y-15006905D01*
X61704249Y-15069217D01*
X61699184Y-15140032D01*
X61670223Y-15185095D01*
X61665761Y-15189557D01*
X61655448Y-15196448D01*
X61611133Y-15262769D01*
X61599500Y-15321252D01*
X61599500Y-15793451D01*
X61579498Y-15861572D01*
X61549009Y-15894319D01*
X61444307Y-15972698D01*
X61431698Y-15985307D01*
X61354954Y-16087824D01*
X61346406Y-16103478D01*
X61310733Y-16199121D01*
X61268186Y-16255956D01*
X61201665Y-16280767D01*
X61132291Y-16265675D01*
X61104027Y-16244627D01*
X60572872Y-15718744D01*
X60572871Y-15718744D01*
X60560000Y-15706000D01*
X60548373Y-15705524D01*
X60548372Y-15705524D01*
X58363008Y-15616123D01*
X58363007Y-15616123D01*
X58360000Y-15616000D01*
X58312276Y-15618619D01*
X58133404Y-15628435D01*
X58064290Y-15612195D01*
X58014927Y-15561168D01*
X58000500Y-15502624D01*
X58000500Y-15321252D01*
X57988867Y-15262769D01*
X57944552Y-15196448D01*
X57934239Y-15189557D01*
X57929777Y-15185095D01*
X57895751Y-15122783D01*
X57900816Y-15051968D01*
X57929777Y-15006905D01*
X57934239Y-15002443D01*
X57944552Y-14995552D01*
X57988867Y-14929231D01*
X58000500Y-14870748D01*
X58000500Y-14321252D01*
X57994704Y-14292114D01*
X57991288Y-14274939D01*
X57991288Y-14274938D01*
X57988867Y-14262769D01*
X57944552Y-14196448D01*
X57934239Y-14189557D01*
X57929777Y-14185095D01*
X57895751Y-14122783D01*
X57900816Y-14051968D01*
X57929777Y-14006905D01*
X57934239Y-14002443D01*
X57944552Y-13995552D01*
X57988867Y-13929231D01*
X58000500Y-13870748D01*
X58000500Y-13321252D01*
X57993371Y-13285412D01*
X57991288Y-13274939D01*
X57991288Y-13274938D01*
X57988867Y-13262769D01*
X57944552Y-13196448D01*
X57878231Y-13152133D01*
X57866062Y-13149712D01*
X57866061Y-13149712D01*
X57825816Y-13141707D01*
X57819748Y-13140500D01*
X56680252Y-13140500D01*
X56674184Y-13141707D01*
X56633939Y-13149712D01*
X56633938Y-13149712D01*
X56621769Y-13152133D01*
X56555448Y-13196448D01*
X56548557Y-13206761D01*
X56548555Y-13206763D01*
X56543384Y-13214502D01*
X56488907Y-13260030D01*
X56438619Y-13270500D01*
X55739713Y-13270500D01*
X55728732Y-13270021D01*
X55702170Y-13267697D01*
X55702168Y-13267697D01*
X55691193Y-13266737D01*
X55654783Y-13276492D01*
X55644076Y-13278866D01*
X55606955Y-13285412D01*
X55597411Y-13290922D01*
X55594135Y-13292114D01*
X55590964Y-13293593D01*
X55580316Y-13296446D01*
X55571287Y-13302768D01*
X55549449Y-13318059D01*
X55540179Y-13323964D01*
X55517092Y-13337293D01*
X55517088Y-13337296D01*
X55507545Y-13342806D01*
X55500460Y-13351250D01*
X55483320Y-13371676D01*
X55475894Y-13379779D01*
X54550595Y-14305078D01*
X54488283Y-14339104D01*
X54417468Y-14334039D01*
X54360632Y-14291492D01*
X54335821Y-14224972D01*
X54335500Y-14215983D01*
X54335500Y-13875710D01*
X54335980Y-13864728D01*
X54338303Y-13838180D01*
X54338303Y-13838178D01*
X54339264Y-13827193D01*
X54329508Y-13790785D01*
X54327130Y-13780058D01*
X54326538Y-13776699D01*
X54320588Y-13742955D01*
X54315077Y-13733410D01*
X54313885Y-13730134D01*
X54312408Y-13726966D01*
X54309554Y-13716316D01*
X54287945Y-13685456D01*
X54282039Y-13676185D01*
X54268707Y-13653094D01*
X54263194Y-13643545D01*
X54234317Y-13619315D01*
X54226215Y-13611889D01*
X53598352Y-12984026D01*
X53564326Y-12921714D01*
X53564326Y-12868149D01*
X53566000Y-12860453D01*
X53566000Y-12855885D01*
X54074000Y-12855885D01*
X54078475Y-12871124D01*
X54079865Y-12872329D01*
X54087548Y-12874000D01*
X54217303Y-12874000D01*
X54223693Y-12873675D01*
X54317488Y-12864092D01*
X54330846Y-12861233D01*
X54485565Y-12809964D01*
X54498767Y-12803808D01*
X54637092Y-12718488D01*
X54648532Y-12709442D01*
X54763442Y-12594532D01*
X54772488Y-12583092D01*
X54857808Y-12444767D01*
X54863964Y-12431565D01*
X54915233Y-12276846D01*
X54918092Y-12263488D01*
X54927675Y-12169693D01*
X54928000Y-12163303D01*
X54928000Y-11938115D01*
X54923525Y-11922876D01*
X54922135Y-11921671D01*
X54914452Y-11920000D01*
X54092115Y-11920000D01*
X54076876Y-11924475D01*
X54075671Y-11925865D01*
X54074000Y-11933548D01*
X54074000Y-12855885D01*
X53566000Y-12855885D01*
X53566000Y-11799971D01*
X56442000Y-11799971D01*
X56442325Y-11806361D01*
X56451733Y-11898443D01*
X56454592Y-11911801D01*
X56504942Y-12063747D01*
X56511098Y-12076949D01*
X56594883Y-12212785D01*
X56603930Y-12224226D01*
X56716774Y-12337070D01*
X56728215Y-12346117D01*
X56864051Y-12429902D01*
X56877253Y-12436058D01*
X57029199Y-12486408D01*
X57042557Y-12489267D01*
X57134639Y-12498675D01*
X57141029Y-12499000D01*
X57215385Y-12499000D01*
X57230624Y-12494525D01*
X57231829Y-12493135D01*
X57233500Y-12485452D01*
X57233500Y-11788115D01*
X57229025Y-11772876D01*
X57227635Y-11771671D01*
X57219952Y-11770000D01*
X56460115Y-11770000D01*
X56444876Y-11774475D01*
X56443671Y-11775865D01*
X56442000Y-11783548D01*
X56442000Y-11799971D01*
X53566000Y-11799971D01*
X53566000Y-11393885D01*
X54074000Y-11393885D01*
X54078475Y-11409124D01*
X54079865Y-11410329D01*
X54087548Y-11412000D01*
X54909885Y-11412000D01*
X54925124Y-11407525D01*
X54926329Y-11406135D01*
X54928000Y-11398452D01*
X54928000Y-11243885D01*
X56442000Y-11243885D01*
X56446475Y-11259124D01*
X56447865Y-11260329D01*
X56455548Y-11262000D01*
X57215385Y-11262000D01*
X57230624Y-11257525D01*
X57231829Y-11256135D01*
X57233500Y-11248452D01*
X57233500Y-10551115D01*
X57229025Y-10535876D01*
X57227635Y-10534671D01*
X57219952Y-10533000D01*
X57141030Y-10533000D01*
X57134639Y-10533325D01*
X57042557Y-10542733D01*
X57029199Y-10545592D01*
X56877253Y-10595942D01*
X56864051Y-10602098D01*
X56728215Y-10685883D01*
X56716774Y-10694930D01*
X56603930Y-10807774D01*
X56594883Y-10819215D01*
X56511098Y-10955051D01*
X56504942Y-10968253D01*
X56454592Y-11120199D01*
X56451733Y-11133557D01*
X56442325Y-11225639D01*
X56442000Y-11232030D01*
X56442000Y-11243885D01*
X54928000Y-11243885D01*
X54928000Y-11168698D01*
X54927675Y-11162307D01*
X54918092Y-11068512D01*
X54915233Y-11055154D01*
X54863964Y-10900435D01*
X54857808Y-10887233D01*
X54772488Y-10748908D01*
X54763442Y-10737468D01*
X54648532Y-10622558D01*
X54637092Y-10613512D01*
X54498767Y-10528192D01*
X54485565Y-10522036D01*
X54330846Y-10470767D01*
X54317488Y-10467908D01*
X54223693Y-10458325D01*
X54217302Y-10458000D01*
X54092115Y-10458000D01*
X54076876Y-10462475D01*
X54075671Y-10463865D01*
X54074000Y-10471548D01*
X54074000Y-11393885D01*
X53566000Y-11393885D01*
X53566000Y-10476115D01*
X53561525Y-10460876D01*
X53560135Y-10459671D01*
X53552452Y-10458000D01*
X53422698Y-10458000D01*
X53416307Y-10458325D01*
X53322512Y-10467908D01*
X53309154Y-10470767D01*
X53154435Y-10522036D01*
X53141228Y-10528194D01*
X53138153Y-10530091D01*
X53135753Y-10530748D01*
X53134579Y-10531295D01*
X53134485Y-10531094D01*
X53069674Y-10548826D01*
X53001935Y-10527565D01*
X52956445Y-10473056D01*
X52946013Y-10422019D01*
X52949181Y-9940530D01*
X52969631Y-9872542D01*
X53023591Y-9826403D01*
X53074530Y-9815361D01*
X64522588Y-9756653D01*
X64590809Y-9776305D01*
G37*
G04 #@! TD.AperFunction*
M02*
