G04 #@! TF.GenerationSoftware,KiCad,Pcbnew,6.99.0-unknown-70a038877e~161~ubuntu22.04.1*
G04 #@! TF.CreationDate,2023-01-18T15:13:39+00:00*
G04 #@! TF.ProjectId,MyBikesGotLED,4d794269-6b65-4734-976f-744c45442e6b,rev?*
G04 #@! TF.SameCoordinates,PX586a470PY296c010*
G04 #@! TF.FileFunction,Paste,Top*
G04 #@! TF.FilePolarity,Positive*
%FSLAX46Y46*%
G04 Gerber Fmt 4.6, Leading zero omitted, Abs format (unit mm)*
G04 Created by KiCad (PCBNEW 6.99.0-unknown-70a038877e~161~ubuntu22.04.1) date 2023-01-18 15:13:39*
%MOMM*%
%LPD*%
G01*
G04 APERTURE LIST*
G04 Aperture macros list*
%AMRoundRect*
0 Rectangle with rounded corners*
0 $1 Rounding radius*
0 $2 $3 $4 $5 $6 $7 $8 $9 X,Y pos of 4 corners*
0 Add a 4 corners polygon primitive as box body*
4,1,4,$2,$3,$4,$5,$6,$7,$8,$9,$2,$3,0*
0 Add four circle primitives for the rounded corners*
1,1,$1+$1,$2,$3*
1,1,$1+$1,$4,$5*
1,1,$1+$1,$6,$7*
1,1,$1+$1,$8,$9*
0 Add four rect primitives between the rounded corners*
20,1,$1+$1,$2,$3,$4,$5,0*
20,1,$1+$1,$4,$5,$6,$7,0*
20,1,$1+$1,$6,$7,$8,$9,0*
20,1,$1+$1,$8,$9,$2,$3,0*%
G04 Aperture macros list end*
%ADD10RoundRect,0.237500X0.237500X-0.250000X0.237500X0.250000X-0.237500X0.250000X-0.237500X-0.250000X0*%
%ADD11RoundRect,0.249999X1.450001X-0.537501X1.450001X0.537501X-1.450001X0.537501X-1.450001X-0.537501X0*%
%ADD12RoundRect,0.237500X0.300000X0.237500X-0.300000X0.237500X-0.300000X-0.237500X0.300000X-0.237500X0*%
%ADD13RoundRect,0.237500X-0.237500X0.250000X-0.237500X-0.250000X0.237500X-0.250000X0.237500X0.250000X0*%
%ADD14RoundRect,0.237500X0.250000X0.237500X-0.250000X0.237500X-0.250000X-0.237500X0.250000X-0.237500X0*%
%ADD15RoundRect,0.150000X0.150000X-0.825000X0.150000X0.825000X-0.150000X0.825000X-0.150000X-0.825000X0*%
%ADD16RoundRect,0.237500X-0.250000X-0.237500X0.250000X-0.237500X0.250000X0.237500X-0.250000X0.237500X0*%
%ADD17R,1.505000X0.802000*%
%ADD18R,1.567800X2.101200*%
%ADD19RoundRect,0.250000X-1.450000X0.400000X-1.450000X-0.400000X1.450000X-0.400000X1.450000X0.400000X0*%
%ADD20R,1.000000X3.100000*%
%ADD21RoundRect,0.237500X-0.237500X0.300000X-0.237500X-0.300000X0.237500X-0.300000X0.237500X0.300000X0*%
%ADD22RoundRect,0.249999X0.537501X1.450001X-0.537501X1.450001X-0.537501X-1.450001X0.537501X-1.450001X0*%
%ADD23RoundRect,0.250000X-0.400000X-1.450000X0.400000X-1.450000X0.400000X1.450000X-0.400000X1.450000X0*%
%ADD24R,0.700000X0.300000*%
%ADD25R,1.500000X2.200000*%
%ADD26R,5.400000X2.900000*%
%ADD27R,0.900000X1.500000*%
%ADD28R,4.000000X4.000000*%
%ADD29R,1.100000X0.510000*%
%ADD30RoundRect,0.249999X-1.450001X0.537501X-1.450001X-0.537501X1.450001X-0.537501X1.450001X0.537501X0*%
%ADD31RoundRect,0.150000X-0.512500X-0.150000X0.512500X-0.150000X0.512500X0.150000X-0.512500X0.150000X0*%
%ADD32R,1.400000X1.300000*%
%ADD33RoundRect,0.250000X0.350000X0.450000X-0.350000X0.450000X-0.350000X-0.450000X0.350000X-0.450000X0*%
%ADD34RoundRect,0.237500X-0.300000X-0.237500X0.300000X-0.237500X0.300000X0.237500X-0.300000X0.237500X0*%
%ADD35RoundRect,0.250000X0.450000X-0.325000X0.450000X0.325000X-0.450000X0.325000X-0.450000X-0.325000X0*%
%ADD36R,1.300000X1.400000*%
%ADD37R,0.600000X0.450000*%
%ADD38RoundRect,0.250000X-0.350000X-0.450000X0.350000X-0.450000X0.350000X0.450000X-0.350000X0.450000X0*%
%ADD39RoundRect,0.250000X-0.325000X-0.450000X0.325000X-0.450000X0.325000X0.450000X-0.325000X0.450000X0*%
%ADD40RoundRect,0.150000X0.587500X0.150000X-0.587500X0.150000X-0.587500X-0.150000X0.587500X-0.150000X0*%
%ADD41RoundRect,0.250000X-0.650000X0.412500X-0.650000X-0.412500X0.650000X-0.412500X0.650000X0.412500X0*%
%ADD42R,2.900000X5.400000*%
%ADD43RoundRect,0.150000X0.150000X-0.587500X0.150000X0.587500X-0.150000X0.587500X-0.150000X-0.587500X0*%
%ADD44RoundRect,0.250000X1.500000X-0.250000X1.500000X0.250000X-1.500000X0.250000X-1.500000X-0.250000X0*%
%ADD45RoundRect,0.250001X1.449999X-0.499999X1.449999X0.499999X-1.449999X0.499999X-1.449999X-0.499999X0*%
%ADD46RoundRect,0.250000X-1.450000X0.537500X-1.450000X-0.537500X1.450000X-0.537500X1.450000X0.537500X0*%
%ADD47RoundRect,0.250000X-0.412500X-0.650000X0.412500X-0.650000X0.412500X0.650000X-0.412500X0.650000X0*%
%ADD48R,1.560000X0.650000*%
G04 APERTURE END LIST*
D10*
X48027500Y-68563500D03*
X48027500Y-66738500D03*
D11*
X28080000Y-41136000D03*
X28080000Y-36861000D03*
D12*
X60150000Y-70331000D03*
X58425000Y-70331000D03*
D13*
X57577500Y-66708500D03*
X57577500Y-68533500D03*
D14*
X68072500Y-14786000D03*
X66247500Y-14786000D03*
D15*
X38010000Y-51081000D03*
X39280000Y-51081000D03*
X40550000Y-51081000D03*
X41820000Y-51081000D03*
X43090000Y-51081000D03*
X44360000Y-51081000D03*
X45630000Y-51081000D03*
X45630000Y-46131000D03*
X44360000Y-46131000D03*
X43090000Y-46131000D03*
X41820000Y-46131000D03*
X40550000Y-46131000D03*
X39280000Y-46131000D03*
X38010000Y-46131000D03*
D16*
X40055000Y-24386000D03*
X41880000Y-24386000D03*
D17*
X50429999Y-64015999D03*
X50429999Y-65285999D03*
X50429999Y-66555999D03*
X50429999Y-67825999D03*
X55424999Y-67825999D03*
X55424999Y-66555999D03*
X55424999Y-65285999D03*
X55424999Y-64015999D03*
D18*
X52927499Y-65920999D03*
D19*
X27940000Y-45426000D03*
X27940000Y-49876000D03*
D20*
X6699999Y-70973499D03*
X6699999Y-62073499D03*
X10699999Y-70973499D03*
X10699999Y-62073499D03*
D14*
X68132500Y-11566000D03*
X66307500Y-11566000D03*
X68072500Y-17816000D03*
X66247500Y-17816000D03*
D21*
X45927500Y-68558500D03*
X45927500Y-70283500D03*
D22*
X61385000Y-73211000D03*
X57110000Y-73211000D03*
D23*
X65085000Y-73866000D03*
X69535000Y-73866000D03*
D24*
X70539999Y-17785999D03*
X70539999Y-17285999D03*
X70539999Y-16785999D03*
X70539999Y-16285999D03*
X70539999Y-15785999D03*
X70539999Y-15285999D03*
X70539999Y-14785999D03*
X70539999Y-14285999D03*
X70539999Y-13785999D03*
X70539999Y-13285999D03*
X70539999Y-12785999D03*
X70539999Y-12285999D03*
X72239999Y-12535999D03*
X72239999Y-13035999D03*
X72239999Y-13535999D03*
X72239999Y-14035999D03*
X72239999Y-14535999D03*
X72239999Y-15035999D03*
X72239999Y-15535999D03*
X72239999Y-16035999D03*
X72239999Y-16535999D03*
X72239999Y-17035999D03*
X72239999Y-17535999D03*
X72239999Y-18035999D03*
D25*
X41237499Y-61570999D03*
X47637499Y-61570999D03*
D26*
X36399999Y-20875999D03*
X36399999Y-10975999D03*
D14*
X16170000Y-60706000D03*
X14345000Y-60706000D03*
X23592500Y-74736000D03*
X21767500Y-74736000D03*
D16*
X18585000Y-60756000D03*
X20410000Y-60756000D03*
D10*
X22720000Y-70413500D03*
X22720000Y-68588500D03*
X18600000Y-70333500D03*
X18600000Y-68508500D03*
D27*
X9979999Y-49625999D03*
X11479999Y-49625999D03*
X12979999Y-49625999D03*
X14479999Y-49625999D03*
X15979999Y-49625999D03*
X17479999Y-49625999D03*
X18979999Y-49625999D03*
X20479999Y-49625999D03*
X21979999Y-49625999D03*
X21979999Y-32125999D03*
X20479999Y-32125999D03*
X18979999Y-32125999D03*
X17479999Y-32125999D03*
X15979999Y-32125999D03*
X14479999Y-32125999D03*
X12979999Y-32125999D03*
X11479999Y-32125999D03*
X9979999Y-32125999D03*
D28*
X16589999Y-39775999D03*
D29*
X62349999Y-17595999D03*
X62349999Y-16595999D03*
X62349999Y-15595999D03*
X62349999Y-14595999D03*
X62349999Y-13595999D03*
X57249999Y-13595999D03*
X57249999Y-14595999D03*
X57249999Y-15595999D03*
X57249999Y-16595999D03*
X57249999Y-17595999D03*
D30*
X35500000Y-28031000D03*
X35500000Y-32306000D03*
D31*
X55670000Y-55006000D03*
X55670000Y-55956000D03*
X55670000Y-56906000D03*
X57945000Y-56906000D03*
X57945000Y-55956000D03*
X57945000Y-55006000D03*
D13*
X44370000Y-53431000D03*
X44370000Y-55256000D03*
D16*
X62967500Y-28476000D03*
X64792500Y-28476000D03*
D14*
X19387500Y-74716000D03*
X17562500Y-74716000D03*
D21*
X33230000Y-51881000D03*
X33230000Y-53606000D03*
D32*
X48479999Y-17045999D03*
X48479999Y-19945999D03*
X48499999Y-14445999D03*
X48499999Y-11545999D03*
D14*
X59422500Y-64996000D03*
X57597500Y-64996000D03*
X61180000Y-66741000D03*
X59355000Y-66741000D03*
D33*
X68390000Y-47886000D03*
X66390000Y-47886000D03*
D12*
X59212500Y-11516000D03*
X57487500Y-11516000D03*
D34*
X58827500Y-51836000D03*
X60552500Y-51836000D03*
D35*
X18600000Y-65796000D03*
X18600000Y-63746000D03*
D14*
X24325000Y-21256000D03*
X22500000Y-21256000D03*
D16*
X66510000Y-51666000D03*
X68335000Y-51666000D03*
D36*
X63689999Y-47875999D03*
X60789999Y-47875999D03*
D37*
X70739999Y-47905999D03*
X72839999Y-47905999D03*
D21*
X52580000Y-55233500D03*
X52580000Y-56958500D03*
D38*
X52010000Y-15306000D03*
X54010000Y-15306000D03*
X51820000Y-11666000D03*
X53820000Y-11666000D03*
D39*
X61757500Y-38756000D03*
X63807500Y-38756000D03*
D16*
X53975000Y-40696000D03*
X55800000Y-40696000D03*
D40*
X57050000Y-48376000D03*
X57050000Y-46476000D03*
X55175000Y-47426000D03*
D41*
X66600000Y-22853500D03*
X66600000Y-25978500D03*
D39*
X61757500Y-34996000D03*
X63807500Y-34996000D03*
D42*
X46669999Y-31835999D03*
X56569999Y-31835999D03*
D14*
X63882500Y-11566000D03*
X62057500Y-11566000D03*
D43*
X61260000Y-44986000D03*
X63160000Y-44986000D03*
X62210000Y-43111000D03*
D44*
X73340000Y-37256000D03*
X73340000Y-35256000D03*
D45*
X79090000Y-39606000D03*
X79090000Y-32906000D03*
D16*
X66480000Y-55566000D03*
X68305000Y-55566000D03*
D33*
X54000000Y-18746000D03*
X52000000Y-18746000D03*
D35*
X22720000Y-65888500D03*
X22720000Y-63838500D03*
D40*
X53880000Y-23386000D03*
X53880000Y-21486000D03*
X52005000Y-22436000D03*
D46*
X41577500Y-66903500D03*
X41577500Y-71178500D03*
D21*
X62980000Y-23556000D03*
X62980000Y-25281000D03*
D14*
X41565000Y-28916000D03*
X39740000Y-28916000D03*
X72700000Y-51676000D03*
X70875000Y-51676000D03*
D13*
X40820000Y-53553500D03*
X40820000Y-55378500D03*
D16*
X70920000Y-56046000D03*
X72745000Y-56046000D03*
D47*
X66207500Y-43536000D03*
X69332500Y-43536000D03*
D34*
X62877500Y-20546000D03*
X64602500Y-20546000D03*
D31*
X39162500Y-33116000D03*
X39162500Y-34066000D03*
X39162500Y-35016000D03*
X41437500Y-35016000D03*
X41437500Y-33116000D03*
D48*
X61119999Y-55135999D03*
X61119999Y-56085999D03*
X61119999Y-57035999D03*
X63819999Y-57035999D03*
X63819999Y-56085999D03*
X63819999Y-55135999D03*
D34*
X17645000Y-72496000D03*
X19370000Y-72496000D03*
M02*
