M48
; DRILL file {KiCad 6.99.0-unknown-70a038877e~161~ubuntu22.04.1} date Wed 18 Jan 2023 14:41:48 GMT
; FORMAT={-:-/ absolute / inch / decimal}
; #@! TF.CreationDate,2023-01-18T14:41:48+00:00
; #@! TF.GenerationSoftware,Kicad,Pcbnew,6.99.0-unknown-70a038877e~161~ubuntu22.04.1
; #@! TF.FileFunction,Plated,1,2,PTH
FMAT,2
INCH
; #@! TA.AperFunction,Plated,PTH,ViaDrill
T1C0.0157
; #@! TA.AperFunction,Plated,PTH,ComponentDrill
T2C0.0197
; #@! TA.AperFunction,Plated,PTH,ComponentDrill
T3C0.0354
; #@! TA.AperFunction,Plated,PTH,ComponentDrill
T4C0.0394
; #@! TA.AperFunction,Plated,PTH,ComponentDrill
T5C0.0551
; #@! TA.AperFunction,Plated,PTH,ComponentDrill
T6C0.0591
%
G90
G05
T1
X0.3378Y-2.3707
X0.5146Y-2.3817
X0.548Y-1.8428
X0.6134Y-1.3246
X0.6453Y-1.3884
X0.7315Y-2.4459
X0.8047Y-2.44
X0.8055Y-1.6337
X0.8528Y-0.7931
X0.8602Y-2.8786
X0.9594Y-2.7172
X1.1661Y-2.34
X1.1752Y-1.277
X1.1972Y-2.4105
X1.2106Y-1.6199
X1.2362Y-2.8164
X1.2437Y-1.7703
X1.2484Y-2.0424
X1.2965Y-1.2778
X1.348Y-2.1947
X1.3972Y-0.9735
X1.4567Y-1.4912
X1.4638Y-2.6183
X1.5217Y-1.2494
X1.5823Y-1.2782
X1.5937Y-1.3376
X1.6386Y-1.3408
X1.6957Y-2.0951
X1.6988Y-2.4298
X1.9776Y-1.692
X1.9839Y-0.603
X2.0614Y-1.6235
X2.1937Y-0.7054
X2.2421Y-2.766
X2.2669Y-1.9959
X2.328Y-1.6325
X2.3406Y-2.1128
X2.3406Y-2.2888
X2.3469Y-2.3487
X2.3559Y-1.7833
X2.3689Y-1.5239
X2.3819Y-1.5841
X2.3984Y-2.5668
X2.4067Y-2.5183
X2.4413Y-2.0038
X2.452Y-2.1065
X2.4823Y-1.3246
X2.5122Y-0.6148
X2.5157Y-2.568
X2.5425Y-0.5739
X2.6866Y-0.8376
X2.7094Y-0.5306
X2.7287Y-0.6975
X2.8079Y-1.712
X2.8563Y-2.0896
X2.8941Y-0.5727
X2.9161Y-1.7624
X2.9161Y-2.0817
T3
X3.1043Y-1.912
X3.1043Y-1.9908
X3.1043Y-2.0695
T4
X0.3972Y-0.9695
X0.4008Y-2.2447
X0.4972Y-0.9695
X0.5008Y-2.2447
X0.5972Y-0.9695
X0.5984Y-0.6719
X0.6008Y-2.2447
X0.6972Y-0.9695
X0.6984Y-0.6719
X0.7008Y-2.2447
X0.7972Y-0.9695
X0.7984Y-0.6719
X0.8008Y-2.2447
X0.8972Y-0.9695
X0.8984Y-0.6719
X0.9008Y-2.2447
X0.9972Y-0.9695
X0.9984Y-0.6719
X1.0008Y-2.2447
X1.0972Y-0.9695
X1.0984Y-0.6719
X1.1008Y-2.2447
X1.165Y-2.614
X1.165Y-2.714
X1.165Y-2.814
X1.1972Y-0.9695
X1.2008Y-2.2447
X1.3087Y-2.614
X1.3087Y-2.714
X1.3087Y-2.814
X1.5693Y-1.6302
X1.7134Y-1.6302
X2.6087Y-2.5357
X2.6087Y-2.6357
X2.6087Y-2.7357
X2.6622Y-1.3815
X2.6622Y-1.4815
T5
X2.8757Y-2.6083
X2.8757Y-2.7482
X2.8757Y-2.8803
X2.8768Y-2.4707
X2.8784Y-1.0962
X2.8795Y-0.9586
T6
X3.1043Y-1.8294
X3.1043Y-2.1522
T2
G00X2.8406Y-0.4294
M15
G01X2.8642Y-0.4294
M16
G05
G00X2.8406Y-0.7546
M15
G01X2.8642Y-0.7546
M16
G05
G00X3.0748Y-0.4152
M15
G01X3.0984Y-0.4152
M16
G05
G00X3.0748Y-0.7687
M15
G01X3.0984Y-0.7687
M16
G05
T0
M30
