M48
; DRILL file {KiCad 6.99.0-unknown-70a038877e~161~ubuntu22.04.1} date Wed 18 Jan 2023 15:13:19 GMT
; FORMAT={-:-/ absolute / metric / decimal}
; #@! TF.CreationDate,2023-01-18T15:13:19+00:00
; #@! TF.GenerationSoftware,Kicad,Pcbnew,6.99.0-unknown-70a038877e~161~ubuntu22.04.1
; #@! TF.FileFunction,Plated,1,2,PTH
FMAT,2
METRIC
; #@! TA.AperFunction,Plated,PTH,ViaDrill
T1C0.400
; #@! TA.AperFunction,Plated,PTH,ComponentDrill
T2C0.500
; #@! TA.AperFunction,Plated,PTH,ComponentDrill
T3C0.900
; #@! TA.AperFunction,Plated,PTH,ComponentDrill
T4C1.000
; #@! TA.AperFunction,Plated,PTH,ComponentDrill
T5C1.400
; #@! TA.AperFunction,Plated,PTH,ComponentDrill
T6C1.500
%
G90
G05
T1
X8.58Y-60.216
X13.07Y-60.496
X13.92Y-46.806
X15.58Y-33.646
X16.39Y-35.266
X18.58Y-62.126
X20.44Y-61.976
X20.46Y-41.496
X21.66Y-20.146
X21.85Y-73.116
X24.37Y-69.016
X29.62Y-59.436
X29.85Y-32.436
X30.41Y-61.226
X30.75Y-41.146
X31.4Y-71.536
X31.59Y-44.966
X31.71Y-51.876
X32.93Y-32.456
X34.24Y-55.746
X35.49Y-24.726
X37.0Y-37.876
X37.18Y-66.506
X38.65Y-31.736
X40.19Y-32.466
X40.48Y-33.976
X41.62Y-34.056
X43.07Y-53.216
X43.15Y-61.716
X50.23Y-42.976
X50.39Y-15.316
X52.36Y-41.236
X55.72Y-17.916
X56.95Y-70.256
X57.58Y-50.696
X59.13Y-41.466
X59.45Y-53.666
X59.45Y-58.136
X59.61Y-59.656
X59.84Y-45.296
X60.17Y-38.706
X60.5Y-40.236
X60.92Y-65.196
X61.13Y-63.966
X62.01Y-50.896
X62.28Y-53.506
X63.05Y-33.646
X63.81Y-15.616
X63.9Y-65.226
X64.58Y-14.576
X68.24Y-21.276
X68.82Y-13.476
X69.31Y-17.716
X71.32Y-43.486
X72.55Y-53.076
X73.51Y-14.546
X74.07Y-44.766
X74.07Y-52.876
T3
X78.85Y-48.566
X78.85Y-50.566
X78.85Y-52.566
T4
X10.09Y-24.626
X10.18Y-57.016
X12.63Y-24.626
X12.72Y-57.016
X15.17Y-24.626
X15.2Y-17.066
X15.26Y-57.016
X17.71Y-24.626
X17.74Y-17.066
X17.8Y-57.016
X20.25Y-24.626
X20.28Y-17.066
X20.34Y-57.016
X22.79Y-24.626
X22.82Y-17.066
X22.88Y-57.016
X25.33Y-24.626
X25.36Y-17.066
X25.42Y-57.016
X27.87Y-24.626
X27.9Y-17.066
X27.96Y-57.016
X29.59Y-66.396
X29.59Y-68.936
X29.59Y-71.476
X30.41Y-24.626
X30.5Y-57.016
X33.24Y-66.396
X33.24Y-68.936
X33.24Y-71.476
X39.86Y-41.406
X43.52Y-41.406
X66.26Y-64.406
X66.26Y-66.946
X66.26Y-69.486
X67.62Y-35.091
X67.62Y-37.631
T5
X73.042Y-66.252
X73.042Y-69.804
X73.042Y-73.16
X73.07Y-62.756
X73.11Y-27.843
X73.138Y-24.347
T6
X78.85Y-46.466
X78.85Y-54.666
T2
G00X72.15Y-10.906
M15
G01X72.75Y-10.906
M16
G05
G00X72.15Y-19.166
M15
G01X72.75Y-19.166
M16
G05
G00X78.1Y-10.546
M15
G01X78.7Y-10.546
M16
G05
G00X78.1Y-19.526
M15
G01X78.7Y-19.526
M16
G05
T0
M30
