G04 #@! TF.GenerationSoftware,KiCad,Pcbnew,6.99.0-unknown-70a038877e~161~ubuntu22.04.1*
G04 #@! TF.CreationDate,2023-01-18T15:13:40+00:00*
G04 #@! TF.ProjectId,MyBikesGotLED,4d794269-6b65-4734-976f-744c45442e6b,rev?*
G04 #@! TF.SameCoordinates,PX586a470PY296c010*
G04 #@! TF.FileFunction,Soldermask,Top*
G04 #@! TF.FilePolarity,Negative*
%FSLAX46Y46*%
G04 Gerber Fmt 4.6, Leading zero omitted, Abs format (unit mm)*
G04 Created by KiCad (PCBNEW 6.99.0-unknown-70a038877e~161~ubuntu22.04.1) date 2023-01-18 15:13:40*
%MOMM*%
%LPD*%
G01*
G04 APERTURE LIST*
G04 Aperture macros list*
%AMRoundRect*
0 Rectangle with rounded corners*
0 $1 Rounding radius*
0 $2 $3 $4 $5 $6 $7 $8 $9 X,Y pos of 4 corners*
0 Add a 4 corners polygon primitive as box body*
4,1,4,$2,$3,$4,$5,$6,$7,$8,$9,$2,$3,0*
0 Add four circle primitives for the rounded corners*
1,1,$1+$1,$2,$3*
1,1,$1+$1,$4,$5*
1,1,$1+$1,$6,$7*
1,1,$1+$1,$8,$9*
0 Add four rect primitives between the rounded corners*
20,1,$1+$1,$2,$3,$4,$5,0*
20,1,$1+$1,$4,$5,$6,$7,0*
20,1,$1+$1,$6,$7,$8,$9,0*
20,1,$1+$1,$8,$9,$2,$3,0*%
%AMFreePoly0*
4,1,19,0.500000,-0.750000,0.000000,-0.750000,0.000000,-0.744911,-0.071157,-0.744911,-0.207708,-0.704816,-0.327430,-0.627875,-0.420627,-0.520320,-0.479746,-0.390866,-0.500000,-0.250000,-0.500000,0.250000,-0.479746,0.390866,-0.420627,0.520320,-0.327430,0.627875,-0.207708,0.704816,-0.071157,0.744911,0.000000,0.744911,0.000000,0.750000,0.500000,0.750000,0.500000,-0.750000,0.500000,-0.750000,
$1*%
%AMFreePoly1*
4,1,19,0.000000,0.744911,0.071157,0.744911,0.207708,0.704816,0.327430,0.627875,0.420627,0.520320,0.479746,0.390866,0.500000,0.250000,0.500000,-0.250000,0.479746,-0.390866,0.420627,-0.520320,0.327430,-0.627875,0.207708,-0.704816,0.071157,-0.744911,0.000000,-0.744911,0.000000,-0.750000,-0.500000,-0.750000,-0.500000,0.750000,0.000000,0.750000,0.000000,0.744911,0.000000,0.744911,
$1*%
G04 Aperture macros list end*
%ADD10R,1.700000X1.700000*%
%ADD11O,1.700000X1.700000*%
%ADD12RoundRect,0.237500X0.237500X-0.250000X0.237500X0.250000X-0.237500X0.250000X-0.237500X-0.250000X0*%
%ADD13RoundRect,0.249999X1.450001X-0.537501X1.450001X0.537501X-1.450001X0.537501X-1.450001X-0.537501X0*%
%ADD14RoundRect,0.237500X0.300000X0.237500X-0.300000X0.237500X-0.300000X-0.237500X0.300000X-0.237500X0*%
%ADD15RoundRect,0.237500X-0.237500X0.250000X-0.237500X-0.250000X0.237500X-0.250000X0.237500X0.250000X0*%
%ADD16RoundRect,0.237500X0.250000X0.237500X-0.250000X0.237500X-0.250000X-0.237500X0.250000X-0.237500X0*%
%ADD17RoundRect,0.150000X0.150000X-0.825000X0.150000X0.825000X-0.150000X0.825000X-0.150000X-0.825000X0*%
%ADD18RoundRect,0.237500X-0.250000X-0.237500X0.250000X-0.237500X0.250000X0.237500X-0.250000X0.237500X0*%
%ADD19R,1.505000X0.802000*%
%ADD20R,2.613000X3.502000*%
%ADD21RoundRect,0.250000X-1.450000X0.400000X-1.450000X-0.400000X1.450000X-0.400000X1.450000X0.400000X0*%
%ADD22C,2.000000*%
%ADD23R,1.000000X3.100000*%
%ADD24RoundRect,0.237500X-0.237500X0.300000X-0.237500X-0.300000X0.237500X-0.300000X0.237500X0.300000X0*%
%ADD25RoundRect,0.249999X0.537501X1.450001X-0.537501X1.450001X-0.537501X-1.450001X0.537501X-1.450001X0*%
%ADD26RoundRect,0.250000X-0.400000X-1.450000X0.400000X-1.450000X0.400000X1.450000X-0.400000X1.450000X0*%
%ADD27C,0.650000*%
%ADD28O,0.650000X0.950000*%
%ADD29R,0.700000X0.300000*%
%ADD30O,1.400000X0.800000*%
%ADD31R,1.500000X2.200000*%
%ADD32R,5.400000X2.900000*%
%ADD33R,0.900000X1.500000*%
%ADD34R,4.000000X4.000000*%
%ADD35R,1.100000X0.510000*%
%ADD36RoundRect,0.249999X-1.450001X0.537501X-1.450001X-0.537501X1.450001X-0.537501X1.450001X0.537501X0*%
%ADD37RoundRect,0.150000X-0.512500X-0.150000X0.512500X-0.150000X0.512500X0.150000X-0.512500X0.150000X0*%
%ADD38O,3.500000X2.200000*%
%ADD39R,2.500000X1.500000*%
%ADD40O,2.500000X1.500000*%
%ADD41R,1.400000X1.300000*%
%ADD42O,3.000000X2.286000*%
%ADD43FreePoly0,0.000000*%
%ADD44FreePoly1,0.000000*%
%ADD45RoundRect,0.250000X0.350000X0.450000X-0.350000X0.450000X-0.350000X-0.450000X0.350000X-0.450000X0*%
%ADD46RoundRect,0.237500X-0.300000X-0.237500X0.300000X-0.237500X0.300000X0.237500X-0.300000X0.237500X0*%
%ADD47RoundRect,0.250000X0.450000X-0.325000X0.450000X0.325000X-0.450000X0.325000X-0.450000X-0.325000X0*%
%ADD48R,1.300000X1.400000*%
%ADD49R,0.600000X0.450000*%
%ADD50RoundRect,0.250000X-0.350000X-0.450000X0.350000X-0.450000X0.350000X0.450000X-0.350000X0.450000X0*%
%ADD51RoundRect,0.250000X-0.325000X-0.450000X0.325000X-0.450000X0.325000X0.450000X-0.325000X0.450000X0*%
%ADD52RoundRect,0.150000X0.587500X0.150000X-0.587500X0.150000X-0.587500X-0.150000X0.587500X-0.150000X0*%
%ADD53RoundRect,0.250000X-0.650000X0.412500X-0.650000X-0.412500X0.650000X-0.412500X0.650000X0.412500X0*%
%ADD54R,2.900000X5.400000*%
%ADD55RoundRect,0.150000X0.150000X-0.587500X0.150000X0.587500X-0.150000X0.587500X-0.150000X-0.587500X0*%
%ADD56RoundRect,0.250000X1.500000X-0.250000X1.500000X0.250000X-1.500000X0.250000X-1.500000X-0.250000X0*%
%ADD57RoundRect,0.250001X1.449999X-0.499999X1.449999X0.499999X-1.449999X0.499999X-1.449999X-0.499999X0*%
%ADD58RoundRect,0.250000X-1.450000X0.537500X-1.450000X-0.537500X1.450000X-0.537500X1.450000X0.537500X0*%
%ADD59FreePoly0,180.000000*%
%ADD60FreePoly1,180.000000*%
%ADD61RoundRect,0.250000X-0.412500X-0.650000X0.412500X-0.650000X0.412500X0.650000X-0.412500X0.650000X0*%
%ADD62R,1.560000X0.650000*%
G04 APERTURE END LIST*
D10*
X66259999Y-64405999D03*
D11*
X66259999Y-66945999D03*
X66259999Y-69485999D03*
D12*
X48027500Y-68563500D03*
X48027500Y-66738500D03*
D13*
X28080000Y-41136000D03*
X28080000Y-36861000D03*
D14*
X60150000Y-70331000D03*
X58425000Y-70331000D03*
D15*
X57577500Y-66708500D03*
X57577500Y-68533500D03*
D16*
X68072500Y-14786000D03*
X66247500Y-14786000D03*
D17*
X38010000Y-51081000D03*
X39280000Y-51081000D03*
X40550000Y-51081000D03*
X41820000Y-51081000D03*
X43090000Y-51081000D03*
X44360000Y-51081000D03*
X45630000Y-51081000D03*
X45630000Y-46131000D03*
X44360000Y-46131000D03*
X43090000Y-46131000D03*
X41820000Y-46131000D03*
X40550000Y-46131000D03*
X39280000Y-46131000D03*
X38010000Y-46131000D03*
D18*
X40055000Y-24386000D03*
X41880000Y-24386000D03*
D10*
X39859999Y-41405999D03*
X43519999Y-41405999D03*
D19*
X50429999Y-64015999D03*
X50429999Y-65285999D03*
X50429999Y-66555999D03*
X50429999Y-67825999D03*
X55424999Y-67825999D03*
X55424999Y-66555999D03*
X55424999Y-65285999D03*
X55424999Y-64015999D03*
D20*
X52927499Y-65920999D03*
D21*
X27940000Y-45426000D03*
X27940000Y-49876000D03*
D22*
X6160000Y-75413500D03*
X11240000Y-75541501D03*
D23*
X6699999Y-70973499D03*
X6699999Y-62073499D03*
X10699999Y-70973499D03*
X10699999Y-62073499D03*
D16*
X68132500Y-11566000D03*
X66307500Y-11566000D03*
X68072500Y-17816000D03*
X66247500Y-17816000D03*
D22*
X33140000Y-48946000D03*
X37320000Y-54386000D03*
X48300000Y-54086000D03*
D24*
X45927500Y-68558500D03*
X45927500Y-70283500D03*
D25*
X61385000Y-73211000D03*
X57110000Y-73211000D03*
D26*
X65085000Y-73866000D03*
X69535000Y-73866000D03*
D27*
X71200000Y-18636000D03*
D28*
X71199999Y-11435999D03*
D29*
X70539999Y-17785999D03*
X70539999Y-17285999D03*
X70539999Y-16785999D03*
X70539999Y-16285999D03*
X70539999Y-15785999D03*
X70539999Y-15285999D03*
X70539999Y-14785999D03*
X70539999Y-14285999D03*
X70539999Y-13785999D03*
X70539999Y-13285999D03*
X70539999Y-12785999D03*
X70539999Y-12285999D03*
X72239999Y-12535999D03*
X72239999Y-13035999D03*
X72239999Y-13535999D03*
X72239999Y-14035999D03*
X72239999Y-14535999D03*
X72239999Y-15035999D03*
X72239999Y-15535999D03*
X72239999Y-16035999D03*
X72239999Y-16535999D03*
X72239999Y-17035999D03*
X72239999Y-17535999D03*
X72239999Y-18035999D03*
D30*
X78399999Y-19525999D03*
X72449999Y-19165999D03*
X72449999Y-10905999D03*
X78399999Y-10545999D03*
D31*
X41237499Y-61570999D03*
X47637499Y-61570999D03*
D32*
X36399999Y-20875999D03*
X36399999Y-10975999D03*
D16*
X16170000Y-60706000D03*
X14345000Y-60706000D03*
X23592500Y-74736000D03*
X21767500Y-74736000D03*
D18*
X18585000Y-60756000D03*
X20410000Y-60756000D03*
D12*
X22720000Y-70413500D03*
X22720000Y-68588500D03*
X18600000Y-70333500D03*
X18600000Y-68508500D03*
D33*
X9979999Y-49625999D03*
X11479999Y-49625999D03*
X12979999Y-49625999D03*
X14479999Y-49625999D03*
X15979999Y-49625999D03*
X17479999Y-49625999D03*
X18979999Y-49625999D03*
X20479999Y-49625999D03*
X21979999Y-49625999D03*
X21979999Y-32125999D03*
X20479999Y-32125999D03*
X18979999Y-32125999D03*
X17479999Y-32125999D03*
X15979999Y-32125999D03*
X14479999Y-32125999D03*
X12979999Y-32125999D03*
X11479999Y-32125999D03*
X9979999Y-32125999D03*
D34*
X16589999Y-39775999D03*
D35*
X62349999Y-17595999D03*
X62349999Y-16595999D03*
X62349999Y-15595999D03*
X62349999Y-14595999D03*
X62349999Y-13595999D03*
X57249999Y-13595999D03*
X57249999Y-14595999D03*
X57249999Y-15595999D03*
X57249999Y-16595999D03*
X57249999Y-17595999D03*
D36*
X35500000Y-28031000D03*
X35500000Y-32306000D03*
D37*
X55670000Y-55006000D03*
X55670000Y-55956000D03*
X55670000Y-56906000D03*
X57945000Y-56906000D03*
X57945000Y-55956000D03*
X57945000Y-55006000D03*
D15*
X44370000Y-53431000D03*
X44370000Y-55256000D03*
D18*
X62967500Y-28476000D03*
X64792500Y-28476000D03*
D38*
X78849999Y-54665999D03*
X78849999Y-46465999D03*
D39*
X78849999Y-52565999D03*
D40*
X78849999Y-50565999D03*
X78849999Y-48565999D03*
D16*
X19387500Y-74716000D03*
X17562500Y-74716000D03*
D24*
X33230000Y-51881000D03*
X33230000Y-53606000D03*
D10*
X33239999Y-66395999D03*
D11*
X33239999Y-68935999D03*
X33239999Y-71475999D03*
D41*
X48479999Y-17045999D03*
X48479999Y-19945999D03*
X48499999Y-14445999D03*
X48499999Y-11545999D03*
D42*
X73069999Y-62755999D03*
X73042032Y-66251842D03*
X73042032Y-69803617D03*
X73042032Y-73159626D03*
D16*
X59422500Y-64996000D03*
X57597500Y-64996000D03*
X61180000Y-66741000D03*
X59355000Y-66741000D03*
D42*
X73138204Y-24347169D03*
X73110237Y-27843012D03*
D10*
X29589999Y-66395999D03*
D11*
X29589999Y-68935999D03*
X29589999Y-71475999D03*
D43*
X49430000Y-41246000D03*
D44*
X50730000Y-41246000D03*
D45*
X68390000Y-47886000D03*
X66390000Y-47886000D03*
D14*
X59212500Y-11516000D03*
X57487500Y-11516000D03*
D10*
X67619999Y-37630999D03*
D11*
X67619999Y-35090999D03*
D46*
X58827500Y-51836000D03*
X60552500Y-51836000D03*
D47*
X18600000Y-65796000D03*
X18600000Y-63746000D03*
D16*
X24325000Y-21256000D03*
X22500000Y-21256000D03*
D18*
X66510000Y-51666000D03*
X68335000Y-51666000D03*
D48*
X63689999Y-47875999D03*
X60789999Y-47875999D03*
D49*
X70739999Y-47905999D03*
X72839999Y-47905999D03*
D24*
X52580000Y-55233500D03*
X52580000Y-56958500D03*
D10*
X15199999Y-17065999D03*
D11*
X17739999Y-17065999D03*
X20279999Y-17065999D03*
X22819999Y-17065999D03*
X25359999Y-17065999D03*
X27899999Y-17065999D03*
D50*
X52010000Y-15306000D03*
X54010000Y-15306000D03*
X51820000Y-11666000D03*
X53820000Y-11666000D03*
D51*
X61757500Y-38756000D03*
X63807500Y-38756000D03*
D18*
X53975000Y-40696000D03*
X55800000Y-40696000D03*
D52*
X57050000Y-48376000D03*
X57050000Y-46476000D03*
X55175000Y-47426000D03*
D53*
X66600000Y-22853500D03*
X66600000Y-25978500D03*
D51*
X61757500Y-34996000D03*
X63807500Y-34996000D03*
D54*
X46669999Y-31835999D03*
X56569999Y-31835999D03*
D16*
X63882500Y-11566000D03*
X62057500Y-11566000D03*
D55*
X61260000Y-44986000D03*
X63160000Y-44986000D03*
X62210000Y-43111000D03*
D56*
X73340000Y-37256000D03*
X73340000Y-35256000D03*
D57*
X79090000Y-39606000D03*
X79090000Y-32906000D03*
D43*
X49420000Y-45876000D03*
D44*
X50720000Y-45876000D03*
D18*
X66480000Y-55566000D03*
X68305000Y-55566000D03*
D45*
X54000000Y-18746000D03*
X52000000Y-18746000D03*
D47*
X22720000Y-65888500D03*
X22720000Y-63838500D03*
D52*
X53880000Y-23386000D03*
X53880000Y-21486000D03*
X52005000Y-22436000D03*
D58*
X41577500Y-66903500D03*
X41577500Y-71178500D03*
D59*
X27070000Y-11946000D03*
D60*
X25770000Y-11946000D03*
D10*
X30499999Y-57015999D03*
D11*
X27959999Y-57015999D03*
X25419999Y-57015999D03*
X22879999Y-57015999D03*
X20339999Y-57015999D03*
X17799999Y-57015999D03*
X15259999Y-57015999D03*
X12719999Y-57015999D03*
X10179999Y-57015999D03*
D24*
X62980000Y-23556000D03*
X62980000Y-25281000D03*
D16*
X41565000Y-28916000D03*
X39740000Y-28916000D03*
X72700000Y-51676000D03*
X70875000Y-51676000D03*
D59*
X34990000Y-41436000D03*
D60*
X33690000Y-41436000D03*
D43*
X49540000Y-50816000D03*
D44*
X50840000Y-50816000D03*
D15*
X40820000Y-53553500D03*
X40820000Y-55378500D03*
D43*
X33660000Y-37896000D03*
D44*
X34960000Y-37896000D03*
D18*
X70920000Y-56046000D03*
X72745000Y-56046000D03*
D61*
X66207500Y-43536000D03*
X69332500Y-43536000D03*
D46*
X62877500Y-20546000D03*
X64602500Y-20546000D03*
D10*
X10089999Y-24625999D03*
D11*
X12629999Y-24625999D03*
X15169999Y-24625999D03*
X17709999Y-24625999D03*
X20249999Y-24625999D03*
X22789999Y-24625999D03*
X25329999Y-24625999D03*
X27869999Y-24625999D03*
X30409999Y-24625999D03*
D37*
X39162500Y-33116000D03*
X39162500Y-34066000D03*
X39162500Y-35016000D03*
X41437500Y-35016000D03*
X41437500Y-33116000D03*
D62*
X61119999Y-55135999D03*
X61119999Y-56085999D03*
X61119999Y-57035999D03*
X63819999Y-57035999D03*
X63819999Y-56085999D03*
X63819999Y-55135999D03*
D46*
X17645000Y-72496000D03*
X19370000Y-72496000D03*
M02*
