%TF.GenerationSoftware,KiCad,Pcbnew,6.99.0-unknown-bde2d388f1~154~ubuntu22.04.1*%
%TF.CreationDate,2022-09-14T17:24:21+01:00*%
%TF.ProjectId,boostcircuit,626f6f73-7463-4697-9263-7569742e6b69,rev?*%
%TF.SameCoordinates,Original*%
%TF.FileFunction,Copper,L1,Top*%
%TF.FilePolarity,Positive*%
%FSLAX46Y46*%
G04 Gerber Fmt 4.6, Leading zero omitted, Abs format (unit mm)*
G04 Created by KiCad (PCBNEW 6.99.0-unknown-bde2d388f1~154~ubuntu22.04.1) date 2022-09-14 17:24:21*
%MOMM*%
%LPD*%
G01*
G04 APERTURE LIST*
G04 Aperture macros list*
%AMRoundRect*
0 Rectangle with rounded corners*
0 $1 Rounding radius*
0 $2 $3 $4 $5 $6 $7 $8 $9 X,Y pos of 4 corners*
0 Add a 4 corners polygon primitive as box body*
4,1,4,$2,$3,$4,$5,$6,$7,$8,$9,$2,$3,0*
0 Add four circle primitives for the rounded corners*
1,1,$1+$1,$2,$3*
1,1,$1+$1,$4,$5*
1,1,$1+$1,$6,$7*
1,1,$1+$1,$8,$9*
0 Add four rect primitives between the rounded corners*
20,1,$1+$1,$2,$3,$4,$5,0*
20,1,$1+$1,$4,$5,$6,$7,0*
20,1,$1+$1,$6,$7,$8,$9,0*
20,1,$1+$1,$8,$9,$2,$3,0*%
G04 Aperture macros list end*
%TA.AperFunction,SMDPad,CuDef*%
%ADD10RoundRect,0.175000X-1.250000X-0.175000X1.250000X-0.175000X1.250000X0.175000X-1.250000X0.175000X0*%
%TD*%
%TA.AperFunction,ComponentPad*%
%ADD11C,0.810000*%
%TD*%
%TA.AperFunction,SMDPad,CuDef*%
%ADD12R,4.570000X4.450000*%
%TD*%
%TA.AperFunction,SMDPad,CuDef*%
%ADD13RoundRect,0.237500X-0.237500X0.250000X-0.237500X-0.250000X0.237500X-0.250000X0.237500X0.250000X0*%
%TD*%
%TA.AperFunction,SMDPad,CuDef*%
%ADD14RoundRect,0.237500X0.250000X0.237500X-0.250000X0.237500X-0.250000X-0.237500X0.250000X-0.237500X0*%
%TD*%
%TA.AperFunction,SMDPad,CuDef*%
%ADD15RoundRect,0.237500X0.300000X0.237500X-0.300000X0.237500X-0.300000X-0.237500X0.300000X-0.237500X0*%
%TD*%
%TA.AperFunction,SMDPad,CuDef*%
%ADD16R,2.413000X3.429000*%
%TD*%
%TA.AperFunction,SMDPad,CuDef*%
%ADD17RoundRect,0.237500X-0.237500X0.300000X-0.237500X-0.300000X0.237500X-0.300000X0.237500X0.300000X0*%
%TD*%
%TA.AperFunction,SMDPad,CuDef*%
%ADD18RoundRect,0.237500X0.237500X-0.250000X0.237500X0.250000X-0.237500X0.250000X-0.237500X-0.250000X0*%
%TD*%
%TA.AperFunction,SMDPad,CuDef*%
%ADD19RoundRect,0.237500X-0.250000X-0.237500X0.250000X-0.237500X0.250000X0.237500X-0.250000X0.237500X0*%
%TD*%
%TA.AperFunction,Conductor*%
%ADD20C,0.250000*%
%TD*%
G04 APERTURE END LIST*
D10*
%TO.P,U1,1,LX*%
%TO.N,Net-(U1-LX)*%
X138090000Y-89535000D03*
%TO.P,U1,2,LX*%
X138090000Y-90805000D03*
%TO.P,U1,3,Vin*%
%TO.N,+3.3V*%
X138090000Y-92075000D03*
%TO.P,U1,4,EN*%
%TO.N,Net-(U1-EN)*%
X138090000Y-93345000D03*
%TO.P,U1,5,Gnd*%
%TO.N,GND*%
X146390000Y-93345000D03*
%TO.P,U1,6,FB*%
%TO.N,Net-(U1-FB)*%
X146390000Y-92075000D03*
%TO.P,U1,7,OC*%
%TO.N,Net-(U1-OC)*%
X146390000Y-90805000D03*
%TO.P,U1,8,VO*%
%TO.N,Net-(U1-VO)*%
X146390000Y-89535000D03*
D11*
%TO.P,U1,9,PGND*%
%TO.N,GND*%
X140970000Y-90170000D03*
X140970000Y-91440000D03*
X140970000Y-92710000D03*
D12*
X142239999Y-91439999D03*
D11*
X143510000Y-90170000D03*
X143510000Y-91440000D03*
X143510000Y-92710000D03*
%TD*%
D13*
%TO.P,R2,1*%
%TO.N,Net-(U1-FB)*%
X149580000Y-92087500D03*
%TO.P,R2,2*%
%TO.N,GND*%
X149580000Y-93912500D03*
%TD*%
D14*
%TO.P,R1,1*%
%TO.N,Net-(U1-VO)*%
X153232500Y-92080000D03*
%TO.P,R1,2*%
%TO.N,Net-(U1-FB)*%
X151407500Y-92080000D03*
%TD*%
D15*
%TO.P,C4,1*%
%TO.N,Net-(U1-VO)*%
X153172500Y-96580000D03*
%TO.P,C4,2*%
%TO.N,GND*%
X151447500Y-96580000D03*
%TD*%
D16*
%TO.P,L1,1*%
%TO.N,+3.3V*%
X126999999Y-88899999D03*
%TO.P,L1,2*%
%TO.N,Net-(U1-LX)*%
X132841999Y-88899999D03*
%TD*%
D15*
%TO.P,C3,1*%
%TO.N,Net-(U1-VO)*%
X153252500Y-94750000D03*
%TO.P,C3,2*%
%TO.N,GND*%
X151527500Y-94750000D03*
%TD*%
D17*
%TO.P,C1,2*%
%TO.N,GND*%
X124280000Y-94005000D03*
%TO.P,C1,1*%
%TO.N,+3.3V*%
X124280000Y-92280000D03*
%TD*%
%TO.P,C8,1*%
%TO.N,Net-(U1-EN)*%
X134770000Y-93320000D03*
%TO.P,C8,2*%
%TO.N,GND*%
X134770000Y-95045000D03*
%TD*%
D18*
%TO.P,R3,1*%
%TO.N,Net-(U1-EN)*%
X129330000Y-93902500D03*
%TO.P,R3,2*%
%TO.N,+3.3V*%
X129330000Y-92077500D03*
%TD*%
D19*
%TO.P,R9,2*%
%TO.N,GND*%
X151592500Y-90490000D03*
%TO.P,R9,1*%
%TO.N,Net-(U1-OC)*%
X149767500Y-90490000D03*
%TD*%
D20*
%TO.N,Net-(U1-VO)*%
X153357776Y-91440000D02*
X153057776Y-91140000D01*
%TO.N,Net-(U1-LX)*%
X132842000Y-88900000D02*
X137455000Y-88900000D01*
X137455000Y-88900000D02*
X138090000Y-89535000D01*
%TO.N,GND*%
X144145000Y-93345000D02*
X143510000Y-92710000D01*
%TO.N,Net-(U1-LX)*%
X132842000Y-88900000D02*
X133477000Y-88265000D01*
%TO.N,+3.3V*%
X136565000Y-92075000D02*
X138090000Y-92075000D01*
X126200000Y-89700000D02*
X127000000Y-88900000D01*
%TO.N,Net-(U1-EN)*%
X137795000Y-93345000D02*
X138090000Y-93345000D01*
%TO.N,Net-(U1-VO)*%
X146390000Y-89535000D02*
X146685000Y-89535000D01*
%TD*%
%TA.AperFunction,Conductor*%
%TO.N,+3.3V*%
G36*
X126938926Y-86380002D02*
G01*
X126985419Y-86433658D01*
X126996765Y-86489156D01*
X126995124Y-86554656D01*
X126973423Y-86622254D01*
X126918619Y-86667389D01*
X126869164Y-86677500D01*
X125748277Y-86677500D01*
X125741562Y-86677860D01*
X125692243Y-86683162D01*
X125677022Y-86686759D01*
X125555980Y-86731905D01*
X125540324Y-86740454D01*
X125437807Y-86817198D01*
X125425198Y-86829807D01*
X125348454Y-86932324D01*
X125339905Y-86947980D01*
X125294759Y-87069022D01*
X125291162Y-87084243D01*
X125285860Y-87133562D01*
X125285500Y-87140277D01*
X125285500Y-88627885D01*
X125289975Y-88643124D01*
X125291365Y-88644329D01*
X125299048Y-88646000D01*
X126942740Y-88646000D01*
X126930015Y-89154000D01*
X125303615Y-89154000D01*
X125288376Y-89158475D01*
X125287171Y-89159865D01*
X125285500Y-89167548D01*
X125285500Y-90659723D01*
X125285860Y-90666438D01*
X125291162Y-90715757D01*
X125294759Y-90730978D01*
X125339905Y-90852020D01*
X125348454Y-90867676D01*
X125425198Y-90970193D01*
X125437807Y-90982802D01*
X125540324Y-91059546D01*
X125555980Y-91068095D01*
X125677022Y-91113241D01*
X125692243Y-91116838D01*
X125741562Y-91122140D01*
X125748277Y-91122500D01*
X126751513Y-91122500D01*
X126819634Y-91142502D01*
X126866127Y-91196158D01*
X126877473Y-91251655D01*
X126870000Y-91550000D01*
X127247295Y-91549090D01*
X128230777Y-91546719D01*
X128298946Y-91566557D01*
X128345568Y-91620101D01*
X128356429Y-91685524D01*
X128347325Y-91774637D01*
X128347000Y-91781030D01*
X128347000Y-91805385D01*
X128351475Y-91820624D01*
X128352865Y-91821829D01*
X128360548Y-91823500D01*
X130294885Y-91823500D01*
X130310124Y-91819025D01*
X130311329Y-91817635D01*
X130313000Y-91809952D01*
X130313000Y-91781030D01*
X130312675Y-91774639D01*
X130303029Y-91680225D01*
X130316005Y-91610424D01*
X130364657Y-91558719D01*
X130428071Y-91541419D01*
X134394948Y-91531853D01*
X136069042Y-91527816D01*
X136137211Y-91547654D01*
X136183833Y-91601197D01*
X136194106Y-91671447D01*
X136189641Y-91691301D01*
X136165237Y-91769617D01*
X136162651Y-91782621D01*
X136160803Y-91802957D01*
X136163744Y-91817851D01*
X136175605Y-91821000D01*
X138218000Y-91821000D01*
X138286121Y-91841002D01*
X138332614Y-91894658D01*
X138344000Y-91947000D01*
X138344000Y-92203000D01*
X138323998Y-92271121D01*
X138270342Y-92317614D01*
X138218000Y-92329000D01*
X136177279Y-92329000D01*
X136162714Y-92333277D01*
X136160651Y-92345372D01*
X136162650Y-92367371D01*
X136165240Y-92380392D01*
X136183087Y-92437667D01*
X136184256Y-92508653D01*
X136146861Y-92569004D01*
X136082775Y-92599556D01*
X136063229Y-92601150D01*
X135695178Y-92602426D01*
X135626989Y-92582660D01*
X135598195Y-92556646D01*
X135596658Y-92554154D01*
X135473346Y-92430842D01*
X135324920Y-92339291D01*
X135259502Y-92317614D01*
X135165907Y-92286600D01*
X135165903Y-92286599D01*
X135159381Y-92284438D01*
X135152547Y-92283740D01*
X135152543Y-92283739D01*
X135060397Y-92274325D01*
X135060391Y-92274325D01*
X135057213Y-92274000D01*
X134770045Y-92274000D01*
X134482788Y-92274001D01*
X134479611Y-92274326D01*
X134479602Y-92274326D01*
X134431735Y-92279216D01*
X134380619Y-92284438D01*
X134215080Y-92339291D01*
X134066654Y-92430842D01*
X133943342Y-92554154D01*
X133939489Y-92560401D01*
X133939008Y-92561009D01*
X133881066Y-92602036D01*
X133840617Y-92608854D01*
X130427795Y-92620684D01*
X130359607Y-92600918D01*
X130312928Y-92547424D01*
X130302894Y-92479312D01*
X130302569Y-92479279D01*
X130302700Y-92477995D01*
X130302581Y-92477186D01*
X130303058Y-92474492D01*
X130312675Y-92380361D01*
X130313000Y-92373971D01*
X130313000Y-92349615D01*
X130308525Y-92334376D01*
X130307135Y-92333171D01*
X130299452Y-92331500D01*
X128365115Y-92331500D01*
X128349876Y-92335975D01*
X128348671Y-92337365D01*
X128347000Y-92345048D01*
X128347000Y-92373971D01*
X128347325Y-92380361D01*
X128356732Y-92472438D01*
X128357475Y-92475908D01*
X128357311Y-92478102D01*
X128357431Y-92479279D01*
X128357221Y-92479300D01*
X128352177Y-92546706D01*
X128309444Y-92603402D01*
X128242843Y-92627994D01*
X128234704Y-92628285D01*
X126794166Y-92633278D01*
X125383026Y-92638170D01*
X125314837Y-92618404D01*
X125268158Y-92564910D01*
X125261693Y-92547668D01*
X125258524Y-92536875D01*
X125257135Y-92535671D01*
X125249452Y-92534000D01*
X123315115Y-92534000D01*
X123299876Y-92538475D01*
X123298670Y-92539867D01*
X123297203Y-92546609D01*
X123263178Y-92608922D01*
X123200866Y-92642947D01*
X123174521Y-92645825D01*
X122801432Y-92647118D01*
X122095436Y-92649565D01*
X122027246Y-92629799D01*
X121980567Y-92576305D01*
X121969003Y-92524568D01*
X121964896Y-92007885D01*
X123297000Y-92007885D01*
X123301475Y-92023124D01*
X123302865Y-92024329D01*
X123310548Y-92026000D01*
X124007885Y-92026000D01*
X124023124Y-92021525D01*
X124024329Y-92020135D01*
X124026000Y-92012452D01*
X124026000Y-92007885D01*
X124534000Y-92007885D01*
X124538475Y-92023124D01*
X124539865Y-92024329D01*
X124547548Y-92026000D01*
X125244885Y-92026000D01*
X125260124Y-92021525D01*
X125261329Y-92020135D01*
X125263000Y-92012452D01*
X125263000Y-91933530D01*
X125262675Y-91927139D01*
X125253267Y-91835057D01*
X125250408Y-91821699D01*
X125200058Y-91669753D01*
X125193902Y-91656551D01*
X125110117Y-91520715D01*
X125101070Y-91509274D01*
X124988226Y-91396430D01*
X124976785Y-91387383D01*
X124840949Y-91303598D01*
X124827747Y-91297442D01*
X124675801Y-91247092D01*
X124662443Y-91244233D01*
X124570361Y-91234825D01*
X124563970Y-91234500D01*
X124552115Y-91234500D01*
X124536876Y-91238975D01*
X124535671Y-91240365D01*
X124534000Y-91248048D01*
X124534000Y-92007885D01*
X124026000Y-92007885D01*
X124026000Y-91252615D01*
X124021525Y-91237376D01*
X124020135Y-91236171D01*
X124012452Y-91234500D01*
X123996030Y-91234500D01*
X123989639Y-91234825D01*
X123897557Y-91244233D01*
X123884199Y-91247092D01*
X123732253Y-91297442D01*
X123719051Y-91303598D01*
X123583215Y-91387383D01*
X123571774Y-91396430D01*
X123458930Y-91509274D01*
X123449883Y-91520715D01*
X123366098Y-91656551D01*
X123359942Y-91669753D01*
X123309592Y-91821699D01*
X123306733Y-91835057D01*
X123297325Y-91927139D01*
X123297000Y-91933530D01*
X123297000Y-92007885D01*
X121964896Y-92007885D01*
X121921010Y-86487002D01*
X121940470Y-86418724D01*
X121993754Y-86371806D01*
X122047006Y-86360000D01*
X126870805Y-86360000D01*
X126938926Y-86380002D01*
G37*
%TD.AperFunction*%
%TD*%
%TA.AperFunction,NonConductor*%
G36*
X148462653Y-93327599D02*
G01*
X148495732Y-93328354D01*
X148563378Y-93349906D01*
X148608634Y-93404609D01*
X148617131Y-93475095D01*
X148612461Y-93493950D01*
X148606938Y-93510619D01*
X148606240Y-93517453D01*
X148606239Y-93517457D01*
X148596825Y-93609603D01*
X148596500Y-93612787D01*
X148596501Y-94212212D01*
X148606938Y-94314381D01*
X148661791Y-94479920D01*
X148665642Y-94486163D01*
X148731614Y-94593119D01*
X148753342Y-94628346D01*
X148876654Y-94751658D01*
X148882901Y-94755511D01*
X148882902Y-94755512D01*
X148907762Y-94770846D01*
X149025080Y-94843209D01*
X149087255Y-94863811D01*
X149184093Y-94895900D01*
X149184097Y-94895901D01*
X149190619Y-94898062D01*
X149197453Y-94898760D01*
X149197457Y-94898761D01*
X149289603Y-94908175D01*
X149289609Y-94908175D01*
X149292787Y-94908500D01*
X149579955Y-94908500D01*
X149867212Y-94908499D01*
X149870389Y-94908174D01*
X149870398Y-94908174D01*
X149918265Y-94903284D01*
X149969381Y-94898062D01*
X150134920Y-94843209D01*
X150252238Y-94770846D01*
X150277100Y-94755511D01*
X150277102Y-94755509D01*
X150283346Y-94751658D01*
X150283957Y-94752649D01*
X150343186Y-94728751D01*
X150412936Y-94742000D01*
X150464450Y-94790854D01*
X150481501Y-94854147D01*
X150481501Y-95037212D01*
X150481826Y-95040389D01*
X150481826Y-95040398D01*
X150486529Y-95086430D01*
X150491938Y-95139381D01*
X150546791Y-95304920D01*
X150638342Y-95453346D01*
X150727734Y-95542738D01*
X150761760Y-95605050D01*
X150756695Y-95675865D01*
X150714148Y-95732701D01*
X150704788Y-95739073D01*
X150681654Y-95753342D01*
X150558342Y-95876654D01*
X150466791Y-96025080D01*
X150411938Y-96190619D01*
X150401500Y-96292787D01*
X150401501Y-96867212D01*
X150411938Y-96969381D01*
X150466791Y-97134920D01*
X150558342Y-97283346D01*
X150681654Y-97406658D01*
X150830080Y-97498209D01*
X150892255Y-97518811D01*
X150989093Y-97550900D01*
X150989097Y-97550901D01*
X150995619Y-97553062D01*
X151002453Y-97553760D01*
X151002457Y-97553761D01*
X151094603Y-97563175D01*
X151094609Y-97563175D01*
X151097787Y-97563500D01*
X151447445Y-97563500D01*
X151797212Y-97563499D01*
X151800389Y-97563174D01*
X151800398Y-97563174D01*
X151848265Y-97558284D01*
X151899381Y-97553062D01*
X151905906Y-97550900D01*
X151941309Y-97539169D01*
X152012264Y-97536729D01*
X152073274Y-97573038D01*
X152104969Y-97636567D01*
X152106936Y-97657671D01*
X152106987Y-97663495D01*
X152106219Y-97675173D01*
X152106418Y-97675187D01*
X152106110Y-97679684D01*
X152105484Y-97684136D01*
X152106004Y-97856368D01*
X152106085Y-97883257D01*
X152086289Y-97951438D01*
X152032774Y-97998092D01*
X151979736Y-98009637D01*
X133129750Y-97957038D01*
X123564087Y-97930346D01*
X123496023Y-97910153D01*
X123449680Y-97856368D01*
X123438449Y-97805921D01*
X123430010Y-97130800D01*
X123430000Y-97129225D01*
X123430000Y-95029460D01*
X123450002Y-94961339D01*
X123503658Y-94914846D01*
X123573932Y-94904742D01*
X123622147Y-94922219D01*
X123679675Y-94957702D01*
X123725080Y-94985709D01*
X123787255Y-95006311D01*
X123884093Y-95038400D01*
X123884097Y-95038401D01*
X123890619Y-95040562D01*
X123897453Y-95041260D01*
X123897457Y-95041261D01*
X123989603Y-95050675D01*
X123989609Y-95050675D01*
X123992787Y-95051000D01*
X124279955Y-95051000D01*
X124567212Y-95050999D01*
X124570389Y-95050674D01*
X124570398Y-95050674D01*
X124618265Y-95045784D01*
X124669381Y-95040562D01*
X124834920Y-94985709D01*
X124966187Y-94904742D01*
X124977098Y-94898012D01*
X124977099Y-94898011D01*
X124983346Y-94894158D01*
X125092158Y-94785346D01*
X125154470Y-94751320D01*
X125225285Y-94756385D01*
X125282121Y-94798932D01*
X125306932Y-94865452D01*
X125307252Y-94873817D01*
X125310000Y-95440000D01*
X125323235Y-95440064D01*
X126255691Y-95444569D01*
X133590000Y-95480000D01*
X133590134Y-95472640D01*
X133648972Y-95435226D01*
X133719967Y-95435568D01*
X133779508Y-95474239D01*
X133803492Y-95516660D01*
X133851791Y-95662420D01*
X133943342Y-95810846D01*
X134066654Y-95934158D01*
X134215080Y-96025709D01*
X134238176Y-96033362D01*
X134374093Y-96078400D01*
X134374097Y-96078401D01*
X134380619Y-96080562D01*
X134387453Y-96081260D01*
X134387457Y-96081261D01*
X134479603Y-96090675D01*
X134479609Y-96090675D01*
X134482787Y-96091000D01*
X134769955Y-96091000D01*
X135057212Y-96090999D01*
X135060389Y-96090674D01*
X135060398Y-96090674D01*
X135108265Y-96085784D01*
X135159381Y-96080562D01*
X135324920Y-96025709D01*
X135473346Y-95934158D01*
X135596658Y-95810846D01*
X135688209Y-95662420D01*
X135743062Y-95496881D01*
X135745376Y-95474239D01*
X135753175Y-95397897D01*
X135753175Y-95397891D01*
X135753500Y-95394713D01*
X135753499Y-94695288D01*
X135743062Y-94593119D01*
X135730096Y-94553989D01*
X135727656Y-94483036D01*
X135763964Y-94422026D01*
X135827493Y-94390331D01*
X135850171Y-94388359D01*
X135977038Y-94388832D01*
X136290000Y-94390000D01*
X136290380Y-94389997D01*
X136290453Y-94389997D01*
X139436045Y-94365843D01*
X140099929Y-94360745D01*
X140098809Y-94301898D01*
X140117511Y-94233409D01*
X140170272Y-94185903D01*
X140224786Y-94173500D01*
X144573638Y-94173500D01*
X144576985Y-94173140D01*
X144576988Y-94173140D01*
X144597295Y-94170957D01*
X144634201Y-94166989D01*
X144734736Y-94129491D01*
X144805552Y-94124426D01*
X144843955Y-94139719D01*
X144857423Y-94147861D01*
X144864695Y-94150127D01*
X144864697Y-94150128D01*
X145009530Y-94195260D01*
X145009532Y-94195260D01*
X145015891Y-94197242D01*
X145084757Y-94203500D01*
X146389772Y-94203500D01*
X147695242Y-94203499D01*
X147698090Y-94203240D01*
X147698095Y-94203240D01*
X147757463Y-94197846D01*
X147757465Y-94197846D01*
X147764109Y-94197242D01*
X147861194Y-94166989D01*
X147915303Y-94150128D01*
X147915305Y-94150127D01*
X147922577Y-94147861D01*
X148064623Y-94061992D01*
X148181992Y-93944623D01*
X148267861Y-93802577D01*
X148275851Y-93776938D01*
X148315260Y-93650470D01*
X148315260Y-93650468D01*
X148317242Y-93644109D01*
X148323500Y-93575243D01*
X148323500Y-93453331D01*
X148343502Y-93385210D01*
X148397158Y-93338717D01*
X148452376Y-93327364D01*
X148462653Y-93327599D01*
G37*
%TD.AperFunction*%
%TA.AperFunction,NonConductor*%
G36*
X154561656Y-88950181D02*
G01*
X154608314Y-89003693D01*
X154619861Y-89056525D01*
X154619656Y-89242537D01*
X154610138Y-97894139D01*
X154590061Y-97962237D01*
X154536354Y-98008671D01*
X154484138Y-98020000D01*
X152745620Y-98020000D01*
X152677499Y-97999998D01*
X152631006Y-97946342D01*
X152619621Y-97894380D01*
X152618982Y-97682587D01*
X152638778Y-97614406D01*
X152692293Y-97567752D01*
X152757788Y-97556860D01*
X152819585Y-97563174D01*
X152819607Y-97563175D01*
X152822787Y-97563500D01*
X153172445Y-97563500D01*
X153522212Y-97563499D01*
X153525389Y-97563174D01*
X153525398Y-97563174D01*
X153573265Y-97558284D01*
X153624381Y-97553062D01*
X153789920Y-97498209D01*
X153938346Y-97406658D01*
X154061658Y-97283346D01*
X154153209Y-97134920D01*
X154208062Y-96969381D01*
X154218500Y-96867213D01*
X154218499Y-96292788D01*
X154208062Y-96190619D01*
X154153209Y-96025080D01*
X154061658Y-95876654D01*
X153972266Y-95787262D01*
X153938240Y-95724950D01*
X153943305Y-95654135D01*
X153985852Y-95597299D01*
X153995214Y-95590926D01*
X154012098Y-95580512D01*
X154012099Y-95580511D01*
X154018346Y-95576658D01*
X154141658Y-95453346D01*
X154233209Y-95304920D01*
X154288062Y-95139381D01*
X154298500Y-95037213D01*
X154298499Y-94462788D01*
X154288062Y-94360619D01*
X154233209Y-94195080D01*
X154141658Y-94046654D01*
X154018346Y-93923342D01*
X153998668Y-93911204D01*
X153876163Y-93835642D01*
X153869920Y-93831791D01*
X153781756Y-93802577D01*
X153710907Y-93779100D01*
X153710903Y-93779099D01*
X153704381Y-93776938D01*
X153697547Y-93776240D01*
X153697543Y-93776239D01*
X153605397Y-93766825D01*
X153605391Y-93766825D01*
X153602213Y-93766500D01*
X153252555Y-93766500D01*
X152902788Y-93766501D01*
X152899611Y-93766826D01*
X152899602Y-93766826D01*
X152851735Y-93771716D01*
X152800619Y-93776938D01*
X152794097Y-93779099D01*
X152794093Y-93779100D01*
X152772502Y-93786255D01*
X152701547Y-93788696D01*
X152640537Y-93752389D01*
X152608841Y-93688860D01*
X152606869Y-93667031D01*
X152605319Y-93153275D01*
X152625115Y-93085094D01*
X152678630Y-93038440D01*
X152748873Y-93028124D01*
X152770950Y-93033290D01*
X152824093Y-93050900D01*
X152824097Y-93050901D01*
X152830619Y-93053062D01*
X152837453Y-93053760D01*
X152837457Y-93053761D01*
X152929603Y-93063175D01*
X152929609Y-93063175D01*
X152932787Y-93063500D01*
X153232453Y-93063500D01*
X153532212Y-93063499D01*
X153535389Y-93063174D01*
X153535398Y-93063174D01*
X153583265Y-93058284D01*
X153634381Y-93053062D01*
X153799920Y-92998209D01*
X153948346Y-92906658D01*
X154071658Y-92783346D01*
X154163209Y-92634920D01*
X154183811Y-92572745D01*
X154215900Y-92475907D01*
X154215901Y-92475903D01*
X154218062Y-92469381D01*
X154227796Y-92374109D01*
X154228175Y-92370397D01*
X154228175Y-92370391D01*
X154228500Y-92367213D01*
X154228499Y-91792788D01*
X154227989Y-91787787D01*
X154218760Y-91697456D01*
X154218062Y-91690619D01*
X154163209Y-91525080D01*
X154071658Y-91376654D01*
X154067494Y-91372490D01*
X154041154Y-91307207D01*
X154040554Y-91294247D01*
X154050000Y-89490000D01*
X154036236Y-89490022D01*
X154036235Y-89490022D01*
X148449703Y-89499076D01*
X148381550Y-89479184D01*
X148334970Y-89425604D01*
X148323499Y-89373076D01*
X148323499Y-89304758D01*
X148317242Y-89235891D01*
X148278813Y-89112569D01*
X148277643Y-89041582D01*
X148315038Y-88981231D01*
X148379124Y-88950678D01*
X148398721Y-88949084D01*
X152873889Y-88935356D01*
X154493474Y-88930388D01*
X154561656Y-88950181D01*
G37*
%TD.AperFunction*%
M02*
